<?xml version="1.0" standalone="no"?>
<!DOCTYPE svg PUBLIC "-//W3C//DTD SVG 1.1//EN" "http://www.w3.org/Graphics/SVG/1.1/DTD/svg11.dtd" >
<svg xmlns="http://www.w3.org/2000/svg" xmlns:xlink="http://www.w3.org/1999/xlink" version="1.1">
<metadata>
Created by FontForge 20190801 at Mon Jul 11 02:58:35 2016
 By Jimmy Wärting
Typeface (c) pressgang studios/andeh pinkard. 2016. All Rights Reserved
</metadata>
<defs>
<font id="Outrunfuture-Bold" horiz-adv-x="1014" >
  <font-face 
    font-family="Outrun future"
    font-weight="700"
    font-stretch="normal"
    units-per-em="2048"
    panose-1="2 0 8 0 0 0 0 0 0 0"
    ascent="1638"
    descent="-410"
    x-height="1513"
    cap-height="1731"
    bbox="-1624 -1265 4004 3894"
    underline-thickness="150"
    underline-position="-292"
    unicode-range="U+001D-F002"
  />
<missing-glyph horiz-adv-x="1024" 
d="M70 -25v1484h884v-1484h-884zM180 75h664v1284h-664v-1284zM295 1158q42 37 71 54q61 34 129 34q104 0 169 -55t65 -145q0 -54 -24.5 -106.5t-90.5 -135.5q-62 -79 -96 -128t-34 -89q0 -35 31 -158h-91q-43 118 -43 173q0 82 81.5 224t81.5 211q0 48 -25 73t-69 25
q-29 0 -52 -13q-24 -13 -103 -79v115zM366 349l57 59q21 19 43 19q23 0 45 -20l57 -61q15 -18 15 -35q0 -19 -16 -37l-57 -62q-23 -24 -44 -24q-26 0 -44 20l-62 72q-12 16 -12 32q0 18 18 37z" />
    <glyph glyph-name=".notdef" horiz-adv-x="1024" 
d="M70 -25v1484h884v-1484h-884zM180 75h664v1284h-664v-1284zM295 1158q42 37 71 54q61 34 129 34q104 0 169 -55t65 -145q0 -54 -24.5 -106.5t-90.5 -135.5q-62 -79 -96 -128t-34 -89q0 -35 31 -158h-91q-43 118 -43 173q0 82 81.5 224t81.5 211q0 48 -25 73t-69 25
q-29 0 -52 -13q-24 -13 -103 -79v115zM366 349l57 59q21 19 43 19q23 0 45 -20l57 -61q15 -18 15 -35q0 -19 -16 -37l-57 -62q-23 -24 -44 -24q-26 0 -44 20l-62 72q-12 16 -12 32q0 18 18 37z" />
    <glyph glyph-name=".null" horiz-adv-x="0" 
 />
    <glyph glyph-name=".null" horiz-adv-x="0" 
 />
    <glyph glyph-name="nonmarkingreturn" horiz-adv-x="508" 
 />
    <glyph glyph-name="space" unicode=" " horiz-adv-x="508" 
 />
    <glyph glyph-name="space" unicode="&#xa0;" horiz-adv-x="508" 
 />
    <glyph glyph-name="exclam" unicode="!" horiz-adv-x="672" 
d="M196 371q40 -15 40 -12q-56 0 -56 10q55 -10 54 -10l8 4q58 0 58 -10l-30 -15h16q50 -12 50 -75q0 -144 -99 -256q-44 -13 -96 -62l-9 18l-5 -3q-31 47 -21 47q-58 -45 -106 -45v34q4 8 4 -18q52 0 52 -12h-64l-8 44q0 49 -8 136q37 135 63 163q1 0 1 14l68 34v-31h-18
q-22 0 -22 12h65q2 -17 -15 -17q-14 0 -14 33h59q18 -16 7 -16h-26v-23l-6 34q35 22 58 22zM371 1692h32q26 -20 19 -20q17 16 69 16h34q0 -13 -45 -13q1 7 65 7q0 -17 -29 -17l53 8q0 -16 -27 -12l3 6q72 -6 72 7l16 7q0 -19 21 -19l-14 -25l53 -38q-57 -7 -40 26
q2 0 8 -64q0 -73 -213 -912l-139 -358h-60v29l4 30v-22h48v-34h-61q-15 49 -15 59v49q-24 55 -24 125v128q0 -19 44 -19l-48 -137h-60q0 34 12 84v-24h49l-16 -50h-61q0 32 -4 75q52 500 121 746q31 113 67 335q33 0 44 16z" />
    <glyph glyph-name="quotedbl" unicode="&#x22;" horiz-adv-x="803" 
d="M62 1897q21 -42 10 -35l6 6q49 0 50 -1l-19 -11h33q31 -25 34 -33q39 -11 61 -73l3 -8q14 -41 14 -99q0 -75 -23 -178q0 -13 -56 -96q-35 -79 -85 -79l-8 31v7q0 1 17 -50l-7 -8h-19q-32 0 -47 58q10 0 10 -23q0 -8 15 -23h40v23q0 -17 -28 -35h-42l-6 23q-2 8 -2 21
q0 33 12 115q-3 2 -17 47q15 0 15 -21v-3l11 -45l19 19h-40l-10 27q-38 191 -38 274l-5 6l-3 12v3q0 17 63 65q11 -35 -44 -11q12 -43 12 -32q0 14 -4 0q10 0 -4 54q24 0 35 32q17 0 47 41zM471 1828h14q18 -12 39 -12l8 -32l2 16q39 0 78 -60q9 0 29 -46q9 -27 9 -60
q0 -82 -61 -208q-33 -31 -155 -192q-38 0 -63 30q5 51 5 68q0 5 17 -47l5 5h-44l-8 29l9 30l26 -53l1 2h-42l-12 25q12 316 52 469h-1q14 -28 14 -21q0 23 41 53q39 0 35 18q-19 -14 2 -14z" />
    <glyph glyph-name="numbersign" unicode="#" horiz-adv-x="2085" 
d="M556 159q-51 19 -107 23l3 38v0l30 14l-70 5q5 62 49 191l25 -2q-111 20 -191 26l-40 3l6 71l38 -3l74 2l-3 -36l-101 8l4 61q116 49 307 88q4 14 129 206l25 -2q-54 4 -315 13l6 68l72 5l-2 -34h-8l-85 -11l5 64q103 65 512 215q105 195 440 497l-7 -85l10 37l-22 -20
l54 -4l-3 -35q-2 -36 1 -36l-3 8l-2 -26q-3 -45 -66 -261l-29 2q212 33 218 106l186 185l-8 -103l-35 -62l1 18l-50 4q1 12 118 88l-14 -191l4 9l-35 2q340 -5 419 -11v9l-18 -8q102 -8 125 -74q19 -1 17 -37q-4 -49 -45 -50l2 35q41 -3 37 -57q-80 -94 -381 -150
q-246 -30 -246 -34q-16 -59 -81 -179q92 0 160 -6l44 -3q29 -37 93 -56l-5 -60l-144 -21l2 33l122 -10l-5 -65q-412 -45 -414 -72q-86 -162 -180 -260q-56 63 -19 60q-4 -54 -57 -49q-158 34 -146 187l2 18q-151 12 -182 -66q-101 -141 -221 -220zM920 685l123 22
q9 49 163 218l-55 -10q-68 0 -68 4z" />
    <glyph glyph-name="dollar" unicode="$" horiz-adv-x="1694" 
d="M2027 1653v-62l-75 -16v37h-15q30 12 90 12v-49q-67 -45 -342 -182l-28 -18q-49 0 -49 -46q-65 -27 -58 -27v44h-25q40 6 132 6q-139 -118 -419 -198q-141 -82 -878 -225q698 33 1219 -112q202 -52 202 -92q-2 0 17 -43q-10 -17 -10 4q15 -2 15 -33v-5q0 -17 -11 -24
q4 -5 4 -43l-20 -8l-3 5v-21q-167 -151 -448 -290q-267 -138 -635 -268q-67 -43 -346 -145q-335 -147 -408 -147q0 53 75 81v-35h28q-47 -17 -79 -35h-47v31q0 36 221 183h83q-144 -46 -209 -46q6 57 85 83v-37h29q-60 -23 -89 -23h-71q104 105 403 288q108 86 536 360
l118 96v-30h19q-318 46 -392 46q-105 -5 -202 -5q-230 0 -272 58q-10 0 -19 6q0 17 -58 17q-32 30 -32 23h53v26q7 -11 7 -56h-45q-97 45 -97 119q0 257 523 469q632 270 843 270h23q46 0 172 -12q207 22 485 69zM866 2150h32l4 -6l35 11l3 22l-46 -36h39q25 -73 25 -110
q0 -8 -1 -15q-138 -814 -221 -1501l-67 -558q-42 -353 -102 -566h-62l4 29h56l-6 -29h-52q-14 36 -14 68q0 8 1 19l-1 -6h58l-5 -39h-62l2 56h52q-8 -55 -14 -102h-63l3 50h57l-7 -55h-66l2 9h58l-21 -174h-65q4 37 7 81h56l-1 -7q-4 -53 -9 -78h-58q-8 117 -8 182
q0 56 4 91q5 376 31 597l-1 41h-1l3 -17l9 79q1 3 1 4q0 3 -3 11l5 12q14 215 21 265l7 65v5q0 3 -1 12q4 9 5 16l10 85q1 5 1 9q0 2 -2 6l7 32l4 37q1 5 1 6q0 -20 -8 -20l11 45q57 473 191 1123l22 17h33l6 -8h-35q5 17 30 144q47 64 66 64h21l-7 7l13 10q14 -17 -20 -17
q4 11 33 34zM1452 2246q33 -59 33 -77q0 -6 2 16h-58q1 13 47 13q22 -24 22 -37v-26q-4 0 0 45q3 0 4 -53q2 0 2 -28v-3l-3 -23q-3 -28 0 -28l-1 15q-21 -116 -30 -154v2q0 22 6 22q-220 -1135 -413 -1832q-2 -1 -38 -132h-64l25 110l-3 -25h56q-47 -207 -151 -630h-67
q13 39 23 100l-3 -24h56q-7 -30 -10 -63h-63q3 39 3 76l27 205v20q4 12 9 40l-3 -23h56q-8 -40 -37 -40h-36l2 17h55q-10 -33 -12 -62h-67l13 67q56 0 48 -49h-62q3 42 3 50q0 -14 -6 -14q124 757 198 1088q77 423 157 757q41 190 53 301h-3l1 -16q2 19 15 27l11 94l44 -78
h-40l34 94q7 0 13 9h31q29 -8 29 -32v37l-26 -10h32q7 -26 -24 -26l22 20q15 -20 -19 -20q9 24 37 177q17 37 40 37h-18q-1 -8 48 66z" />
    <glyph glyph-name="percent" unicode="%" horiz-adv-x="1862" 
d="M1843 2037q25 -34 25 -50q0 -12 5 -1l-50 17q2 3 26 3h13q30 -22 30 -39q0 -10 -17 -27h-15q17 0 36 38q-6 2 -6 -30q0 -16 -2 -26q-1 0 -1 -19q0 -10 -5 -15l-10 -18q-11 -17 -32 -17h29v10q-72 -107 -102 -142q5 5 5 13q0 15 17 9q-710 -988 -1258 -1566
q-3 -1 -104 -108l-67 17l77 95l-11 -24l48 -12q-145 -180 -449 -535l-75 19q39 34 72 85l-10 -21l47 -16q-20 -25 -33 -54l-67 17q18 34 26 71l105 185l7 22q11 10 25 32l-8 -22l47 -11q-22 -29 -46 -29h-5l-40 10l8 16l46 -12q-27 -28 -38 -54l-73 18l35 48h52q8 0 -23 -46
l-60 15q18 46 18 49q0 -22 -21 -22q436 684 664 967q254 371 491 655q128 162 178 263l-9 3v-20q13 26 39 26l24 51l31 -54l-25 6l85 71h14q-1 0 16 7l30 -8q22 -13 22 -30q0 -7 14 21h-20l25 -6q9 -31 -5 -27l24 5q9 -14 -10 -9q27 22 121 157q32 20 46 20h6l-3 1
q-1 -3 71 28z" />
    <glyph glyph-name="ampersand" unicode="&#x26;" horiz-adv-x="1683" 
 />
    <glyph glyph-name="quotesingle" unicode="'" horiz-adv-x="595" 
d="M323 1837l-29 -42q0 45 25 45q-41 -64 -41 -122q-76 38 -76 12q28 16 28 21v-1l8 -16q-151 -246 -151 -323q0 -19 11 -19q8 0 58 13v-20h-36l63 46v-69q-62 -62 -62 -67q0 21 -7 21q7 -11 -4 -11q-6 0 -125 -353q113 225 113 207v20h-28q-6 -3 -6 16h66q0 -55 -6 -55
q0 39 -19 39h-7l106 88q0 -72 -6 -82v21q-40 0 20 74q105 102 105 107q138 239 138 348v11q0 47 -48 62q0 28 -1 29h7l-48 -24q0 40 26 40l-37 -30q-53 39 -53 -11q26 25 16 25z" />
    <glyph glyph-name="parenleft" unicode="(" horiz-adv-x="758" 
 />
    <glyph glyph-name="parenright" unicode=")" horiz-adv-x="758" 
 />
    <glyph glyph-name="asterisk" unicode="*" horiz-adv-x="1024" 
d="M584 1830h70l32 48l-41 -24v-58q-37 -72 -96 -162h-44q229 -20 312 -20v-58h-34q-3 0 -10 -1v43h40v-48q-80 -37 -260 -88q28 -46 28 -82h-46l22 -18v63q16 -18 16 -28v-29h-8q0 26 76 -176l-64 64v72q4 -5 4 -76q-168 101 -220 147q-67 -71 -142 -131h-16q-37 0 -39 16
h49v-16q-99 0 -112 79v7q5 50 33 82q-153 10 -153 105v30l68 34q0 -23 -56 -23q0 9 40 24q40 0 40 6q78 22 102 22h-10v-24q-36 49 -36 115v28q19 50 64 65q68 0 81 -18q-11 -6 16 -6q108 -116 97 -116h-9q27 24 206 152z" />
    <glyph glyph-name="plus" unicode="+" horiz-adv-x="1334" 
d="M722 1337h48v-35q-5 -8 -5 19q-50 0 -50 12h65q15 -65 25 -169q-10 -98 -21 -127q128 32 211 32q13 0 56 -4q56 4 140 4v-54l-25 -4v42h25v-38q-54 -51 -268 -152h12v46h30v-35l14 23h-44q7 0 110 12v-55q-57 -15 -35 -15v46h-27l30 4h76q-107 -97 -337 -198
q-28 0 -28 -50q-41 -139 -66 -274q-51 -68 -106 -68l-10 4q32 0 32 -4q-114 0 -129 52h41l-15 -40h-67q11 69 15 75v-27h46q-2 -4 -2 -32h-35q-40 0 -40 20h34l-15 -8h-44v-13l24 13q-52 0 -74 193q5 64 5 117q5 0 5 -46q-5 0 -5 -1q-140 -22 -181 -35q-85 0 -112 54l-22 30
l5 9l-1 2v4l-24 13l14 23v-10l-40 42q55 7 55 -12l-12 47q29 0 27 -2v-3l27 11h-17q-25 0 -47 33v-1q-3 0 -3 33q0 57 105 96q100 21 285 46q21 103 21 101q-10 0 -10 12h32l-30 -12l-27 43q116 138 144 155q81 44 197 44q3 -14 -6 -10zM499 367v42h-55v-42h55z" />
    <glyph glyph-name="comma" unicode="," horiz-adv-x="557" 
d="M142 414q0 -12 -29 -12l28 22q19 -16 4 -16q8 6 46 6l4 -12q-24 0 15 24q40 -60 74 -71l-8 -25q22 -39 22 103q-30 -86 32 -86q35 0 80 -36q2 -23 2 -36q0 -162 -82 -242q-12 -87 -166 -328q-8 -23 -111 -119h-51v-26l32 32h-48v43q0 12 7 86l11 9l-4 11q5 3 -35 3
q-39 28 -67 81v31l8 43q0 2 -4 46q5 36 116 190q33 279 124 279zM50 -97l-16 40l-42 -27l16 -40z" />
    <glyph glyph-name="hyphen" unicode="-" horiz-adv-x="1681" 
d="M1070 1165h69q63 0 341 -18v-56h-44v42h38v-49q-76 -28 -280 -75v40h1q49 0 204 -5q0 -7 19 -7v-51q-204 -59 -187 -59v44l31 2h37v-53q-73 -13 -56 -13v46h-1l64 8v-54q-442 -154 -751 -172q-388 -32 -474 -32l-20 6q-6 -2 -34 -2l-44 57l4 6q-18 17 -18 49q70 54 99 54
h-61l20 -19q34 79 8 79q21 -21 21 24h19v-26l-19 17q22 38 69 59q0 23 268 58l510 84q126 16 167 16z" />
    <glyph glyph-name="hyphen" unicode="&#xad;" horiz-adv-x="1681" 
d="M1070 1165h69q63 0 341 -18v-56h-44v42h38v-49q-76 -28 -280 -75v40h1q49 0 204 -5q0 -7 19 -7v-51q-204 -59 -187 -59v44l31 2h37v-53q-73 -13 -56 -13v46h-1l64 8v-54q-442 -154 -751 -172q-388 -32 -474 -32l-20 6q-6 -2 -34 -2l-44 57l4 6q-18 17 -18 49q70 54 99 54
h-61l20 -19q34 79 8 79q21 -21 21 24h19v-26l-19 17q22 38 69 59q0 23 268 58l510 84q126 16 167 16z" />
    <glyph glyph-name="period" unicode="." horiz-adv-x="557" 
d="M212 363q40 -15 40 -12q-56 0 -56 10q55 -10 54 -10l8 4q58 0 58 -10l-30 -15h16q50 -12 50 -75q0 -144 -99 -256q-44 -13 -96 -62l-9 18l-5 -3q-31 47 -21 47q-58 -45 -106 -45v34q4 8 4 -18q52 0 52 -12h-64l-8 44q0 49 -8 136q37 135 63 163q1 0 1 14l68 34v-31h-18
q-22 0 -22 12h65q2 -17 -15 -17q-14 0 -14 33h59q18 -16 7 -16h-26v-23l-6 34q35 22 58 22z" />
    <glyph glyph-name="slash" unicode="/" horiz-adv-x="1057" 
d="M1215 2226q38 -34 38 -57q0 -7 6 16h-58q3 13 45 13q34 -18 34 -37v-26q-9 0 0 45q5 0 7 -53q4 0 4 -28v-4l-5 -24q-6 -26 1 -26l-3 15q-43 -120 -61 -156v4q0 22 14 22q-442 -1139 -829 -1837q-3 -1 -72 -127h-70l51 113l-7 -28h54q-97 -211 -302 -630h-79q29 43 49 103
l-7 -27h54q-15 -33 -20 -63h-68q6 40 6 78l56 204l-1 21q8 14 18 41l-5 -26h52q-17 -40 -46 -40h-40l4 17h51q-22 -36 -25 -62h-76l26 67q55 0 38 -49h-64q5 42 5 50q0 -14 -12 -14q248 760 398 1092q154 423 312 757q83 189 106 297h-7l4 -17q4 25 31 34l11 47l41 -37h-26
l68 94q11 0 22 9h30q35 -5 35 -32v29l-12 -2h26q15 -26 0 -26l19 9q13 -9 -4 -9q21 28 78 182q28 32 47 32h-5q-1 -3 63 46z" />
    <glyph glyph-name="zero" unicode="0" horiz-adv-x="1242" 
d="M995 1817h29q118 0 195 -142v-38h-66q0 21 6 11h45v22q0 3 57 -50q30 -66 30 -112q0 -4 -7 -48h-61v14h57v-17h-64q-2 28 23 5v66q67 -99 67 -237q0 -116 -85 -498q-96 -381 -207 -604q-56 -147 -92 -147q-58 -84 -114 -139h-46v34l17 26v-28q43 0 22 -24h-55
q13 52 13 29h38q-151 -104 -290 -104h-34q-157 0 -253 80q-3 1 -47 1v28q0 31 9 31v-47q-3 0 -14 25q-105 82 -120 131q-4 3 -66 103v78q61 -58 20 -58v-22q0 -5 -12 10v42l48 -10h-39q-29 95 -29 216v38q0 164 103 454q19 40 73 40v-34q-6 -18 -6 -20v22h-57q0 -1 22 29
q55 161 132 301q68 128 209 290q135 140 160 140h33q0 -37 -32 -71v30q-40 0 -8 29h46v-27q0 -14 -97 -158q-9 -11 -40 -66v80q259 296 487 296zM1143 1660q0 36 -89 62q65 -62 89 -62zM574 1156v0q0 -25 -40 -66q-37 -78 -37 -60q5 -1 5 -25v-12l-7 -9v27q12 0 12 -65
q-14 0 -17 -8l-27 -14q-46 -115 -46 -255v-17q0 -133 103 -219q48 -26 56 -26q7 0 68 16v-36q0 -33 -9 -33v48h-48q1 5 30 5h32v-33l3 7l-24 6h-39l8 -20l2 4v11q0 27 -10 27l10 -24q0 18 38 46h-7q0 1 36 22q78 83 128 113q63 39 63 64q35 77 38 89q14 0 -1 30q0 35 -10 35
q12 -21 12 -2q45 44 52 84q14 31 23 105q57 168 75 273v20q0 96 -47 174q-35 26 -62 28q-59 0 -97 -34q0 -36 -39 -45q0 9 -33 -30q0 -53 -106 -92q-67 -70 -88 -109z" />
    <glyph glyph-name="one" unicode="1" horiz-adv-x="924" 
d="M664 1873q61 0 80 -34q62 0 62 -18l-20 -11l31 -15q28 16 54 16h23q50 -72 87 -72q14 -28 7 -28q32 -10 53 -61q0 -34 -2 -34l2 -14q0 -55 -299 -631q-159 -397 -444 -831q-40 -86 -157 -248v99l-30 -107q-25 -33 -228 -387v121q0 11 22 71v-23h46q-19 -42 -19 -67h-71
v42q0 30 -8 30l8 -18q0 51 156 551q0 146 339 801l91 207h41q-135 -73 -222 -73l11 17h56q-88 -67 -123 -67h-17q-29 0 -34 11l13 6q-60 0 -73 46l-10 -13q1 0 -11 73q12 28 19 35l-4 10l137 183q0 27 269 366q40 50 118 50q26 -30 26 -22h-35z" />
    <glyph glyph-name="two" unicode="2" horiz-adv-x="1205" 
d="M797 1769q192 0 346 -264q25 -73 31 -146l-6 -13q0 4 6 -7q0 -223 -380 -728l-157 -242v25h-29q110 23 233 35h38q32 6 124 6q83 -18 100 -18q24 0 417 82v-61l-58 -17v37h-23l75 21v-47q-44 -55 -224 -168l27 21h10q-65 -82 -284 -180q-63 -33 -294 -132
q-219 -131 -323 -131q-196 -130 -387 -161q0 20 -57 43v14h-11q-45 0 -46 29h53q0 -18 -56 -18q-56 57 -56 83q0 7 -9 23q9 16 9 -2q-23 0 -23 37v42h46l-23 15v-47l-7 48q95 113 180 233q78 82 179 248q92 93 269 412q234 425 234 620q0 11 3 10q-153 -141 -169 -235
q-39 -104 -70 -315q-63 -77 -157 -91q0 25 24 13q1 2 1 -32l-28 6v-5h-91q-18 18 -60 25q-60 67 -60 133v10q-23 0 -23 2l28 15q-48 0 -74 91q0 345 404 611q90 64 272 64q0 6 76 6z" />
    <glyph glyph-name="three" unicode="3" horiz-adv-x="1785" 
d="M1545 1873q49 0 94 -42v-22l-16 -21v9l26 -32v-14l-1 -3q6 -1 6 -46l-21 -11q0 34 6 34q0 -85 -297 -379l-27 -34q87 0 183 34q47 -18 159 -46q94 -39 127 -137q66 -50 66 -151v-31q0 -283 -420 -657q-394 -352 -681 -455q-286 -133 -529 -190v68q35 0 79 18v-47
q2 1 -74 -9v65q28 0 108 63q10 0 125 67v-32h34q-26 -17 -177 -86v57l9 8h77q-56 -32 -102 -32v38q55 66 51 62q28 0 28 47q41 16 30 -10h45q-21 -10 -109 -10q98 98 281 222q108 109 585 533q143 151 160 267l23 -11q-1 -1 -52 -1v-12l26 12h-39q-108 0 -214 -55
q-102 -34 -168 -50q0 -3 -55 -27h-33q-27 0 -34 4q-41 -4 -144 -28v7q-34 -10 -55 -10q-8 0 -152 33v30l-12 -21q2 0 2 31q0 12 17 34q-1 2 -1 44q21 0 14 -8h58q-65 -21 -109 -21v60q29 0 8 -29h55l-74 -30v45q0 29 263 256q101 74 123 106l28 31h64q-214 -125 -663 -247
v61l32 11v-37h28l-213 -44v59l42 16v-36h30q-40 -11 -78 -11v37q31 47 170 132v-37q-65 -13 -107 -47h-36l-85 -8q0 13 20 13h-62v61h10v-45h50q0 -5 -65 -5v37l-5 -6q20 0 20 46q34 15 16 15v-45h-10v43l29 19q-35 8 -35 42l-11 -19q10 0 1 42q-16 0 -16 45l-13 -13h24v32
q8 39 134 80q6 44 74 44v-11h-55v-39q-5 0 -5 55h43q52 -26 37 -26q11 18 164 46q566 149 779 149q302 106 392 106z" />
    <glyph glyph-name="four" unicode="4" horiz-adv-x="1444" 
d="M1480 1861q41 0 41 -32h12q46 0 46 -107v1q5 -1 5 -29q0 -45 -335 -596l-26 -55h-36q115 21 165 21v-55q-53 -9 -53 24h-29q45 10 134 10q-73 -61 -73 -31h-23l149 27v-58q-68 -25 -47 -25v45h-30q40 11 83 11v-39q-59 -66 -252 -160q-165 -94 -165 -95
q-353 -676 -590 -1016q-222 -293 -277 -328q-21 47 -21 14l26 12h-42q0 39 -5 62q15 76 94 273v-24h45q-66 -125 -155 -211v83q18 33 21 44q51 0 19 -74h-61q0 93 143 470q73 236 236 521v-31q-203 -63 -276 -63q-60 0 -91 58q9 14 9 -5q13 0 -12 -7l-24 5q-65 -25 -108 -25
q-42 0 -62 41v16l-10 -20q-6 0 -30 55l9 12l-6 10q0 23 41 77l381 575q73 88 189 279q175 245 238 298q35 -32 14 -32l21 16h46l19 -19q22 19 88 19q2 -11 -26 -11l24 16q64 -29 64 -76q-5 0 -5 33l-21 12h53v-47q9 -9 18 -109q-17 0 -36 -63q-12 0 -11 1l2 -4v-16
q-358 -477 -449 -583l-44 -50h-55q251 100 362 100q250 425 503 777l33 25h30l8 -8q65 61 115 61z" />
    <glyph glyph-name="five" unicode="5" horiz-adv-x="1357" 
d="M1251 1864q21 0 263 -42v-54h-10v42q20 -2 56 -2v-59h-44q-20 0 -81 -20v38h-22q56 4 115 4v-52q-56 -16 -72 -16h20v-17l-57 12h30q0 -9 -35 -9q-6 0 -31 4h28v46h10v-60q-33 0 -37 -1v33h41v-48q-92 -44 -301 -73l4 7q0 21 14 21v-59h-31q-281 -50 -410 -93
q-65 0 -100 -50q-19 -1 -41 -60q-35 -48 -35 -21q288 79 430 79h4q71 0 266 -108q94 -88 94 -158v-28q0 -125 -161 -291q-75 -176 -630 -810q-123 -124 -568 -488h-80q93 96 93 69h38l-61 -51h-59q43 96 162 237h63l-376 -260h-78l28 33h66q-21 -19 -96 -19q35 52 35 7
q-83 -53 -114 -53h-80l65 51h80q-62 -37 -109 -37v29q0 20 360 378q709 716 921 1004q88 112 88 106q-12 5 -72 5h-37q-172 -47 -359 -154q-169 -97 -241 -154q-58 -59 -136 -59q0 9 31 9q-57 -38 -162 -132l-62 -11q-15 34 -15 11l10 2h-8q-40 0 -40 60q5 0 5 -46
q-18 0 -18 39v14q0 47 55 163q0 83 159 396q26 140 154 356l40 85l-14 19v10q-11 0 -28 39q0 71 65 71q694 65 922 111q16 0 96 5zM207 1752l21 -38v-35h-35q-39 0 -39 50z" />
    <glyph glyph-name="six" unicode="6" horiz-adv-x="1392" 
d="M617 1758h-1q11 7 60 7v-35l11 14h-60l776 435l-523 -348h-90q17 10 66 10q0 -3 -23 -3q24 0 165 45q186 59 364 59q95 0 210 -48v-53l-50 9h26v42l21 -4v-33q-30 -26 -152 -57v35q43 -9 110 -49v-45h-14v47h7v-41q-39 -26 -140 -52q-66 -28 -181 -55q0 34 24 32v-55h-36
h1q0 43 28 40v-45q-53 -19 -97 -26v35l114 -35v-35q-51 -22 -104 -35v40h14v-28q0 -22 -73.5 -49.5t-107.5 -27.5q-172 -44 -206 -59q-6 -4 -40 -19l-237 324q97 52 138 63zM748 1349q-157 -146 -151 -135h-49q274 146 483 146h22l21 3q144 0 245 -84q71 -64 71 -146h-67
q0 14 58 14l-2 10v-31h-44q-47 35 -22 35v29q51 -71 62 -142q9 -47 9 -71v-18q0 -179 -38 -399q-156 -309 -294 -482q-42 -62 -53 -81q-36 -70 -123 -94l-43 -12q-49 -13 -114 -18q-95 -13 -204 -13h-27q-30 0 -106 26v53l53 -8h-19v-42l-24 4v23q0 26 28 33v-33
q-145 40 -289 126h97q11 0 39 -7h-31v-39l-34 11v49h-27q3 -2 -60 37l-40 47q-59 61 -97 152q3 15 3 28q0 10 1 0q-9 0 -9 31l1 4l-6 3l5 31q0 -20 -3 -20q0 72 8 188l-18 105l7 115l46 235q49 208 178 361.5t267 298.5q0 24 85 63l327 -299q-88 -58 -122 -87zM456 620
q0 -170 94 -274q17 -14 22 -15q89 0 266 125q89 83 135 201q32 54 32 139q-22 77 -76 110q-8 11 -60 20q-34 0 -194 -59q-135 -113 -203 -222q-16 -26 -16 -25zM774 147v54q16 5 44 44v-25h38q-89 -73 -82 -73z" />
    <glyph glyph-name="seven" unicode="7" horiz-adv-x="1311" 
d="M1538 2054q61 -7 61 -40v-12l10 22h-49q7 4 54 4v-35l-7 -11v4q11 -16 11 -54q-40 -29 -30 -29v23l6 -29q-161 -146 -230 -250l-8 -17v3l4 -24q-37 -67 -166 -244q-142 -225 -142 -200h-26q1 0 79 22v-68q-32 0 -42 -3v38h-34q17 8 72 8v-58h-8v46h-20q269 38 313 38v-53
l-53 -11v41h-25l81 13v-50q-56 -36 -267 -115q-4 -7 -51 -23v37h7v-52q-70 -17 -48 -17v46h-23q1 0 71 16v-53q-53 -34 -164 -78q-118 -214 -264 -570q-224 -589 -224 -736h-67v56h53l-1 -14v-35h-59q-27 72 -27 104v102h51q-107 -440 -107 -603h-64l-2 7l55 31l-4 7v-49
h-57q-67 119 -67 295q0 205 110 539q19 45 25 79q-8 37 -8 53q3 88 126 446l62 128h42q-228 -70 -272 -78q-122 0 -122 7l30 15h-42q0 32 -21 50q10 17 10 11l-5 10q4 24 35 60v0l-5 21l80 144q0 -92 -56 -92q0 26 331 149q168 37 170 38q99 211 264 446q110 148 99 111
q-165 -50 -827 -143v0q60 2 -130 -6h-27q-39 0 -69 42l3 19l-47 26v27l8 11v-24q-23 0 -23 72q11 0 13 17q36 28 25 28v-24q-16 13 -36 51l15 34q-2 3 -2 23l57 42l19 -10q-20 0 -7 17q761 111 947 111q193 4 220 4q388 116 416 116zM385 -193v43h-56v-43h56z" />
    <glyph glyph-name="eight" unicode="8" horiz-adv-x="1420" 
d="M779 1942q278 -70 389 -164h-41l-22 37h74l12 -21h-57l-8 21h60q46 -38 75 -92l24 -45q17 -30 31 -95q1 -7 3 -11l-6 13h-36q14 26 14 30v26h64l3 -23q-52 0 -52 -15v31h57q11 -22 23 -34q6 -55 6 -92q0 -82 -32 -133l9 21h-51q10 7 85 7l-21 -25h-63l26 16h27l18 -18
v-10q0 -27 -65 -99q-127 -138 -200 -152q-95 -49 -137 -51l-13 33q206 -144 299 -314l17 -33q0 1 12 -7v-13q0 -26 23 -26l-18 23q138 -252 138 -376v-3q6 -64 6 -98q0 -27 -3 -33l8 -85h-66q-7 55 0 40q46 0 46 13q0 -8 6 -49h-65l-9 33q0 -1 -13 15l-11 35l4 -14h57
q-2 8 -2 -18q0 -82 -60 -198q6 -12 6 -31q0 -57 -91 -74q-16 0 -79 -44h-81l17 19h70q-50 -43 -147 -43h-27l4 -10l20 10q-34 0 -35 3q50 0 50 23v-28q-96 7 -137 12q-159 -12 -230 -12h-28l-33 55q49 0 49 -19v-30l17 3h-42l-25 41q76 33 48 33l23 -45q-214 35 -310 91
q-133 76 -181 157l89 -34h-85l44 -31l-54 54q113 -14 88 -5l47 -72q-15 0 -168 186q-8 9 -25 38l-1 1q-1 3 -13 12l1 7q8 -8 -1 -1q-8 15 -9 24q-26 41 -35 58q-42 77 -69 236q-20 11 -43 37v9q0 26 -25 26l19 -24q-8 26 -8 51q0 97 111 249q65 93 167 172q117 92 184 120
q-1 1 -2 35q-6 12 -85 69q41 9 41 -3v-4q4 -7 -3 -1q-41 109 -41 173q0 21 4 39q47 238 289 333l101 21l31 -31q-28 15 -50 59h58q8 -3 -84 -3l49 -31l-21 43h59q32 0 37 -1l59 -59q-22 16 -40 60h49l-78 17l59 -59l-56 47q45 0 45 -33zM635 1500q-2 1 12 -41q-12 0 -12 33
l-15 15h22l30 -53q-26 -2 -26 16q0 8 -15 23h20l16 -32q-62 -55 -62 -72l-2 7l4 -4l11 -20q12 -22 22 -46q19 -26 30 -26l10 4l14 -4q-1 0 95 46q51 20 120 41q42 68 42 134q0 43 -20 79l-2 4q-31 46 -50 46q-120 -9 -180 -53q-51 -59 -64 -97zM426 425q65 -66 154 -81
q50 -14 113 -14q28 0 55 2h-1q52 18 111 108q53 126 53 130q-30 142 -38 209q-4 31 -9 43q-99 89 -112 102l-56 28l17 5q-53 45 -83 54h2q-18 0 -19 1q18 5 -101 -77l-55 -34q-78 -70 -113 -196q-9 -41 -9 -79q0 -110 80 -190zM1452 181l-24 43h-62l24 -43h62zM836 -61h-12
l109 -9q-86 42 -64 42h21q38 0 95 26l-1 -1l18 -35q-41 -23 -166 -23z" />
    <glyph glyph-name="nine" unicode="9" horiz-adv-x="1247" 
d="M930 1841v-48l-28 -11v38h-33q26 10 68 10v-57q-21 0 -10 29h-42q90 21 190 21h25q163 0 256 -115q59 -56 59 -114h-45l31 -22v56l15 -31q-25 -10 -59 -112q-113 -243 -464 -1079l-102 -260q-144 -297 -378 -700q-86 -119 -306 -380v92l25 42v-27h56q0 9 -46 -42h-50
q2 62 -27 4q92 108 42 108v35l9 14h59q-29 -42 -29 -67h-71l-1 -1l38 16h-42q5 76 -26 -31l-63 -87v102l9 19h58l-24 -46h-57q0 75 7 75q0 -47 -14 -47q50 144 277 598q153 254 220 421q95 188 192 408h44q-135 -70 -261 -70h-14q-171 0 -301 84q-69 64 -61 64q-60 0 -81 74
q-12 28 -12 95v52q0 235 142 450q131 138 224 199q68 48 157 48l67 67q-138 -78 -77 -78l-12 -21l-37 16q99 76 246 133q201 76 257 76zM578 1371l5 -20l-11 -6l-3 8v-13q-12 -31 -48 -31h-11l4 -1q-69 -79 -79 -165q-2 -12 -2 -23v-18q0 -34 65 -53q14 -2 13 -2
q90 0 101 10q114 70 205 156q37 27 120 227q-1 1 -1 35q6 0 6 -29q-26 25 -53 25l-33 -15q-10 20 8 20q-114 -6 -219 -58q-59 -34 -67 -47zM515 800v46q6 0 17 -2v-41q-20 -3 -17 -3z" />
    <glyph glyph-name="colon" unicode=":" horiz-adv-x="557" 
d="M212 363q40 -15 40 -12q-56 0 -56 10q55 -10 54 -10l8 4q58 0 58 -10l-30 -15h16q50 -12 50 -75q0 -144 -99 -256q-44 -13 -96 -62l-9 18l-5 -3q-31 47 -21 47q-58 -45 -106 -45v34q4 8 4 -18q52 0 52 -12h-64l-8 44q0 49 -8 136q37 135 63 163q1 0 1 14l68 34v-31h-18
q-22 0 -22 12h65q2 -17 -15 -17q-14 0 -14 33h59q18 -16 7 -16h-26v-23l-6 34q35 22 58 22zM212 1589q40 -15 40 -12q-56 0 -56 10q55 -10 54 -10l8 4q58 0 58 -10l-30 -15h16q50 -12 50 -75q0 -144 -99 -256q-44 -13 -96 -62l-9 18l-5 -3q-31 47 -21 47q-58 -45 -106 -45
v34q4 8 4 -18q52 0 52 -12h-64l-8 44q0 49 -8 136q37 135 63 163q1 0 1 14l68 34v-31h-18q-22 0 -22 12h65q2 -17 -15 -17q-14 0 -14 33h59q18 -16 7 -16h-26v-23l-6 34q35 22 58 22z" />
    <glyph glyph-name="semicolon" unicode=";" horiz-adv-x="617" 
d="M142 414q0 -12 -29 -12l28 22q19 -16 4 -16q8 6 46 6l4 -12q-24 0 15 24q40 -60 74 -71l-8 -25q22 -39 22 103q-30 -86 32 -86q35 0 80 -36q2 -23 2 -36q0 -162 -82 -242q-12 -87 -166 -328q-8 -23 -111 -119h-51v-26l32 32h-48v43q0 12 7 86l11 9l-4 11q5 3 -35 3
q-39 28 -67 81v31l8 43q0 2 -4 46q5 36 116 190q33 279 124 279zM50 -97l-16 40l-42 -27l16 -40zM212 1589q40 -15 40 -12q-56 0 -56 10q55 -10 54 -10l8 4q58 0 58 -10l-30 -15h16q50 -12 50 -75q0 -144 -99 -256q-44 -13 -96 -62l-9 18l-5 -3q-31 47 -21 47
q-58 -45 -106 -45v34q4 8 4 -18q52 0 52 -12h-64l-8 44q0 49 -8 136q37 135 63 163q1 0 1 14l68 34v-31h-18q-22 0 -22 12h65q2 -17 -15 -17q-14 0 -14 33h59q18 -16 7 -16h-26v-23l-6 34q35 22 58 22z" />
    <glyph glyph-name="semicolon" unicode="&#x37e;" horiz-adv-x="617" 
d="M142 414q0 -12 -29 -12l28 22q19 -16 4 -16q8 6 46 6l4 -12q-24 0 15 24q40 -60 74 -71l-8 -25q22 -39 22 103q-30 -86 32 -86q35 0 80 -36q2 -23 2 -36q0 -162 -82 -242q-12 -87 -166 -328q-8 -23 -111 -119h-51v-26l32 32h-48v43q0 12 7 86l11 9l-4 11q5 3 -35 3
q-39 28 -67 81v31l8 43q0 2 -4 46q5 36 116 190q33 279 124 279zM50 -97l-16 40l-42 -27l16 -40zM212 1589q40 -15 40 -12q-56 0 -56 10q55 -10 54 -10l8 4q58 0 58 -10l-30 -15h16q50 -12 50 -75q0 -144 -99 -256q-44 -13 -96 -62l-9 18l-5 -3q-31 47 -21 47
q-58 -45 -106 -45v34q4 8 4 -18q52 0 52 -12h-64l-8 44q0 49 -8 136q37 135 63 163q1 0 1 14l68 34v-31h-18q-22 0 -22 12h65q2 -17 -15 -17q-14 0 -14 33h59q18 -16 7 -16h-26v-23l-6 34q35 22 58 22z" />
    <glyph glyph-name="less" unicode="&#x3c;" horiz-adv-x="1739" 
d="M-1098 955l-191 12h-1q7 0 33 23q104 -59 102 -115q-51 3 -67 5l-10 -1q-29 2 -102 17l-5 1h-39l-7 2q-7 2 -18 3l-25 2q-8 -2 -22 -2h30l6 -40l-46 3l204 -35l-86 35q-50 0 -158 45l275 -69l-126 7q-35 15 91 -70q185 -141 522 -326q201 -141 825 -459q-3 0 6 -3
q17 -4 48 -15l-102 6q-25 14 89 14h11l50 -30l-157 9q135 -51 72 20l79 -4l19 -8h1h1q-76 0 -111 22l113 -7l14 -5l37 -20l16 -5l202 -93q59 -18 67 -21l-151 9q132 -52 23 24l108 -8l11 -5q63 -33 62 -29l-87 5q-154 122 -360 268l105 -6l14 -5l44 -32l-62 4q-35 36 -32 37
q-243 251 -1052 726q-1 0 -7 2q-14 3 -19 9q-15 13 -101 60l-210 52h206q-97 0 -13 -45l-28 12q1 -1 11 -4q-2 1 -10 1q-49 15 -75 22q-22 5 -35 6q-124 52 8 52h-54q36 -46 46 -49q-11 3 -41 7h-1q103 0 133 -15l-147 11q-12 5 -23 7q-17 5 -34 7q47 13 131 -21zM103 2231
q27 -24 27 -39q0 -11 13 7l-55 12q2 3 22 3h10q32 -16 32 -34q0 -12 -21 -26h-11q14 0 45 41q-15 2 -15 -26q0 -12 1 -8q-4 1 -4 -19q0 -13 -8 -19l-9 -9q-11 -12 -28 -12h29v10q-69 -68 -97 -89q10 6 10 17q0 18 27 12q-656 -609 -1149 -956q-3 -1 -93 -64l-77 13l88 72
l-23 -31l54 -9q-131 -108 -404 -321l-91 16q61 35 90 64l-21 -27l53 -12q-17 -14 -29 -33l-73 12q28 35 35 57l95 111l6 15q12 7 24 19l-17 -29l50 -9q-20 -17 -39 -17h-4l-49 8l7 10l52 -9q-23 -17 -34 -33l-80 14l27 25h67q6 0 -22 -27l-63 11q24 39 24 37q0 -23 -34 -23
q411 429 617 599q228 223 442 394q114 96 159 158l-12 2v-18q16 21 40 21l20 29l26 -30l-20 3l78 43h10q1 0 15 4l25 -5q25 -10 25 -28q0 -8 23 23h-32l23 -4q7 -18 -5 -16l20 2q8 -7 -6 -5q25 13 110 95q29 12 39 12h4v0q-1 -1 61 16z" />
    <glyph glyph-name="equal" unicode="=" 
d="M879 1265h55q51 0 279 -18v-56h-35v42h30v-48q-63 -28 -224 -75v39h-5q39 0 169 -5q0 -7 15 -7v-49q-167 -61 -149 -61v45l18 1h36v-52q-63 -14 -45 -14v46h-8l59 9v-53q-357 -155 -606 -174q-310 -32 -383 -32l-13 5q-3 -1 -33 -1l-35 57l4 6q-16 18 -16 47q58 56 85 56
h-53l15 -18q27 78 7 78q16 -19 16 24h15v-25l-14 16q16 36 54 57q0 25 218 59l408 84q102 17 136 17zM856 865h55q51 0 279 -18v-56h-35v42h30v-48q-63 -28 -224 -75v39h-5q39 0 169 -5q0 -7 15 -7v-49q-167 -61 -149 -61v45l18 1h36v-52q-63 -14 -45 -14v46h-8l59 9v-53
q-357 -155 -606 -174q-310 -32 -383 -32l-13 5q-3 -1 -33 -1l-35 57l4 6q-16 18 -16 47q58 56 85 56h-53l15 -18q27 78 7 78q16 -19 16 24h15v-25l-14 16q16 36 54 57q0 25 218 59l408 84q102 17 136 17z" />
    <glyph glyph-name="greater" unicode="&#x3e;" horiz-adv-x="1739" 
d="M1695 976q-16 -2 -32 -6q-12 -3 -26 -9h-131q11 5 118 5h-1q-30 -4 -36 -5q-44 -22 -44 47h32q112 0 10 -51q-14 -2 -37 -7q-26 -7 -77 -22q-8 0 -4 1q-44 -22 -44 -20l24 11q66 44 -14 44h230l-235 -52q-86 -46 -111 -69q-6 0 -4 1q-12 -3 -13 -3q-807 -474 -1042 -717
q3 0 -41 -46l-61 -4l44 32l14 6h96q-198 -141 -351 -262l-87 -5q-2 -5 62 29l12 5h99q-102 -68 6 -19l-127 -7q8 4 68 22l202 92l14 4q0 2 40 21l11 6h108q-26 -16 -104 -16h1h2l17 7l81 10q-64 -77 121 -21l-207 -13l50 30h11q111 0 86 -15l-99 -5q31 12 46 15q9 3 8 3
q624 318 824 459q337 186 523 326q125 85 55 56l-160 -19l345 95q-106 -45 -165 -45l-104 -39l228 39h-45l5 37h31q-14 0 -22 2l-27 -2q-10 -1 -17 -2q1 0 -5 -3h-40l-4 -1q-75 -15 -104 -16l-10 1q-15 -3 -65 -6q-4 57 102 116q24 -24 31 -24v0l-196 -14q88 36 135 23z
M217 2215h1h4q11 0 40 -12q84 -82 109 -95q-14 -2 -5 7l20 -4q-13 -3 -7 13l21 7h-39q33 -33 33 -23q0 23 28 28l21 5q15 -4 16 -4h10l75 -42l-19 -7l27 32l21 -28q21 0 40 -19v22l-15 -5q48 -65 162 -161q215 -171 442 -394q206 -169 524 -503l60 -73q0 2 24 -39l-65 -8
q-27 26 -21 26h68l22 -20l-75 -22q-12 20 -33 34l45 16l16 -23h-86v0q9 0 -9 17l49 12l-17 26q11 -11 23 -18l7 -15l94 -112q8 -22 33 -52l-68 -19q-14 21 -29 34l53 18l-24 24q29 -30 91 -61l-90 -22q-275 214 -408 324h48l-11 35l87 -70l-78 -12q-92 64 -95 65
q-493 346 -1160 967q39 0 39 -24q0 -8 8 -15q-26 19 -95 87v-10h29q-23 0 -30 15v-1q-15 0 -15 26q0 15 -3 14v13q0 27 -19 23q38 -38 49 -38h-15q-17 17 -17 26q0 18 32 34h10q19 0 25 -6h-60q15 -26 15 -16q0 17 27 38q61 -16 60 -15z" />
    <glyph glyph-name="question" unicode="?" horiz-adv-x="929" 
d="M751 1674q23 0 61 -14q54 5 96 5h18q126 -13 126 -94q0 -10 -3 -22l-3 -13q-30 -60 -50 -60q-7 -49 -8 -58q-24 -102 -51 -183q1 -3 1 -19q-7 -7 -6 -1q2 -3 2 -36h-12l3 18l3 -39q-20 0 -50 -47q-113 -160 -215 -266q-106 -81 -120 -156q-6 -27 -114 -211l-1 -2l1 2
q0 -19 37 -76l-2 -17q-5 -15 -16 -20v0q-29 -39 -57 -39q-7 3 21 3q-2 -9 -13 -9v20q0 -8 12 -56h-63q-20 32 -20 42v-24h69l-3 6l-10 -30h-29q-36 3 -104 91q-38 0 -62 119q-9 31 -9 75q0 59 16 143q8 35 38 91q16 79 280 378q14 0 90 145l1 9q6 27 12 83q17 21 14 9h34
q-133 -15 -373 -107q-7 -2 -3 7v3q0 5 65 -11l-8 -49h-12v47h21l-12 -38q-13 -16 -115 -42q-4 -20 -130 -24h7q-31 -25 -82 -25q-18 25 -18 38v-23q28 0 17 -5q-31 8 -27 8q-22 -9 -113 -9l19 16h75l-22 -10h-50l13 39l14 16q22 0 22 30v3l1 8q5 23 52 61l-11 33
q21 0 14 -44q-5 0 -5 50l32 28q7 40 195 118q351 132 506 132q-1 0 14 3zM337 219q117 0 134 -129q-17 -30 5 -30l-10 21l-7 -21l-13 -7q-3 8 -3 -14q-32 -12 -43 -12h13q-3 -15 -47 -15q-7 3 22 3q-4 -22 -201 -69q-40 25 -40 44v-10l-28 21v19q34 66 18 66l11 -22
q5 22 -9 8q2 0 2 36v4l3 8q4 26 -1 26q12 -21 12 -12v14q24 16 31 51l19 -3q0 -1 132 23z" />
    <glyph glyph-name="at" unicode="@" horiz-adv-x="2019" 
 />
    <glyph glyph-name="A" unicode="A" horiz-adv-x="1769" 
d="M1778 1935l79 -5q-80 -119 -80 -129q0 22 -27 22q-3 0 229 221l-175 -253q0 23 -29 23q2 0 331 353q-187 -352 -40 -110l162 204l-373 -626q0 -51 -107 -373q-87 -247 -408 -1271q-127 -195 -427 -505l169 389l-91 -125q111 346 111 399h19q-2 0 -89 -22q137 206 137 100
q1 1 -27 1q-32 0 -32 28q0 33 74 203q45 29 45 -9h-79v14h42l-10 -28h-71v35h41q0 11 -28 -28l-37 14l-381 -88q-348 -345 -755 -605l158 177l-143 -81q-40 0 -40 26q0 22 45 73l-300 -168l241 296q96 162 862 819q0 9 604 660q200 183 400 369zM1035 744l108 -60
q65 -14 85 3q9 41 5 188q46 40 -198 -131z" />
    <glyph glyph-name="B" unicode="B" horiz-adv-x="2131" 
d="M1766 1750h459q113 -20 113 -68v6q16 0 16 -40q-8 -8 -8 3q-2 0 45 -61l-90 -34q0 20 53 20v14l30 -37q-85 -30 -85 -70q-438 -107 -739 -238q-90 -38 -226 -82v36h401q87 0 231 6q176 -39 176 -93v-5h8v-63q-32 0 -32 15q8 -33 8 -46q-16 -21 -16 -30v-40
q-45 -7 -406 -198q-425 -218 -1409 -870q-206 -152 -558 -223q0 19 -24 19v31q0 41 306 349v-27q-16 0 -16 37v80q0 70 103 287q259 775 427 1231l63 41h65l13 -7l65 41q5 -34 -38 -34q0 18 1065 50zM1445 1465q-621 -13 -621 -12q0 -19 -36 -111q-13 0 17 -44l5 7
q-2 0 -2 -44q-39 -25 -10 -25q-13 19 -13 39q121 28 661 231v-43q7 2 -1 2zM646 939q-4 -6 -213 -643h-41q708 467 1094 663v-32h-323q-111 0 -517 12z" />
    <glyph glyph-name="C" unicode="C" horiz-adv-x="1912" 
d="M1772 1706q109 0 266 -101l-17 -25v22q33 -3 33 -47q-8 -11 -8 14q-1 0 30 -43l-8 -11l6 -2q-26 -174 -320 -499q-26 0 -64 -24h-27q-47 0 -47 18h33l-75 -53q0 54 -56 61l-2 3l2 1h-103q0 18 -51 34l-75 135q37 0 46 59q27 0 39 16h53q-138 -62 -257 -143
q-43 0 -382 -299q-284 -368 -321 -600v6q17 -2 17 -56q-17 -2 -17 35q19 0 50 -117q0 16 -13 16q32 0 292 100q201 42 407 126h82l-25 -23h-66l25 11h46q0 -55 26 -27l-35 -13v-52l2 3h-57l33 18h60q-99 -240 -644 -452q-111 -38 -272 -38q-280 0 -390 274q-18 54 -18 138
v47q0 466 774 1090q404 262 777 361q159 37 251 37z" />
    <glyph glyph-name="D" unicode="D" horiz-adv-x="2039" 
d="M2119 1752q106 0 138 -62v-26l-16 -21v25q32 0 32 -32q0 -86 -38 -102l-2 2v-12q0 -20 -532 -430q-1323 -1133 -1425 -1133l-53 -8l-52 15l-50 -102l-54 -38h-26l21 -9q0 9 -59 9q-33 80 -33 109v14q0 376 235 889q121 296 224 498h-220q-59 0 -131 90l20 9l1 -2
q0 76 264 134q349 57 881 87v7q-21 -9 -6 -9q66 0 355 28l44 -7zM932 1366q-16 -7 -62 -7v7q-60 0 -60 -42q-195 -403 -282 -629q235 246 544 463l289 257v-30q-262 -19 -429 -19z" />
    <glyph glyph-name="E" unicode="E" horiz-adv-x="1906" 
d="M1774 1750q402 -13 485 -13l81 -9v-60h-38v43h46v-52q-236 -112 -900 -294q-106 -7 -106 -39q0 -16 -69 -149h-40l46 6h53l256 -71v-31l13 19h-6v-53q-330 -152 -375 -152q-116 0 -116 -38l-255 -530h-44q214 99 906 293v-70q-39 -4 -39 33l6 1h40v-39q-84 -92 -381 -245
q-317 -206 -595 -329q-396 -182 -537 -280q0 -11 -83 -51h-21q-56 18 -56 32l-50 -10q-49 48 -68 132q-20 0 -20 48q56 143 899 1464q0 12 34 66q-11 0 -11 -9q22 9 7 9q-41 0 -150 -7q-101 33 -103 63v45h15q0 -33 -46 -15q0 47 1 47l-1 5q0 33 49 79q79 43 186 64
q48 0 945 97h42z" />
    <glyph glyph-name="F" unicode="F" horiz-adv-x="1501" 
d="M1783 1722v-61l-61 -7v40h54v-49q-52 -40 -395 -140q-129 -61 -386 -132l-91 -201l-56 -30h198q148 0 454 22v-65q-44 0 -54 -2v38h54v-50q-59 -37 -377 -133v35h27v-63h-14v43h21v-40q-37 -41 -334 -210q-185 -45 -185 -49q-175 -368 -336 -576q-60 -58 -337 -441h-34
l20 -13q0 20 -61 20l-20 72q103 414 245 762q323 730 324 742q-5 0 -13 31l-4 -2q-60 25 -67 60q8 14 8 -2q-21 0 -21 47q44 198 201 198q62 20 62 61h68l5 -3q5 10 48 10l47 -7q14 0 67 40h34q40 -6 40 -7q170 33 869 62z" />
    <glyph glyph-name="G" unicode="G" horiz-adv-x="1872" 
d="M1576 1715l295 -3q0 -56 -325 -70v44h-28q47 9 59 9l522 9l-252 -89l-363 -45l-575 52h598v-52q-97 -27 -83 -27v47q124 9 211 9q136 0 136 -42q0 -18 -23 -33l-51 -35q-135 -2 -135 29l-233 67q222 -111 222 -94q0 35 111 35q25 0 70 -1q12 -11 2 -11q-29 0 -29 -24v-8
q61 17 61 5q0 -55 -379 -105q-73 -7 -73 20q-12 6 16 6v-60h-16v45h11v-30q0 -32 -218 -63q-121 -26 -144 -34q-229 -371 -395 -760h-48q246 174 334 223l195 76q-230 -110 -280 -110q-40 0 -40 30q0 25 62 76l-9 36q28 0 131 148l-53 -196l-73 -13l387 473l-321 -329
q64 31 64 33q0 -14 -10 -14q-25 0 -407 -42q934 247 1076 323q52 11 649 254l-421 -291q-86 0 83 86l118 -29l39 29l18 10q-381 -365 -682 -569q-848 -571 -960 -571q-15 0 -239 -183l-50 -12h-19l-22 14h-37q0 20 13 20h4l-17 -10q-36 0 -58 40l8 14q0 -10 -27 8
q0 16 -10 30l9 14l-5 19q0 64 251 693q148 360 250 683l-3 6v14q26 68 101 108l-18 8q0 1 312 47q79 14 218 14l45 -4q75 22 354 41q0 6 96 12z" />
    <glyph glyph-name="H" unicode="H" horiz-adv-x="1808" 
d="M1864 1733q2 -10 -22 -10l19 10h36q17 -20 28 -20q44 -32 44 -106q0 -86 -412 -745v21h-26l251 30v-59q-95 -21 -75 -21v45h-21l96 15v-53q-106 -60 -308 -122q-166 -288 -287 -568q-58 -91 -202 -352h-55v30q0 25 12 54v-24h45l-19 -45h-63q0 30 -12 79q75 426 176 695
q6 0 11 20h34q-211 -44 -463 -87q-170 -304 -257 -411v86q0 10 14 45q48 0 25 -65h-69l8 46l35 -15q-130 -236 -163 -267h-50v25q48 0 48 -30h-63q-34 66 -34 80v10q0 200 84 458h3h2h-116q-117 0 -117 45v11l-6 -11q-3 1 -25 34v41h-10l16 -18v19q37 62 180 94
q151 18 151 10q107 283 374 920q0 37 157 52q77 -52 77 -72h-41q26 34 62 61h13v7q91 -6 91 3l-25 -10h45q20 -36 43 -36q49 0 49 -35v-17l11 13q1 0 1 -49q-30 -17 -37 -17v28l13 -15q0 -25 -302 -676q-23 -49 -23 -31q113 19 360 29q112 285 277 640q18 0 -16 44l-2 -4
q1 0 1 36l2 3q-8 11 -8 51q27 0 45 23l45 27q20 -9 -3 -9q0 18 210 36q23 -11 34 -11q28 35 104 35z" />
    <glyph glyph-name="I" unicode="I" horiz-adv-x="1415" 
d="M1496 1731q0 -23 41 -45l-9 -14q-2 2 138 -63q-105 0 -101 5v25q22 -2 22 -35q0 -10 -4 -16l5 -13q-19 -91 -63 -91h-9l7 -1q0 1 -155 -77q-376 -749 -600 -1025v19h11v1q113 31 134 31h32q0 -48 156 5l-96 -19q2 -11 38 -11q27 0 67 -49q-4 0 -246 -89v36h-31
q233 81 283 81q0 -42 1 -41l27 -26q-281 -87 -301 -96q0 -27 -251 -120q-72 -35 -91 -50q-48 0 -48 -4q-146 -35 -269 -46q-6 -10 -129 -35q0 23 -25 34l14 25q0 -19 -53 -16v40l-5 -6l36 -12q-4 -2 -36 -2l-20 37l12 14l-4 13q22 60 124 109q0 32 322 131q2 0 77 254
q63 165 362 740q22 -9 23 -9q-158 4 -158 -21q38 31 -112 21q-63 18 -63 43v-4q-20 7 -28 39l-13 -17q15 0 15 38l7 14q18 0 -7 35v36q10 0 10 -23l-7 30q56 65 302 118q105 13 155 13q34 0 81 -4q98 0 355 82q24 0 77 11z" />
    <glyph glyph-name="J" unicode="J" horiz-adv-x="1611" 
d="M1501 1706l28 -12q43 12 103 12q56 -18 61 -45l-26 18q4 8 31 8h35v-35q-5 -9 -5 16q-51 0 -51 14h66q8 -52 13 -63q0 -261 -233 -756q-41 -186 -195 -449q-62 -131 -233 -337q-161 -147 -183 -147q-175 -127 -376 -175q-115 -44 -228 -44q-228 0 -324 76q0 11 -14 27v61
h5v8q0 45 137 198q0 15 71 104q74 122 232 333q165 242 222 261v-56l10 20h-40q11 0 41 71h60q0 -40 -33 -110v25h-44q22 42 22 66h74q-20 -107 -63 -223q-25 -40 -27 -73v40q88 100 138 100v-36q-38 -59 -38 15l47 52v-85q0 -33 -82 -194q-23 -13 53 -13q-55 -76 -113 -113
q0 -12 -5 -46q63 10 63 31q147 115 242 272l165 199q177 365 177 473q9 0 16 46l39 -8q0 -5 -234 -27q-23 -5 -29 -25l-71 6h-4q-93 0 -462 -57v58q77 21 57 21v-45h25q-2 0 -82 -17v45q40 47 138 84v-31l-51 8q-44 -8 -85 -21l-67 38l5 9q-35 18 -35 43l-12 -21h8v65
q21 0 33 35q9 3 9 -12q-4 9 -4 39q23 3 30 15q70 39 327 109q75 50 512 98q84 15 84 37q41 20 70 20zM601 660l8 22q-56 0 -56 1v-23h48z" />
    <glyph glyph-name="K" unicode="K" horiz-adv-x="1242" 
d="M1183 1745q71 0 100 -80q0 1 30 -23l15 -77q-22 0 -17 9v22h-34l46 23v-48q0 -54 -258 -373q-178 -182 -304 -293v14q56 -67 275 -397q100 -150 198 -405q26 -56 26 -103q-57 0 -78 43h46v26l34 -73h-57l19 -10v48q75 -136 75 -226l-35 39v77q19 -34 19 -70h-37
q-34 7 -172 153q-11 0 -36 25q-54 127 -26 90v-79l-43 39v67q31 -40 31 -75h-39q-46 15 -209 161q-178 149 -320 319h36q-126 -498 -251 -766q-62 -124 -129 -169v63v-1q53 0 45 -27h-58l-7 60q47 319 87 456l45 -23q-78 -248 -140 -336h-51v-26l27 22h-46v28h50l-4 -16h-28
q-38 0 -38 33v19q0 212 284 986q110 313 213 694q24 30 61 52q22 73 58 73q1 8 35 8h8q34 0 34 18q-32 -18 -16 -18l-13 3q0 15 68 36h33q10 -37 10 -27h-56q0 15 38 15q35 0 46 -62q0 -79 -154 -582v24h-42q186 230 522 606q58 34 84 34z" />
    <glyph glyph-name="L" unicode="L" horiz-adv-x="1236" 
d="M699 1825h30q52 -12 83 -45h-20q2 9 37 9h42q0 -18 1 -18q18 18 66 18l7 -2q4 2 35 2q27 -18 -9 -18q0 4 73 15q54 -29 79 -90v-21q0 -160 -359 -933q-212 -315 -212 -358q-55 -113 -55 -91h-32q201 99 631 216l-77 -55h-80q20 9 67 9v-29q0 -23 -113 -101h-82l653 224
q-243 -141 -243 -107h-31q20 9 68 9v-46q-55 -22 -55 -46q-695 -427 -911 -504q-80 -19 -111 -68q-19 -31 -49 -36q-64 0 -64 79v-1l-18 -4q-80 40 -80 76v32q0 23 92 83q0 29 67 83q59 124 105 369q0 98 342 1132q6 4 70 199q33 0 53 18z" />
    <glyph glyph-name="M" unicode="M" horiz-adv-x="1681" 
d="M1011 -220q10 88 7 73l-350 -583q183 455 183 528q0 65 -3 129q84 -55 84 -73q0 -26 -2 -26v-10h-28q-84 -101 -122 -101t-38 38q0 41 67 186q27 203 282 852v-24h43q-65 -131 -308 -333q-56 -17 -56 -6v-71h-73v51h47q-1 -4 -1 -37h-65q-29 65 -109 489h43
q-36 -144 -184 -488q-31 -48 -31 -149q-25 -22 -58 -160l-53 -49q0 -13 -35 -28q-115 -198 -251 -264l252 333l-355 -612q225 580 225 564h46q0 -8 -130 -240l-67 17l-38 36q37 204 37 268q0 37 69 328q0 305 383 1322q46 67 148 67q0 -17 -9 -14q41 135 96 135h51v-10
q-46 0 -46 19h108q0 -21 -11 -18q0 -5 43 -5q93 -31 93 -151v-317q0 -120 7 -200q-7 -52 -7 -187v-153q-37 -13 165 283q148 183 427 492h72l-55 -82v26h-41q59 89 100 243q18 41 58 41q9 -5 0 -5q3 19 51 19q88 -21 88 -33h-6q117 -18 117 -37q-3 0 20 -32q0 -36 1 -36
l-1 4q0 -62 -223 -621q-147 -348 -213 -613q-9 -41 -17 -80q-13 -60 -20 -116q-7 -44 -5 -10q-48 -48 -33 -48q34 0 34 -38q0 -14 -4 -41q-12 -81 -71 -310h-68v18h53v-18h-21q-56 -163 -122 -176l-110 -58l181 234l-177 -267l96 262h63v-14h-37q9 0 1 -11
q-24 -36 -182 -368l79 354l9 37l12 54l91 341l-29 -345l-5 -37l-5 -39l-15 -111l-21 -152l-63 8l-71 10l-68 -147l214 283l-174 -110h82q-29 0 -39 26q-5 13 -5 38v16q0 17 3 40zM867 890v4q7 -42 7 -29h-53v-3q-7 41 -7 28h53z" />
    <glyph glyph-name="N" unicode="N" horiz-adv-x="1461" 
d="M665 1953h72q0 -133 12 -133q-19 26 -12 -17q-6 -63 -6 -68l177 -1264q-40 0 9 214l253 690h58v-30q0 -11 -12 -60v17h-54q0 -11 25 68h65v-40q0 -30 28 -30q-28 28 -28 16h-47l30 98h65v-10h-48q4 17 250 491h56v-30q0 -14 -18 -53v24h-54q0 -14 28 44h62v-52l-168 -662
q-114 -656 -193 -979l-130 -383q23 -102 23 -156h-72q0 27 -1 30h49v22l6 -29v-40q-58 6 -60 9q0 47 -9 47l-15 22v-41h-72v10h54v23l45 -140h-72l-12 29h45v27q6 -8 6 -51h-58q-131 170 -300 670q-48 172 -182 724q33 0 -5 -148q0 -85 -212 -626q-37 -37 -111 -37
q0 23 -24 36v47h48q-22 -78 -66 -78q0 -5 -42 -5q-66 25 -66 97q7 0 -12 35q0 175 413 1189q0 85 52 85q17 19 85 148q-11 44 -11 152v30q55 49 78 49q43 0 71 -20h-21l12 34h64q0 -39 -18 -74v26h-43q13 24 13 53zM1234 1433h72v-60h-72v60z" />
    <glyph glyph-name="O" unicode="O" horiz-adv-x="2085" 
d="M1310 1735h33q115 0 231 -26v-35q-7 10 -7 47h37q43 0 43 -15h-53v-28q-7 8 -7 52h37q19 0 70 -41q23 3 34 3q132 -31 230 -191q157 -295 157 -541q0 -112 -85 -498h-68v39h50l-7 -48h-67l-13 95h42q-51 -126 -375 -384q-233 -187 -518 -297q-205 -64 -292 -64
q-90 0 -378 62q-200 0 -371 190q-63 142 -63 299q0 415 332 778q112 162 389 350q277 143 268 143q0 37 254 99q34 11 97 11zM569 830q29 -48 29 -103q-100 -235 -100 -283q0 -100 90 -209q115 -47 159 -47q325 37 398 90q302 172 302 216q241 342 241 695q0 61 -26 69
q-230 155 -276 155l-74 -45q-232 -83 -444 -221q-116 -86 -116 -145q-63 0 -183 -172z" />
    <glyph glyph-name="P" unicode="P" horiz-adv-x="1507" 
d="M890 2058q242 -12 339 -12h73l383 -35h92q0 -10 64 -14v-53h-15v38h15v-37l7 10q-12 3 35 3v-61h-21q0 38 28 38v-62q-39 0 -57 -28v25q-29 0 -13 7l77 -11q0 -62 -82 -104q-443 -417 -893 -727q-329 -247 -439 -247q0 6 42 6q-32 -61 -232 -598h-59v31q0 17 15 67v-22
h46l-21 -76h-68q0 51 5 58l-5 19l14 91v-22h45q-99 -260 -133 -381h-68v30h48q-2 -8 -2 -36h-74v31q0 31 -7 31v17l7 59v-9h53q0 11 -92 -269h-104q50 57 51 89v-13h52q0 7 -21 -59h-67q0 40 -7 64q106 779 271 1350l110 413q-5 7 -5 9h14q-68 -18 -112 -18q-51 0 -86 60
q0 37 -11 37l11 -19v12q0 108 142 133q-1 1 -1 46q37 121 306 121q299 18 350 18zM704 1388q306 224 530 336v-30l-456 -36z" />
    <glyph glyph-name="Q" unicode="Q" horiz-adv-x="1798" 
d="M1157 1757q29 0 134 -13q45 4 55 4q143 -25 207 -95q119 -138 119 -227l41 -148q92 -23 92 -123v-13q0 -188 -188 -738q-156 -245 -271 -360v77l-2 -6q50 0 44 -27h-69v14q33 0 0 -28q132 -212 265 -613l9 -51q-8 -10 -8 -37h-73q0 27 -119 139q-131 146 -399 414v-14
q-47 -2 -83 -2h-13q-67 0 -189 22q-157 0 -334 87q-58 15 -105 40v39q7 -32 7 -70q-80 16 -80 34h54v17q6 -9 6 -44h-36q-48 0 -113 134q-31 0 -65 124q15 37 15 33q-20 102 -24 142h50v-17h-73v41l7 27v-24h47q-7 -23 -7 -53h-73v56q0 2 -8 12q70 419 360 710
q179 181 438 318q86 54 174 84l-1 4v26q0 48 97 90q52 15 112 15zM526 677l26 -44q-21 -44 -69 -60q-27 -51 -27 -129q0 -33 47 -55q40 -27 40 -51l-3 -9q133 -82 282 -132q0 -6 9 -9h-53q-102 142 -309 280v26l4 4l-4 4v61q45 0 72 23h38q37 0 37 -5q-32 0 3 44
q27 10 46 10l7 -3l7 3q57 0 99 -36h-6q-10 0 -1 47l130 40q0 -25 58 -35q88 -80 204 -289h-29q199 265 199 708q0 320 -19 320q-40 23 -117 34q-77 -42 -296 -245q-244 -265 -375 -502zM815 544v42h-53v-42h53zM503 142q0 31 -14 33q0 -40 -16 -33h30zM244 75v41h-53v-41h53
zM782 -46v46h3q21 9 16 9v-41h27q-23 -14 -46 -14z" />
    <glyph glyph-name="R" unicode="R" horiz-adv-x="1692" 
d="M751 1772q0 -17 36 -30l10 -14q35 3 44 3q81 0 608 -37v-58h-53v45h60v-60q-22 0 -22 36q73 -7 187 -7h83q14 0 217 55q0 -74 -30 -74v45h-29q24 10 122 10l-53 -46h-62q71 31 166 31l-15 -16h-9q0 -61 -530 -395l-660 -358q620 -934 620 -955l247 -425q-153 98 -154 110
h50v27q30 -43 30 -106q-117 56 -317 292q-107 109 -149 157h38v28q22 -25 22 -73h-47q-70 44 -366 338q-190 179 -317 357h40q0 -14 -241 -767q-7 -41 -7 -70h-75v10h53v-10q-98 0 -98 30h53v-15h-38q-44 0 -52 59q0 58 37 413v-11h53q0 10 -113 -284h-74l22 88v-22h52
q0 13 -22 -56h-68v56q0 4 -8 14q83 574 233 1307q0 -7 23 -7q-57 0 -106 57q16 16 16 -6q-116 0 -188 132v25q0 47 71 89l-11 4q0 5 129 8q103 -5 106 -7q5 2 58 2v6q41 13 278 28q16 37 52 37h14l-14 6q0 4 98 4zM841 1387h-113q4 0 -54 -194q116 44 393 195
q-10 -1 -226 -1z" />
    <glyph glyph-name="S" unicode="S" horiz-adv-x="1804" 
d="M1796 1743q5 0 44.5 -1.5t39.5 -29.5q0 -9 -6 -24q1 2 1 5q0 12 -9 14q38 -9 38 -33q0 -10 -6 -25v2q0 22 -28 22q3 0 50 4t143 18q87 11 99 11h32v-31q0 -29 -42 -29q17 0 17 24q0 23 -9 23q50 0 50 -34q0 -26 -250 -102t-688 -179t-448 -103h29q0 31 65 -17
q79 -60 304.5 -187.5t290 -179.5t113.5 -71l49 -19q-2 0 35 17q45 21 87 21q0 -39 -27 -57q3 2 3 12q0 24 -28 24q-2 0 1 1q19 5 28 5q31 0 31 -26v-10q0 -20 -28.5 -39t-28.5 -11t18 -4q35 -26 35 -64q-41 0 -71 12q-14 6 -11 6h29q0 37 16 28.5t16 -23.5v-3q0 -27 -34 -27
q-9 0 -22 4t-33 7h1q-18 0 -157 -105q-155 -116 -311 -209.5t-329 -230t-369 -258t-286 -174.5q-33 -18 -48 -18q-32 0 -32 26q0 22 110 122q54 49 54 53q0 -21 23 -21q-15 0 -132 -64q-238 -131 -264 -131q-31 0 -31 26q0 22 138 112t173 122.5t225.5 199t306 276t254 230
t131.5 116.5q0 -27 -132 20q-158 57 -254 127t-192 130t-193 107.5t-105 67.5q-2 7 -2 12q0 25 29 31q-19 -4 -19 -22q0 -7 8 -15q-13 13 -13 24q0 10 22 35.5t60 25.5q-7 0 -7 -23q0 -10 -16 0t-46 36t-30 41q0 18 15 26q-8 -7 -8 -15q0 -7 8 -14q-15 8 -15 23q0 27 36 27
q-13 0 -8 9t32 19t149 36.5t177 48.5t166.5 53.5t152.5 31.5h78q38 0 266.5 53.5t308 72t127 24t53.5 5.5zM1487 687l-2098 -1323l1503 1227l184 165l-344 117l648 102l196 -135z" />
    <glyph glyph-name="T" unicode="T" horiz-adv-x="1519" 
d="M1755 1852l32 -8q-11 -45 -114 -69l-98 -40l8 30l-28 7l159 16l4 18q-47 -24 -26 -24q10 0 60 -3q-13 -55 -54 -59l10 39l-27 4q8 3 25 3q8 0 64 -9l-9 -10l-13 2l-7 -54h-31q10 0 15 37l15 -2l-9 -34q-41 -45 -49 -49l-3 5l-4 -32l-31 -4l9 36l-27 7h24l51 -13
q-94 -98 -352 -148q-49 -3 60 40q-99 0 -99 -41q0 -94 -98 -701q-10 -60 -22 -106l-113 -771q-23 -142 -114 -470l-34 9q-27 5 -27 35q0 10 -3 -3h56q-7 -25 -40 -25h-8q-37 7 -37 165q0 42 1 77q-5 1 -5 31q0 10 -1 4l53 -13l6 24q-26 -203 -36 -428v-36q-70 14 -70 98
q0 59 8 166q-2 118 -2 213q0 238 11 301l51 -13q-12 -42 -18 -82l-68 9l11 62l49 -12q-6 -16 -15 -70q-12 -74 -21 -292l-71 13q8 235 9 580q16 96 16 386q5 37 34 39q-4 21 -4 39v7q7 32 45 32h-27v-16q0 138 58 488l39 227q25 -6 24 -6q-41 0 -202 -48q-84 -16 -295 -40
l8 62h31q-18 0 -25 -44h35l-62 -18l11 46q3 15 30 32l55 -14l-80 5q-74 17 -123 26q-8 1 -21 1q-62 0 -220 -27l-25 5q-16 -20 -93 -24l-155 -23l-9 37q4 24 102 51l-8 -32l29 -8q-98 -14 -122 -14h-7l-46 9l7 52h28q10 0 186 55l-8 -32l28 -7l-236 -13l-20 55
q193 22 234 28l-10 -37q-13 2 -13 30v15q36 19 53 19h-21l-11 -41l-20 3l10 38q73 45 466 99q215 33 576 80q4 23 48 23q7 0 37 -7q0 -7 -47 1q6 21 42 21h12l39 -26q88 11 293 24q63 18 240 21q43 13 70 13q10 0 17 -2zM809 412q41 0 33 -79l-7 -55l-5 14h-20
q-21 0 -23 -16l2 20q8 74 19 119q1 -1 1 -3z" />
    <glyph glyph-name="U" unicode="U" horiz-adv-x="1586" 
d="M975 2056l11 -95l-32 -63l-6 23h-37q21 36 21 56l71 13v-33q0 -10 -3 -15q-2 9 7 -1v-10q0 -12 -7 -30l8 -21l60 164l-51 -79q9 -97 9 -111q0 -68 -31 -169l6 -8l-30 -98v24h-46l29 77l64 6q0 -79 16 -77l-16 18v-16q0 -61 -145 -678q-206 -606 -206 -621v21h-30
q105 38 366 112q1 -7 1 9q0 175 174 932q9 18 55 260l29 15l26 3l23 -10l-27 -4q1 22 38 28l24 3l47 -12l-15 -2v-19q0 30 37 37h16q25 -13 22 -13h-28q1 20 39 23l51 7q3 -16 -18 -16h-8q10 6 36 6q57 -43 67 -81l3 -32v-8q0 -74 -121 -540q-22 -93 -151 -762
q-50 -100 -87 -296l-66 -11l-1 18h52v24q0 -11 -25 -73l-67 -6l1 5l36 16l-37 -7l-18 50q-6 52 -16 216l2 -20l47 9l-41 -139l-67 -6l2 67v-25l49 8q-1 -5 -1 -14v-25l-72 -12v34q-2 18 -18 46l2 32l3 -24q-236 -165 -467 -284q-240 -219 -293 -233l-33 -5q-132 3 -138 45
l1 -6q24 4 17 4q-40 0 -45 36q5 8 5 7v-23h29q-20 0 -90 57q40 8 40 -5v0v2l-26 35q42 5 45 47q50 86 50 100v-24h23q-37 0 -63 37l13 22v-3q2 -17 22 -17h-35q3 80 -10 77l11 -15v11q0 48 100 237q57 108 75 328q67 339 264 903q3 26 35 30l18 3q49 -14 50 -20h-51v-24
q0 34 84 91zM773 79v41h-56v-41h56zM-125 -189h69v-58h-69v58zM-121 -206h69q0 -59 -69 -59v59z" />
    <glyph glyph-name="V" unicode="V" horiz-adv-x="1265" 
d="M1455 2119l71 -10q-34 -89 -35 -95l2 14l-45 7q20 39 26 76l72 -17q-5 -25 -5 -31q0 -17 5 -54q-207 -637 -274 -735q-185 -362 -470 -882q-247 -578 -365 -832q-132 -251 -209 -342l-47 -9q-22 14 13 6q-1 -6 -40 -6q-8 0 -21 3l7 -4l6 12l-6 -34l-72 11l8 46v-1
q0 -14 12 -16l24 -3l-3 -19l-64 10l-38 157q-41 433 -41 742q0 252 24 400q-1 0 -1 30q0 10 3 26q7 23 34 23h-32l1 -5l14 87l-10 52l-8 1l15 -28l3 19q3 17 9 30q-2 5 -2 44l-14 2l16 -29q0 33 34 33h-48l14 -21l3 20q11 64 11 104q0 14 -2 27q0 30 34 30h-27v-23
q0 3 -3 23q31 248 31 341q0 39 -37 81q55 0 49 -3l-1 8q10 64 10 200q0 35 -2 104l-13 2l15 -28q16 105 116 117v-30q0 17 -44 25q4 8 38 8h7l38 -5v-5l-8 -2l31 -6l41 -126l55 -4v3l-14 -2l19 -6q49 -32 112 -50q56 -43 56 -125q0 -23 -8 -78l23 -3l-19 29l-9 -49
q-7 -23 -34 -23h45l-12 21v-12q-8 -25 -35 -25h48l-13 20l-4 -14q-7 -22 -34 -22h28v24q0 17 17 15l-24 -51l-49 -310q-4 -18 -10 -22q0 28 18 26l-24 -53l-15 -93q-7 -23 -34 -23h27q0 42 20 39l-24 -45l-7 -41q-7 -23 -34 -23h27q0 41 14 39q-74 -214 -74 -217l1 -139
l-49 7q2 10 341 542q215 420 458 718q92 139 244 322l52 -9l-5 -35l-47 -80v22l-39 7l54 80l64 -10l-9 -47l7 13h-45q3 0 91 164zM794 2444v-58h-64v58h64z" />
    <glyph glyph-name="W" unicode="W" horiz-adv-x="1992" 
d="M709 1864v1l-24 -13h42q7 -74 7 -78l-40 -297l20 -54q0 -102 -157 -639v24h-45q34 64 175 184q47 46 47 36q-10 13 -10 52q22 0 32 46q15 31 74 41q0 9 57 9q18 -25 18 -16q-35 0 -1 28h54l2 8l-38 -20h44v-41q0 -29 14 -29q-14 23 -14 11l2 7q5 0 22 -122h10l-14 23v-8
q76 -489 76 -459q-17 -15 405 527l424 527q50 70 70 112h61v-37q-11 -13 -11 -12v21h-55q0 -2 91 88q0 5 55 72h56v-35l-51 -76v27h-42q44 60 67 68h43q-5 -82 -138 -299v27h-43q40 61 98 68v-33q0 -15 -35 -74v27h-43q28 42 28 64h77l-22 -86q0 46 13 46q-24 -88 -250 -526
q0 -10 -428 -675q-227 -347 -378 -615q-26 -38 -48 -44q0 -13 -103 -35q-14 5 -4 5q-24 -11 -24 -52h-44q-26 15 -26 33q50 5 50 20v-53h-70q0 34 -58 80l-8 31v26q0 8 9 44q-53 188 -85 337l-37 274h41q-115 -201 -324 -431q-84 -79 -84 -163q-25 -87 -25 -150h-64l-12 44
h55q0 15 -8 -44h-67q0 26 -8 48h37l-15 -52h-64v32h51l-5 -28h-58q-24 64 -24 77v71q-4 0 -11 16q-4 0 -28 37q9 14 9 -13q-10 0 -10 38l45 92q0 75 51 309v-19h47q-32 -84 -118 -185v82q0 9 26 87v-24h45q-21 -52 -21 -80h-70q0 40 5 55l-5 35q117 544 275 923
q232 530 302 657h59v-24h-49l5 20h64q0 -30 7 -48h-40q24 72 89 72z" />
    <glyph glyph-name="X" unicode="X" horiz-adv-x="1565" 
d="M1625 1918q0 -40 -50 -40l4 -2l29 42q17 -2 17 -36v-15q-81 -84 -91 -103v50q62 39 109 39h28q72 0 107 -51v-17q0 -35 -21 -35v38q35 -1 35 -40v-13l-14 -16q0 -10 9 -44l11 18h-13q0 -46 -50 -100l-29 13h30v3q-77 -31 -96 -62q-19 -17 -151 -267q3 -4 3 -23v-14
q-65 -69 -198 -286q-68 -123 -264 -391q195 -324 292 -507q268 -457 268 -507v-66l-63 53q0 59 42 4v-37h-74q0 25 -71 90l-138 177q71 -137 120 -215q98 -167 121 -248v-34h-65q-18 41 -12 36q0 56 80 -52h-75q-569 577 -764 935h25q-42 -36 -372 -391q-183 -203 -374 -316
q0 66 77 158v-71q-53 -53 -105 -53v44q165 198 216 301v-62q10 9 -113 -123q-129 -154 -354 -311v72l42 48v-63q-54 -45 -70 -45q-332 -254 -400 -256h-38v39q49 46 -19 -56l-92 -65l152 217q154 143 327 364q440 445 384 370q133 114 113 114h-43q0 35 6 46v-34l-40 -15
q61 122 361 584q0 5 -121 157q-240 314 -271 401q26 38 4 38q5 -8 5 12q32 63 34 63l11 -16l23 37q39 0 50 -3q0 -10 69 48l48 -8h-29q-4 28 -4 56v10q0 58 91 100h22q44 0 44 -16h-39q0 16 44 16h14q27 0 103 -87q203 -360 216 -372h-23q147 202 600 733q88 75 101 114
l4 -1v-33q0 27 116 52h25q85 0 114 -74z" />
    <glyph glyph-name="Y" unicode="Y" horiz-adv-x="1681" 
d="M1572 1851l30 -18h-31l1 9h33q22 0 25 -1q3 1 54 1v-30q0 -3 32 -9q-5 -26 -5 -29q0 -9 4 -27q-18 -36 6 -36l-4 6q-3 -19 1 -12l50 37h47v-38l-35 -38v58l5 4h56l-18 -54l1 4q2 -3 40 -10q-148 -265 -333 -444q-180 -220 -347 -467q-70 -206 -417 -1796l-18 327
l-69 -190l-83 250l160 322l-322 -877l76 403l-35 -35h63q-2 0 -174 -57l132 163l51 271q13 51 13 63q0 -19 29 -19q13 0 125 262l-115 -185l-25 30q3 29 12 53v-24h48l-37 -144l-177 -395q62 306 62 343q0 34 -10 63l107 563q15 142 184 614q-245 159 -426 321
q-359 350 -398 402v13q3 23 9 25q-2 3 -2 29v20q38 21 58 74q24 0 22 -19l-12 23l50 25q48 0 48 -35v21h-32q2 14 75 14q-5 -33 -5 -35q0 6 -20 6h-21q2 15 50 15v0l1 9h46l93 8q0 -20 -1 -19l6 2h19q46 0 356 -291q160 -156 256 -340h-17q165 200 214 315q30 46 86 71
q244 358 284 407z" />
    <glyph glyph-name="Z" unicode="Z" horiz-adv-x="1981" 
d="M2246 1966q65 -11 65 -60v21h-27q-1 0 14 4l22 -10h106l-6 -33q-3 -33 -27 -33v39l-18 4l48 2v-37q-24 -37 -109 -89q-4 -48 -130 -133q-103 -74 -117 -101q0 2 3 -10q-6 -79 -103 -138q-411 -366 -980 -852q-333 -306 -432 -411h-61q485 109 826 139q156 2 608 29
l-6 -60l-96 -12v35l-23 5q55 5 76 5q15 0 41 -13q-5 -36 -53 -57l2 30l30 -1l-5 -57l-99 -13l7 35l-23 5l128 11l-6 -64h-32q-12 0 -43 -20v31q111 -4 111 -58q0 -26 -37 -54q-103 -61 -87 -55l233 8q-278 -104 -1128 -218q-715 -112 -1098 -222l-46 9q-75 64 -75 98v3
q0 5 -23 43q37 19 50 19h-30l-1 9q29 35 52 35h-30l-2 28h35q-21 0 -23 -15v-17q4 -1 -18 31l7 30l-10 36h39q-6 0 12 42q14 0 122 113q1031 961 1201 1064q191 133 302 238l53 -10q-435 -170 -746 -227l-435 -117q-15 14 -5 11q-247 -36 -335 -36q-23 0 -34 2h-31v50
q71 17 83 17h-29v-39l23 -5q-18 -2 -33 -2q-12 0 -51 10q30 66 262 173l26 16l64 -13l-310 -65l6 68h30q2 0 -22 -19l63 -7q-22 -11 -45 -11h-52q34 64 129 137l21 -6v54q24 0 21 -40l6 1l-47 12q45 58 205 149l-6 -28l18 -4q-36 6 -142 21l5 55l20 1v-40l21 -2l-51 -2v32
q0 16 9 22l44 -10q-76 10 -117 19l5 54h29v-40l-32 7l5 55h30q-1 0 -27 -8q-13 31 -13 52v3l3 23q14 19 26 67h25q-20 0 -17 28l65 -16v-21q0 -2 -8 3h-7q7 0 48 28q17 -3 19 -3q-1 0 13 5q63 -31 97 -38q101 14 124 29q177 45 534 50q271 27 645 88q482 49 642 104z
M1846 -55l67 -14l-6 -63l-61 15v62z" />
    <glyph glyph-name="bracketleft" unicode="[" horiz-adv-x="758" 
 />
    <glyph glyph-name="backslash" unicode="\" horiz-adv-x="1057" 
d="M22 2157h-5q19 0 47 -32q57 -154 78 -182q-17 0 -4 9l19 -9q-14 0 1 26h26l-12 2v-28q0 25 33 31h31q11 -9 23 -9l67 -94h-26l41 37l11 -47q27 -9 31 -34l4 17h-7q23 -108 106 -297q159 -334 312 -757q150 -332 398 -1092q-11 0 -11 16q0 -8 5 -52h-63q-18 49 36 49
l26 -67h-76q-3 26 -25 62h51l4 -17h-40q-29 0 -46 40h52l-5 26q10 -27 18 -40v-21l55 -205q0 -38 6 -78h-68q-5 30 -20 63h54l-7 27q20 -60 49 -103h-79q-205 419 -302 630h54l-7 28l51 -113h-70q-69 126 -72 127q-387 698 -829 1837q14 0 14 -22v-4q-18 36 -61 156l-3 -15
q7 0 1 26l-5 24v4q0 28 4 28q2 53 7 53q9 -45 0 -45v26q0 19 34 37q42 0 45 -13h-58q6 -23 6 -17q0 24 41 58q61 -49 60 -46z" />
    <glyph glyph-name="bracketright" unicode="]" horiz-adv-x="758" 
 />
    <glyph glyph-name="asciicircum" unicode="^" 
 />
    <glyph glyph-name="underscore" unicode="_" horiz-adv-x="1024" 
 />
    <glyph glyph-name="grave" unicode="`" horiz-adv-x="1024" 
d="M162 2363q11 22 -17 22q-12 0 24 -15q-5 36 -5 29q0 -46 -39 -46q-11 0 81 -46q-61 86 -47 82q7 -42 116 -184q-168 108 -165 104q24 8 24 17q0 4 -3 8l4 -4l21 -21q80 -393 252 -423l14 -18l-19 10l22 17l33 -40q-14 -37 -14 -51q0 -7 5 -9q20 -17 16 -17q-26 0 -26 -19
q0 8 164 -319q-72 218 -51 191h-1l-5 2q-24 -8 -24 -21q0 -4 -51 63l107 -40q11 -16 11 -23q0 -26 -31 -26q-10 0 92 -51q-65 83 -58 81l-16 6l41 51q34 -45 36 -55l-3 3q-36 0 -33 52q29 69 29 84v0q-59 239 -171 385l-11 14q-61 78 -138 122q-20 27 -53 53l-8 3l-19 -2
q-26 34 -17 31l-16 -19q-74 51 -51 19z" />
    <glyph glyph-name="a" unicode="a" horiz-adv-x="1336" 
d="M1262 1584q5 -20 -14 -20q14 5 37 5q91 -59 91 -176v-12q-84 -609 -88 -711q51 11 97 11q0 -46 58 -22h-128q28 9 116 9q-59 -62 -161 -112q-11 -125 -13 -194h-6q0 46 10 46q-96 -669 -96 -718h-74v33q0 22 -2 43h49l-2 -76h-73v14q39 0 36 -81h-71l-5 54h50l-2 -50h-60
q-44 64 -70 153h44l-1 -14h-72l2 72h50l-5 -31v-27h-66q-35 88 -35 227v28h47v-13h-81l15 59l1 13h52q1 11 -20 -63h-68v37q0 17 -12 48q22 247 21 234q-233 -116 -352 -126q-122 -157 -231 -229l-94 4h-22l-32 -9q-23 31 -23 10l9 3q-89 77 -89 118v15q5 158 619 861
q39 55 356 394q5 124 175 124l27 -34l12 16h-57q2 29 78 66q22 -8 -7 -8q0 -2 80 29zM992 1312q0 11 -30 -31v28h-53q0 -5 30 20l-1 -17h54zM955 873q0 -10 -219 -308q22 8 106 22v-14l60 325l-6 -25h59z" />
    <glyph glyph-name="b" unicode="b" horiz-adv-x="1513" 
d="M1584 1515h92l-30 -24h-77l22 12h56l-10 -38q-34 -48 -56 -70l8 32q-7 0 100 -12l-14 -54h-37l5 42h35l-6 -49q-75 -31 -185 -57q-45 -64 -300 -222l-158 -127v41q476 130 592 130h15q76 0 76 -57q0 -6 6 17q-3 0 -3 -30v-5q-6 -35 -141 -119q-55 -28 -307 -224
q-199 -189 -864 -666q-217 -138 -216 -133l-6 -33h-69l-3 -18q-204 -118 -284 -118q14 43 10 40h90q-41 -24 -93 -24v30q2 16 33 46q1 0 -5 34q-25 12 -25 49q24 7 22 -2l-6 -25h-11l15 58q30 0 44 40q24 0 49 24q-3 60 -3 119q0 113 10 181q-2 4 -2 13v27h5v-24
q0 -22 -13 -22l18 54q50 316 169 627v-3q0 -22 -14 -22l45 125q-22 3 -51 50q0 6 -5 19q20 40 22 41q-5 11 -5 21v3q3 14 61 69q6 35 139 55q18 61 70 134l43 -7h-25q2 16 39 16h26q20 0 60 -42q8 -10 33 -10v-26q0 2 19 -17q-15 -19 -7 11q-10 0 7 -34l1 6q88 11 348 21
l-7 -59q-30 0 -59 -4l11 42h-25q251 40 554 63zM462 949q64 37 312 150l-12 -6q-9 -1 -256 -26q-15 -24 -44 -118zM395 608l-75 -339q-1 0 -1 36l-28 13q192 192 536 449q12 0 -15 -30h60l-482 -136q5 5 5 7z" />
    <glyph glyph-name="c" unicode="c" horiz-adv-x="1785" 
d="M677 1485h38l376 -73q349 -90 424 -169q68 -86 68 -123q0 -7 15 -33q-31 -12 -31 2q6 -10 6 -30l-37 -37h-54v11h54v15q6 -64 6 -78q-27 -56 -73 -82h-40q-39 0 -48 8q3 2 -49 2q0 16 -1 16q30 0 30 -14q-154 40 -257 40h-3l-68 -10v-7l26 12h-12q-197 0 -468 -118
q-80 -124 -80 -208v-25q10 -167 18 -167q106 -41 221 -41q12 0 192 41q173 0 678 218q1 5 131 67l26 -57q-170 -87 -141 -87l-3 5q-33 -18 -33 14h-26l212 81v-52q-20 -23 -172 -87l12 22h-48q60 28 136 53v-55l-70 -39h-93q61 16 219 96v-55q-22 -34 -103 -67v36h-32
q118 46 219 46l-37 -31h-78q14 11 78 11q0 -59 -230 -259q-65 -64 -282 -180q-86 -33 -438 -111v-11h-35q-187 0 -468 144q-128 111 -189 204q-85 54 -85 219q-25 50 -25 118v31q0 207 181 392h-11v-45h32q-103 -40 -223 -137q0 44 50 44q0 5 -89 -57l-28 56
q130 115 240 218q23 19 -5 19l8 -13q40 52 118 94v-33h28l-44 -23l-27 60q348 157 497 157q0 6 67 9v-37q-122 30 -170 30v60zM244 964q-23 -15 -38 -15v-46h34q-11 -6 4 61z" />
    <glyph glyph-name="d" unicode="d" horiz-adv-x="1318" 
d="M475 1500h28l2 -1l2 1h86v-63q-4 50 33 3v-19q0 3 -54 3v1q45 0 68 -23q0 -13 -75 -13q45 -45 56 -45q24 0 24 -20q-65 0 -65 85q65 0 65 1q78 5 114 5q197 -22 356 -28q17 3 103 10v-54l189 54h-170q59 0 59 -53q-105 0 -105 53q92 0 198 -20l110 51v-10l-81 -90v0
q-8 50 91 90v-83l4 13q10 -2 10 -39v-48h-79v86h79v-48q0 -37 -131 -72v83q79 -21 79 -102h-79v86l89 -9v-42q0 -51 -117 -54v85h79v-94q-67 0 -125 -77q-144 -328 -343 -492q-262 -207 -483 -385q-210 -77 -210 -104q-30 -56 -76 -92h-96l79 267v-195h48q-18 -69 -72 -69
h-52l-13 72h481q-429 -50 -532 -150h-85v-105l70 174q27 0 27 -39v-27h-116v60q0 20 14 68q0 -12 -18 -12q72 412 162 653q146 354 150 368q4 0 4 51v6q0 -3 73 -3l-78 95q0 -52 55 8q73 239 165 239q0 -1 -28 -1q1 0 31 10zM870 1101q-1 0 -1 53l-424 -53q373 0 174 -3
q17 0 17 16q-111 -264 -154 -430q241 115 543 572v-145z" />
    <glyph glyph-name="e" unicode="e" horiz-adv-x="1424" 
d="M607 1537q65 -1 125 -30q248 22 427 26q276 -11 482 -11l7 -56l-67 -4v44h105q-62 -65 -189 -91q-68 -24 -136 -35l-10 40l218 -11l14 -57h-88q17 2 17 18v24h59l13 -49q-116 -35 -560 -90q-126 -3 -207 -3l-18 -6q-18 6 -27 6h-50q3 2 -17 -43q-2 10 72 -45
q-62 -21 -36 -21l-12 36l31 -21q-85 -252 -85 -263v27l91 7v1q4 1 93 1h33q40 0 337 -35h28l15 -58h-40l-11 43h49l7 -52q-163 -33 -207 -59q-81 -12 -141 -25l-10 39h13l11 -42q-230 -108 -337 -108q-44 -240 -140 -434l-4 24q76 8 169 8q357 -7 421 -7h83l15 -58
q-45 0 -66 -2l-11 44h52l7 -27v-3q0 -31 -18 -31v43l38 -4l7 -55h-40q-7 0 -34 -2v44q68 0 182 -5l7 -54q-88 -6 -67 -6v46h63l6 -51q-114 -28 -358 -66q-13 -11 -299 -70q-75 -36 -480 -75q-27 0 -27 7v-6q-14 -36 -46 -36h-32l-4 19h45l-3 -19h-55q-39 48 -42 63l-4 19
l-14 11l-6 21l-12 -21q-14 0 -57 38q-9 0 -38 26l-2 18v5q0 32 58 77q33 46 80 58q63 213 123 503q120 327 251 610h35q-63 12 -70 40l-1 -5q-16 0 -25 35v6q0 24 10 35q1 -1 -4 43h-12l27 -27l-3 26q64 63 199 63q18 31 109 31q0 -4 -53 -4q0 8 41 8zM330 198v23
q0 -19 5 -12h-34q-18 0 -18 -18v-1l-2 8h49z" />
    <glyph glyph-name="f" unicode="f" horiz-adv-x="1369" 
d="M933 1521q36 0 36 -5q-32 0 -22 5q115 0 653 -77v-56h-78v43q73 -3 73 -54q-100 -42 -177 -42v45q20 0 20 -41q-15 -24 -44 -24q-3 39 -22 39h72v-50q-96 -41 -658 -151q0 4 -50 -141q81 13 164 13q167 -26 330 -26v-54l-52 -11v39h-11l68 10v-55q-69 -32 -287 -106v33
l162 -15v-58h-31v45h36v-48q-75 -44 -58 -44l-10 20v-29q-124 -31 -361 -110l-87 -15q-115 -345 -279 -674l-122 -277h-70q35 107 35 114v-20h47l-32 -88h-66q10 65 12 71q-3 5 -3 21q0 17 21 107v-22h46l-141 -313h-70l35 111v-22h46q-18 -42 -18 -73h-70v51q0 30 -10 30
l10 -20v16q0 23 42 204q-5 26 -5 42q83 584 204 976q31 81 80 260h-16q-122 8 -122 57v10l-10 -20q5 0 -21 82q35 21 20 21l-2 10q85 68 65 68l10 -20v26q0 30 -8 30l8 -18v19q31 57 82 84q55 29 442 70v-9q-54 0 -54 5zM72 -146v-60h-64v60h64z" />
    <glyph glyph-name="g" unicode="g" horiz-adv-x="1417" 
d="M1228 1596v-57q-30 0 -62 -13v37h-31q53 20 102 20q0 -45 -115 -122h-89q83 39 389 95v-34q0 -25 -48 -36v41h-29q45 10 81 10v-37q-25 -25 -175 -106v31h133v-52l-29 -4v43h-22l56 7v-50q-122 -51 -142 -64q0 -15 -152 -63q-160 -62 -344 -156q-60 0 -237 -197
q-1 2 -1 -33q-10 0 -10 22l14 -18q-31 -59 -130 -204q-92 -163 -92 -213q5 -18 5 -51q-10 -1 -10 25l10 -10v-41q-23 0 -29 -57q5 -48 5 -47q5 0 5 -4q3 0 322 167q70 43 170 81q26 25 48 48q-5 -1 -227 -23q-109 -37 -177 -37q-56 0 -116 44q15 18 15 -8q6 0 -45 77
q45 0 66 23q36 8 49 20q111 27 441 165q208 51 360 144q30 12 146 77l58 7q21 -25 21 -19h-50v7h69q0 -23 24 -31q0 -9 29 -26q-31 -28 -37 -44l3 -9q0 -7 32 -124q-46 -182 -110 -323q-116 -109 -199.5 -185.5t-311.5 -186.5q-126 -59 -316 -96q-130 -28 -226 -28
q0 -3 -40 -3q-123 0 -230 113l-62 48l-13 -13q15 0 15 35q0 28 -18 28l17 -23l5 33q-23 74 -23 120v59q0 30 7 212q212 680 469 857q225 98 484 133q235 19 298 19z" />
    <glyph glyph-name="h" unicode="h" horiz-adv-x="1274" 
d="M655 1713q107 -39 108 -111q6 0 6 -28l1 -40v-1q0 -85 -220 -783h-37q134 20 184 20h8q89 293 133 587v0q0 52 111 100q0 -31 -16 -25q16 8 16 37v6q22 56 60 56h1q1 3 64 21q22 -30 22 -12l4 1q80 -56 81 -100q-45 0 -36 27l21 -4q0 4 66 4q0 -4 11 -4l-10 -46v23h-28
l40 6q40 -38 40 -51q0 -29 4 -29q2 -6 2 -14v-1q0 -58 -145 -639q-46 -242 -166 -497l-74 -207h-67l18 94v-23h48l-19 -63h-63q0 54 -16 54q16 -24 5 51h-10l13 -22l31 283v-19h49q-38 -154 -145 -427q-18 -60 -18 -93h-69l-2 53l4 25v-23h49q-3 -10 -3 -48h-61
q-26 63 -26 88l-1 15q0 24 4 58v-22h46l-59 -139h-69l32 111v-24h47q-25 -75 -57 -75h-39l8 54v32l77 475h34q-171 -51 -206 -68q0 -9 -221 -623h-62v29q0 11 9 61v-23h50q-13 -63 -75 -63q-16 70 -16 80v4q0 24 4 74l4 2l-28 83q4 82 17 182v-22h45q-51 -118 -119 -257h-68
l27 95v-24h46q-15 -38 -15 -67h-70l-2 72v1q0 43 112 565q143 512 347 1117q28 43 81 43q10 -4 -13 -4q5 12 82 12q0 -8 -31 -8l30 12q13 -8 -31 -8q18 -24 18 0q41 24 93 24z" />
    <glyph glyph-name="i" unicode="i" horiz-adv-x="661" 
d="M633 1729q38 -15 38 -12q-56 0 -56 10q55 -10 54 -10l8 4q55 0 55 -47v35l-28 -13h15q46 -11 46 -65v-11q-13 -145 -121 -255q-44 -14 -99 -60l-8 16l-7 -4q-27 48 -17 48q-62 -45 -116 -45l9 36q4 8 -3 -20q57 0 56 -12h-64l-4 46q3 39 3 100v36q49 134 76 161q2 0 3 15
l72 32l-3 -30h-20q-20 0 -19 12h66q0 -17 -20 -17q-12 0 -9 33h57q17 -16 6 -16h-26v-22l-3 34q36 21 59 21zM370 1278h34q24 -25 13 -25q19 21 73 21h34v-28q0 11 -46 11q1 8 69 8q-5 -33 -5 -36q0 16 -30 16l54 10v-32q0 12 -30 16l3 9q74 -9 74 10l16 9q0 -26 21 -26
l-16 -29l39 -33q-42 -11 -28 16q4 0 4 -75q-8 -88 -311 -1121l-175 -435h-60v31l8 37v-23h48q-2 -5 -7 -41h-62q-7 51 -7 63v4l6 63q-13 48 -13 107q0 22 2 46l13 156v1q0 -19 45 -19l-63 -169h-63q4 37 22 100l-7 -26h55l-22 -62h-63q4 36 5 89q106 614 201 917
q44 139 101 407q32 0 45 22z" />
    <glyph glyph-name="j" unicode="j" horiz-adv-x="924" 
d="M610 1437h9q117 -7 126 -7h95l-18 -56q-25 0 -30 -1v41h-29q36 6 71 6q117 -18 117 -57v-3q-3 -16 -38 -42v33q-1 0 32 -37l-7 -21q-13 -10 -11 -1l8 -15v-11q-8 -25 -5 -25q0 46 12 46q-38 -126 -61 -258l-61 -347q0 -26 -4 -26v24q0 22 8 22q-46 -263 -234 -672
q-117 -213 -248 -374q-124 -143 -321 -305q-176 -117 -269 -147q-147 -68 -222 -68l8 57q30 0 -15 -34h79q-28 -10 -81 -10q12 46 128 130h85l-243 -130h-25q-9 7 7 7q-8 -3 -40 -3q-10 26 -10 33v11l175 166l300 305q214 243 368 486q101 157 134 342q125 374 146 499h-11
q-25 66 -25 86v4l4 20q0 26 -7 26l45 -118q16 78 -167 65q-113 0 -125 40q-14 0 -58 36l4 21q11 26 2 26q6 -22 -18 13q34 19 41 40h12v-11l-7 12l3 21q63 68 101 68v-26l-10 24l19 7l3 -9l2 24q75 56 140 56q56 17 116 17z" />
    <glyph glyph-name="k" unicode="k" horiz-adv-x="1351" 
d="M1522 1558q19 -23 19 -34v32h1l25 -53q-33 -97 84 -4q-126 -73 -78 -73v-39l-2 -2h-74q23 14 26 31h72q-8 -67 -215 -279q-132 -136 -555 -424q-125 -102 -124 -93q41 -49 156 -382q43 -81 91 -371q31 -76 43 -157h-70l-5 17h45l-3 -20q-83 18 -159 133q-33 20 -190 227
q-188 211 -248 332h16q-56 -34 -65 -125l-172 -483q-1 0 -4 -34h-35q-41 0 -41 43q0 7 -4 -15h52l-11 -35q-117 20 -119 308q8 83 31 239l14 494q22 214 226 677q35 56 135 56h49q0 -7 -29 -7q13 4 39 4l63 -65v-4l-37 5v-32l-11 10v33l71 26h19q19 -8 132 -19
q55 -73 55 -97v-5l-185 -431q12 8 278 242l336 306q24 0 46 10q48 0 48 -35v22h-26q5 13 43 13h11l13 -4q88 32 164 54q27 8 59 8z" />
    <glyph glyph-name="l" unicode="l" horiz-adv-x="774" 
d="M741 1757h20l12 -8l55 8l2 8l-42 -14h30q43 -55 43 -86q0 -7 -2 -15q-231 -582 -368 -1071l-112 -399q-71 -255 -171 -408h-64l6 21h54l-10 -21h-43q-25 28 -25 56q0 6 1 17l-4 -15h59l-8 -28h-64l3 40h47q-13 -36 -23 -73h-66l6 36h54l-11 -39h-71l2 6h59l-35 -124h-70
q10 36 13 58h53v-1q-7 -39 -17 -60h-54q-14 89 -14 137q0 42 7 67q8 269 52 426l-3 35h-3l6 -20l17 61v-1q0 -2 -8 10l13 13q23 150 34 186l12 47v0l-4 12q10 10 11 12l17 61l1 2q0 -5 -6 1l14 31l8 25v1q0 -22 -20 -22l27 45q94 337 320 807l26 9h23l10 -6h-18
q10 13 52 106q74 43 87 43h19l2 -1l19 7q11 -6 -7 -6q10 12 47 24z" />
    <glyph glyph-name="m" unicode="m" horiz-adv-x="1513" 
d="M1298 1515q39 0 39 -34v36l-25 -10h27q115 -10 239 -10q39 0 119 2q-197 -597 -374 -1409l-105 -496h-73l8 33q1 5 4 31h50v-7l-12 -57h-58q-30 82 -35 170q-29 103 -29 136q0 7 -1 5q-14 23 -14 68q0 28 1 33h55l-18 -85h-59q-5 16 3 16q-34 0 -253 -234
q193 802 226 960h50q-151 -319 -210 -411q-12 0 -49 -28l-12 2q1 5 -40 -8q-45 0 -45 31v-35l18 6l11 -4q2 8 -58 -10l-21 12h24l-2 -3l-5 -27q-7 -30 -43 -30h-39l5 51h52l-12 -55h-55q-35 64 -69 379q-2 32 -2 44v-20h45l-200 -460q-79 -9 -86 -45q-9 -41 -122 -81v40
q0 -18 27 -18q-38 -17 -66 -17q-53 34 -46 34l-57 -21q-4 38 37 38q0 1 -73 -27v40q0 2 -29 30l4 16q6 29 24 29l-7 -25h-25q39 138 73 200v-4q0 -22 -18 -22q196 450 336 651q144 355 246 481q39 64 89 64q16 -25 16 -37q0 -5 8 20h-59l4 17h43q22 -17 13 -17h66l-1 -4h-38
l24 10q117 -37 117 -163q0 -39 -10 -87q-33 -337 -33 -421v16h-44q272 490 391 615q38 85 94 85q28 21 44 21z" />
    <glyph glyph-name="n" unicode="n" horiz-adv-x="1219" 
d="M1165 1538h69l-7 -40h-50l1 1l5 31h38q35 0 35 -56q0 -85 -37 -396q-30 -167 -120 -610h14l-11 22q0 -34 -6 -34v24q0 22 12 22q-23 -89 -28 -117l-3 -16q-4 -16 -9 -21v8q0 22 13 22q-24 -84 -28 -109l-22 -122l-6 -16l3 -6q-7 -41 -59 -139l28 -141q-85 40 -92 63h44
l3 22q11 -17 11 -36q0 -8 -20 -48q-65 52 -70 54v0l-51 -16q-142 0 -168 143q-1 18 -1 34q0 31 4 55l13 78l-160 362h41q-1 -4 -6 -9v9q0 22 8 22q-7 -58 -15 -58q-19 -80 -29 -138l-25 -140q-3 -17 -12 -37v3q0 22 18 22l-23 -51l-1 -9q-33 -186 -112 -186q-3 0 -56 -7
l-2 4l9 3q-21 0 -39 15l27 31l33 -35q-54 -7 -91 -54l-59 -21h-57q-121 28 -121 119q0 12 2 25l19 109l7 25q0 -46 -16 -46q328 960 400 1142q3 0 -1 -16q-12 21 -12 90v34q28 0 49 24q14 0 9 -20l-5 44q30 0 49 52h68l-2 -12h-49l1 8h43l26 -17v-3h66q3 -35 3 -45t3 9h-54
q6 36 56 36q43 -34 45 -242q124 -479 131 -534h-42l1 2l61 234v0v-24q0 -22 -16 -22q57 152 118 394h11q-1 -5 32 100h70l-8 -43v-13h-51l4 20q10 28 42 28h31q12 -57 12 -93q0 -28 0 -27h-49q22 47 113 280z" />
    <glyph glyph-name="o" unicode="o" horiz-adv-x="1354" 
d="M812 1513h57q155 0 277 -198q30 -24 71 -150q42 -32 75 -168h29l-24 -39q0 27 24 27l-24 -39v-42q0 -66 -10 -158l31 -103q0 -159 -213 -439l-137 -114l-14 5q-212 -116 -312 -116v54l26 4v-42h29q-89 -20 -175 -20q-280 0 -453 292h44v-36h-71q0 33 -5 56h50v-48h-57
q-60 85 -60 317v12q0 243 158 574q144 229 369 294q244 77 315 77zM357 458h-70v28q-4 32 -4 16h55v-19q0 -6 33 -51q0 -31 85 -85q38 -6 73 -6h4q193 0 344 144q87 93 87 289v51q0 20 3 24l-3 14v85q-33 90 -97 120q-76 30 -122 30q-76 0 -262 -102q-46 -20 -46 -100
q-80 -342 -80 -438zM1248 985h70v-58h-70v58zM87 299v42h-55v-42h55z" />
    <glyph glyph-name="p" unicode="p" horiz-adv-x="1625" 
d="M895 1589q262 0 647 -99q88 -36 115 -114q7 -9 7 -28q0 -6 -1 -11l-3 -37q-6 -70 -159 -212q-73 -138 -395 -388q-317 -219 -492 -285l1 5q-17 -205 -327 -819v-25h-76q5 47 22 96v-23h46l-25 -68h-61q-10 91 -10 102l-2 -5h56l-1 -15h-79q25 80 26 92l-6 -24h53
q-8 -21 -11 -53h-73l2 24q43 0 34 -29h-68l5 58h51l-5 -27l-6 -26h-55q-28 45 -28 162q0 116 17 322q19 217 60 403v-1q0 -21 -17 -21q27 71 35 157h4v-24q0 -21 -12 -21l150 646q-6 0 -6 34v3l3 11l-11 -15l-183 41l5 54h34l-9 -45q-23 0 -35 55q75 23 229 42q32 12 38 23
l-3 -16q15 -7 -31 -7l7 59h28v-45q-24 0 -24 34v2q5 39 539 58zM857 1182q-23 4 -74 4q-2 -23 -66 -336h-38l373 177q192 155 193 179l-4 -16q-43 11 -103 11q-74 0 -281 -19z" />
    <glyph glyph-name="q" unicode="q" horiz-adv-x="1380" 
d="M603 1438l12 -4q-31 0 -31 4q222 0 465 -124q192 -119 261 -311q16 -67 25 -151h15l-18 24q0 -56 -12 -150q10 0 17 -76q0 -201 -332 -566q-7 0 -36 -24q15 -70 6 -66h45v-58h-27v42h21v-38l-19 -19q67 -404 67 -453h-71q0 35 -14 84h48v23l21 -111h-64q-49 74 -95 197
q-12 30 -12 15h55v19q21 -121 81 -351h-69q-35 83 -35 68h54v20q16 -50 16 -108q-105 55 -274 407q-15 23 -74 156q-172 25 -293 103q-175 122 -219 199q-173 206 -173 453h5q0 -46 -5 -46q0 285 256 601q98 81 98 84q0 41 -18 41l18 -24q0 82 187 127q54 9 118 13z
M444 1098q-53 0 -21 -48q-45 -18 -4 -18l-18 24v-22q-26 -19 -43 -39l5 -8q-43 -48 -63 -271v-7q0 -263 221 -362q0 -13 -2 -13q-40 159 -108 380q20 0 20 13l59 -9h-53l19 -20q7 56 50 56l13 -3q14 7 62 7q0 -13 -3 -12q-11 0 17 28q5 0 5 13q134 -21 134 -46
q45 -29 131 -323h-39q86 205 86 391q0 201 -163 289q-163 50 -186 50q-62 -9 -119 -50zM561 98q-17 12 5 12h7v-22q-1 12 15 12h-16q-33 0 -11 -2z" />
    <glyph glyph-name="r" unicode="r" horiz-adv-x="1536" 
d="M268 1744l59 -12q6 -1 10 -1q3 0 15 3l14 -7h7q9 0 49 -10l1 1l86 -7q698 -132 1079 -416q30 -69 30 -110q0 -12 -3 -24q-38 -140 -241 -195q-66 -82 -458 -179l358 -455q188 -209 269 -565q-4 -33 -36 -33q-51 0 -220 405l326 -656l-103 80q-66 107 -66 94v-35l-61 13
q-52 25 -534 508q-179 219 -380 524l35 -5q-125 -454 -307 -808q-33 -63 -130 -303l-68 15l28 102l47 -16l-9 -22l-19 -65l-36 12q-71 14 -101 224q1 96 54 172l31 58q-1 28 25 28q22 0 -34 -195v193q43 0 -258 -839q173 717 173 736v-22q49 0 27 -45l-65 133
q158 431 161 444l-1 -1l50 -14q-44 -144 -120 -338l-49 -91q-33 -39 -57 -39q-37 0 -37 38q0 67 158 444q46 168 100 468q34 117 58 160v-4q0 -18 -17 -14q102 198 160 404q-106 32 -284 208l203 73q38 -5 81 -14zM821 1342v46q30 -5 59 -14l-12 -56q-32 11 -102 13l-69 7
l20 2v10q0 -12 -1 -23l-66 -204q3 0 3 44l-23 4q269 22 320 49q168 40 169 50l-3 -10q-109 46 -319 84z" />
    <glyph glyph-name="s" unicode="s" horiz-adv-x="1288" 
d="M1399 1508v-62l-50 -15v37h-24q20 11 74 11v-46q-45 -41 -229 -166l-16 -15q-34 0 -34 -43q-49 -28 -39 -28v45h-28q27 5 100 5q-94 -109 -347 -302q-72 -44 -81 -52q22 0 372 -133q138 -48 138 -83q-2 0 11 -41q-6 -14 -6 5q10 -2 10 -31v-5q0 -15 -9 -21q4 -6 4 -39
l-14 -8l-1 3v-16q-112 -138 -300 -265q-179 -126 -423 -244q-45 -39 -232 -132q-227 -136 -290 -136q0 50 50 76v-34h33q-27 -13 -51 -32h-47v31q0 32 146 164h70q-96 -42 -153 -42q4 53 57 77v-35h33q-40 -21 -63 -21h-58q70 96 269 263q72 78 358 327l78 87v-28h22
q-212 42 -260 42q-70 -5 -135 -5q-161 0 -189 53q-5 0 5 -10q0 31 -56 31q-24 31 -24 21h55v25q5 -10 5 -52h-45q-70 44 -70 110q0 233 351 427q425 247 570 247h15q32 0 115 -11q135 20 333 66z" />
    <glyph glyph-name="t" unicode="t" horiz-adv-x="1552" 
d="M918 1769q85 0 119 -128q-12 -39 -12 -50q88 -35 88 -119v-7q-5 -26 -5 -8l266 19v-58l-89 -14v41h-26l121 14v-64q-30 0 -42 -5v32q70 0 350 26v-17h41v-29q0 -38 -219 -98q-56 -26 -53 -26v45h-18q8 0 148 13v-58l-77 -14v41h-26l103 13v-50q-91 -60 -526 -191
q-60 -8 -60 -21q-196 -677 -298 -888q-53 -100 -173 -377h-63q0 43 6 51v-27h48l-6 -24h-61l-10 56v43q54 0 54 -9q-82 10 -73 7q-88 -163 -177 -266v90q24 60 24 62v-20h45q-21 -44 -21 -71h-71v79q125 595 255 961q42 162 73 264q3 0 3 -1l4 1h-140q-22 0 -263 -42h-63
q-31 28 -65 28v41v1l-14 15q-45 0 -45 92h36q-12 0 -12 -18l-6 28q0 32 53 51q0 30 59 35q0 7 54 13q0 -18 -18 3q0 27 19 36l2 -4q13 50 62 64q0 19 208 45q251 45 248 44q0 154 65 164q49 165 94 178q29 -6 12 -6q0 14 72 14z" />
    <glyph glyph-name="u" unicode="u" horiz-adv-x="1222" 
d="M1140 1552h12q25 0 32 -10l-7 -4q57 0 88 -110q-223 -696 -238 -916q-51 -268 -102 -372q-17 -27 -66 -190h-66l3 43h50l-1 -3l-5 -40h-61l-14 43h41q-15 -45 -21 -128h-66q-6 46 -6 65q0 10 -2 -8h57q0 -10 -6 -10q0 46 13 46l-13 -46q3 -7 3 -42h-56q-47 54 -47 178
q0 37 1 54h55l-1 -19h-71l2 37h52l-9 -47h-60q-21 66 -21 65q-152 -141 -298 -141h-6q-275 0 -296 390l5 72v2q0 4 -8 17l9 13l-4 25q8 10 8 8q0 -20 -10 -20l21 116l-5 10q71 340 156 596q71 198 120 198h11q35 0 35 2q-7 -1 23 11q17 -8 7 -8l63 30q2 -25 -21 -25
q11 4 53 4q0 -19 73 -34l-2 -18q-5 0 19 -39l-1 -29l10 17q-6 0 -6 -29v-26q-20 0 -18 3l-1 -10q-97 -432 -103 -518l-5 -62q-1 -38 -1 -72q0 -182 17 -193q166 116 167 136l1 9q26 222 36 222v-24q0 -21 -12 -21q49 181 52 187q0 -26 -14 -26q141 517 201 594h48l16 -10
h-27q2 24 52 24q41 0 40 1q-2 -30 49 23h31l21 -15h-21q3 24 45 24zM283 305l1 12v0h-48q1 14 -14 14q9 -16 9 -3v-23h52zM307 206l4 19q-1 16 -47 16l-3 -35h46zM327 168v41q-1 3 -20 8l-3 -37z" />
    <glyph glyph-name="v" unicode="v" horiz-adv-x="1127" 
d="M892 1655h71l-21 -75v25h-45l19 43h57q19 -68 19 -83q0 -24 -37 -240v23h-54q0 -12 54 80h71q-30 -88 -34 -93v28h-43q20 35 20 61h72v-43q0 -3 8 -12q-108 -411 -189 -612q-193 -414 -321 -528q-88 -243 -172 -243l-62 -11q-100 0 -148 74l-15 44l12 3q-5 15 -5 48
q12 0 12 -18v4q0 -18 -12 -18q0 34 18 106q0 27 -9 126q45 3 45 20q0 -33 -17 -133h-68q0 41 -2 54h50v-54h-56q-53 50 -128 368q-6 58 -6 119v115q0 -1 -14 13q14 16 14 13q12 208 12 284h7q0 -46 -22 -46l22 44q0 211 91 211h49v-11q-33 0 -30 10l-6 15q0 80 55 80h11
l-22 7v-41l-27 27l74 23q25 -29 25 -16h-39q25 29 83 29h13l13 -5q4 1 47 1q0 -22 -17 -22q0 4 48 4l92 -72q0 -22 20 -64h4l-18 24v-385q0 -35 9 -134h25l-27 27v-52q0 -18 3 -36h-42q228 497 407 782z" />
    <glyph glyph-name="w" unicode="w" horiz-adv-x="1486" 
d="M1355 1765h67q-10 -92 -15 -98v28h-46q10 28 10 65h72q0 -29 12 -109q0 -517 -255 -1265q-100 -344 -169 -450q-18 0 -7 12l1 -1v-66h-70q-4 45 39 45v17l12 -62h-78q0 40 -97 91v-6h-6q-26 0 -75 26l15 25v-40l23 9h-30q-103 171 -103 181h54v-35h-59q-46 64 -128 242
l31 -13q-34 -94 -254 -325q-22 0 -89 -175q-26 0 -36 -25h-34l-11 4l-36 -5q-123 45 -123 131q0 50 54 155q-42 363 -42 517v25q27 801 97 801l-7 -12l-10 42q39 6 55 40q63 21 96 21l4 -2q5 2 36 2l62 -39q0 -15 28 -53q21 -92 21 -184v-205q0 -126 -6 -356v20h-46
q37 90 118 200q-23 120 -23 176l72 60q48 0 48 10q-12 -5 19 -5q62 -23 80 -40h47v-5h-54v10h72q0 -33 65 -83q85 -93 179 -479h-36q51 171 231 535q54 178 225 648zM825 202v11q6 -52 6 -36h-51l2 16q-11 18 -11 9h54z" />
    <glyph glyph-name="x" unicode="x" horiz-adv-x="1247" 
d="M1337 1589l-8 -45q-24 -31 -12 47q-18 -18 37 -18l-12 -79q-23 -63 -159 -308l4 26h-42l33 39h63l-6 -40l-16 -20h-64q29 37 96 50l-4 -46q-8 -48 -200 -348q-2 -9 -26 -54q180 -581 180 -629h-64l-36 87h39l5 21l37 -114h-67q-59 61 -157 214l13 76q81 -184 254 -684
l-12 -59l-24 21l10 51l24 -50q-13 -16 -17 -38h-45q-85 72 -354 470l-159 201h25q-259 -309 -345 -480q-36 -76 -70 -76h-24l-25 16h30q-4 -33 -70 -33q-69 16 -190 113q0 38 -24 70q14 19 12 8l-42 32l3 29q6 27 -9 27l10 -18l2 13q8 56 529 660h-23l-150 302l-7 58
q27 0 22 -7q-122 204 -122 227v5q34 76 68 76l-5 -23q-4 7 -4 17v27q11 0 14 20l38 -17l14 6q20 -9 -3 -9q4 11 37 11h14q30 0 37 -14l30 3l19 -2q1 8 24 8l-1 8q37 52 63 52h75q140 0 259 -299q121 132 423 419h55z" />
    <glyph glyph-name="y" unicode="y" horiz-adv-x="1317" 
d="M1347 1707v-27q0 17 -23 17l19 5q101 0 101 -147v-14l-27 -38l-12 -26q5 -26 5 -50q0 -31 -10 -51q-16 -34 -445 -631q-348 -531 -522 -706q-209 -271 -234 -326h-88l4 10q48 5 55 19q1 -2 1 -10q0 -7 -11 -29h-52q-55 61 -55 122q0 28 8 54v9q0 102 62 235l32 69
q108 198 116 213l7 14q8 22 24 22q-15 -15 -15 -23q0 -22 -30 -22l51 70l18 40l7 43h-3l-11 44h38l5 14q-17 -73 -32 -103h-68l4 45h43l2 4l-11 -54h-56q-42 42 -218 525q-13 87 -13 153q0 102 29 163q17 36 109 67q20 -7 7 -7q12 16 103 37q16 -7 15 -7q17 17 74 33l13 -8
h30h21q56 -12 77 -40q67 0 99 -420q0 -89 -33 -89q298 465 354 544h49l-9 3q2 5 83 27q136 207 212 207l6 -2q11 22 95 22z" />
    <glyph glyph-name="z" unicode="z" horiz-adv-x="1421" 
d="M1443 1536l48 -78q-25 0 -25 45q4 0 4 -28v23q-30 0 49 41v-57l-1 -1l-51 26q-1 -4 31 -4h40l-7 -37l-60 -126q-14 0 -72 -61q-59 -87 -165 -213q-80 -87 -69 -20l123 90l-16 -81l-36 -36h-71q27 23 130 92l-15 -73q-35 -70 -223 -280q-180 -222 -391 -430h-66
q410 155 581 155q0 1 305 46l-6 -59q-82 -22 -67 -22l9 45h-23q40 10 87 10l-8 -40q-51 -58 -163 -96l7 38h-36q62 21 106 21v-40l-33 -27h-68q35 10 86 10l-6 -52q-99 -34 -84 -34l9 45h-31q23 8 109 31l-5 -59q-137 -89 -171 -89q-432 -206 -633 -266q-309 -107 -517 -146
h-11q-53 6 -44 2q-49 -59 -105 -59l6 33q2 12 -73 -120q120 123 68 66h-58q5 40 8 47q57 0 43 -31h-70q34 119 33 118q11 0 -15 68q40 18 26 18l3 18q99 75 107 75l134 200l83 49h-49l8 40l53 60v-62l-70 -56l8 80q40 83 295 389q119 164 204 250h64q-120 -44 -608 -90l6 63
q32 0 49 4l-7 -39h26l-71 -10l5 52q101 70 115 70l-9 -45h19l-61 -11v45q53 50 125 72l-6 -34l-38 6l-59 -6q-86 0 -94 37q-14 0 -14 32v28q20 0 -5 -35q14 0 14 33v14l55 41q-44 0 -94 70l-9 -13q6 0 6 34v3q4 16 13 22q2 -5 2 4v13q83 73 480 128q151 11 237 11h5
q77 0 326 -39q11 15 74 44h42q14 -21 41 -21q-3 0 182 69z" />
    <glyph glyph-name="braceleft" unicode="{" 
 />
    <glyph glyph-name="bar" unicode="|" 
 />
    <glyph glyph-name="braceright" unicode="}" 
 />
    <glyph glyph-name="asciitilde" unicode="~" horiz-adv-x="1785" 
d="M549 1480h20q26 0 54 -39l9 13h-45l60 8q49 -54 115 -84v19l-23 -9q39 0 241 -170q47 -25 59 -25q-3 0 206 171q95 27 202 78v-54q-6 -10 -6 35l-20 -10h46v-37l5 8l-31 12q76 41 176 67q0 -33 18 -44q-105 -297 -226 -363q-64 -46 -110 -74l-2 3v-37q-47 0 -126 -45
q-58 25 -58 7l13 8h-24l13 -8q0 14 -107 -6q-32 32 -32 9l20 10h-54l10 35q-179 62 -334 160h11q-63 -32 -262 -205q-30 0 -61 20q-11 -5 -37 -5h-21l-20 10h4l-91 -51h-66l13 20h74q0 -10 -43 -10h-37v32q13 56 34 91h50q-92 -46 -189 -46l26 26h66l-19 -11h-46v31
q0 38 153 195q16 55 238 205q90 60 154 60z" />
    <glyph glyph-name="exclamdown" unicode="&#xa1;" horiz-adv-x="672" 
d="M441 1180q-40 15 -40 12q56 0 56 -10q-55 10 -54 10l-8 -4q-58 0 -58 10l30 15h-16q-50 12 -50 75q0 144 99 256q44 13 96 62l9 -18l5 3q31 -47 21 -47q58 45 106 45v-34q-4 -8 -4 18q-52 0 -52 12h64l8 -44q0 -49 8 -136q-37 -135 -63 -163q-1 0 -1 -14l-68 -34v31h18
q22 0 22 -12h-65q-2 17 15 17q14 0 14 -33h-59q-18 16 -7 16h26v23l6 -34q-35 -22 -58 -22zM266 -141h-32q-26 20 -19 20q-17 -16 -69 -16h-34q0 13 45 13q-1 -7 -65 -7q0 17 29 17l-53 -8q0 16 27 12l-3 -6q-72 6 -72 -7l-16 -7q0 19 -21 19l14 25l-53 38q57 7 40 -26
q-2 0 -8 64q0 73 213 912l139 358h60v-29l-4 -30v22h-48v34h61q15 -49 15 -59v-49q24 -55 24 -125v-128q0 19 -44 19l48 137h60q0 -34 -12 -84v24h-49l16 50h61q0 -32 4 -75q-52 -500 -121 -746q-31 -113 -67 -335q-33 0 -44 -16z" />
    <glyph glyph-name="cent" unicode="&#xa2;" horiz-adv-x="1242" 
d="M654 1485h38l376 -73q349 -90 424 -169q68 -86 68 -123q0 -7 15 -33q-31 -12 -31 2q6 -10 6 -30l-37 -37h-54v11h54v15q6 -64 6 -78q-27 -56 -73 -82h-40q-39 0 -48 8q3 2 -49 2q0 16 -1 16q30 0 30 -14q-154 40 -257 40h-3l-68 -10v-7l26 12h-12q-197 0 -468 -118
q-80 -124 -80 -208v-25q10 -167 18 -167q106 -41 221 -41q12 0 192 41q173 0 678 218q1 5 131 67l26 -57q-170 -87 -141 -87l-3 5q-33 -18 -33 14h-26l212 81v-52q-20 -23 -172 -87l12 22h-48q60 28 136 53v-55l-70 -39h-93q61 16 219 96v-55q-22 -34 -103 -67v36h-32
q118 46 219 46l-37 -31h-78q14 11 78 11q0 -59 -230 -259q-65 -64 -282 -180q-86 -33 -438 -111v-11h-35q-187 0 -468 144q-128 111 -189 204q-85 54 -85 219q-25 50 -25 118v31q0 207 181 392h-11v-45h32q-103 -40 -223 -137q0 44 50 44q0 5 -89 -57l-28 56
q130 115 240 218q23 19 -5 19l8 -13q40 52 118 94v-33h28l-44 -23l-27 60q348 157 497 157q0 6 67 9v-37q-122 30 -170 30v60zM221 964q-23 -15 -38 -15v-46h34q-11 -6 4 61zM1441 2226q38 -34 38 -57q0 -7 6 16h-58q3 13 45 13q34 -18 34 -37v-26q-9 0 0 45q5 0 7 -53
q4 0 4 -28v-4l-5 -24q-6 -26 1 -26l-3 15q-43 -120 -61 -156v4q0 22 14 22q-442 -1139 -829 -1837q-3 -1 -72 -127h-70l51 113l-7 -28h54q-97 -211 -302 -630h-79q29 43 49 103l-7 -27h54q-15 -33 -20 -63h-68q6 40 6 78l56 204l-1 21q8 14 18 41l-5 -26h52q-17 -40 -46 -40
h-40l4 17h51q-22 -36 -25 -62h-76l26 67q55 0 38 -49h-64q5 42 5 50q0 -14 -12 -14q248 760 398 1092q154 423 312 757q83 189 106 297h-7l4 -17q4 25 31 34l11 47l41 -37h-26l68 94q11 0 22 9h30q35 -5 35 -32v29l-12 -2h26q15 -26 0 -26l19 9q13 -9 -4 -9q21 28 78 182
q28 32 47 32h-5q-1 -3 63 46z" />
    <glyph glyph-name="sterling" unicode="&#xa3;" 
 />
    <glyph glyph-name="currency" unicode="&#xa4;" 
 />
    <glyph glyph-name="yen" unicode="&#xa5;" horiz-adv-x="1242" 
d="M1332 1852l27 -19h-33v9h33h21h51v-30q0 -4 27 -9q-4 -26 -4 -29q0 -9 3 -26q-15 -37 5 -37l-3 5q-2 -17 5 -1l30 27h48v-37l-30 -38v64l-3 -3h56l-16 -53l1 2q1 -3 33 -10q-124 -262 -282 -442q-153 -219 -295 -467q-59 -207 -362 -1835l-16 341l-56 -180l-74 264
l145 323l-292 -936l73 459l-28 -33h57l-154 -60l114 165l44 272q10 51 10 63q0 -19 29 -19q16 0 129 313l-124 -236l-22 31q3 27 10 52v-24h50l-31 -143l-167 -438q60 348 60 385q0 34 -8 63l91 563q13 141 157 615q-210 159 -364 322q-305 350 -337 401v12q2 22 8 24
q-3 5 -3 30v19q32 21 50 75q21 0 19 -19l-10 22l44 26q48 0 48 -35v21h-36q1 14 72 14q-4 -32 -4 -35q0 6 -22 6h-22q2 15 48 15l-5 1v8h43l84 8q0 -21 -5 -18l3 1h18q43 0 308 -292q136 -156 216 -339h-21q139 199 180 314q26 45 74 70q206 359 241 407z" />
    <glyph glyph-name="brokenbar" unicode="&#xa6;" 
 />
    <glyph glyph-name="section" unicode="&#xa7;" 
 />
    <glyph glyph-name="dieresis" unicode="&#xa8;" horiz-adv-x="1024" 
d="M795 2059l-1 2l-11 -7h55q1 -28 -43 -28q0 6 65 6q0 -23 71 -74v-22q0 -35 2 -35q6 -13 15 -48l-15 -30q3 -7 3 -32l-57 -26l-3 8q13 8 41 8l-8 18v-13l-20 -45l-35 19h16q-67 -60 -146 -60q0 19 13 12l-40 -18q0 45 -52 58q-25 25 -42 62q-14 0 -14 34l-8 -18q3 0 3 41
q0 125 170 188h41zM269 2050q0 -26 -39 -6q-1 -7 37 -7h5q41 0 41 -27q-28 0 -11 12l17 -10q13 4 34 4q82 0 100 -115l12 -18v-37h-71v-18q11 8 11 11l6 -40l-87 -93v-28h-52q-35 0 -35 -11l-13 -5q-71 4 -109 49h-32l18 40v-19q-22 0 -22 68q6 11 6 -3q12 -5 -17 -5v42
l-11 -15q13 0 4 64l5 3l2 -3v10q0 116 201 157z" />
    <glyph glyph-name="copyright" unicode="&#xa9;" horiz-adv-x="1674" 
 />
    <glyph glyph-name="ordfeminine" unicode="&#xaa;" horiz-adv-x="874" 
d="M843 1743q4 -16 -18 -16q9 3 29 3q67 -39 67 -115v-8q-55 -366 -57 -414q22 5 63 5q0 -45 85 -14h-143q19 6 103 6q-58 -56 -121 -84q-7 -69 -8 -120h-4q0 48 8 48q-65 -413 -65 -451h-69v30q0 12 -1 16h52l-1 -46h-69v8q46 0 44 -48h-66l-3 32h52l-1 -30h-55
q-33 44 -49 92h47l-1 -8h-67l1 43h52l-2 -9v-26h-60q-27 61 -27 146q0 16 0 7h51v-8h-77l14 47l-1 -4h55q1 15 -15 -37h-63v32q0 8 -8 27q15 151 13 126q-139 -64 -216 -69q-78 -92 -155 -138l-64 2h-14l-25 -6q-22 26 -22 3l14 5q-67 52 -67 82v9q4 99 411 522
q26 34 233 235q3 80 130 80l26 -30l17 19h-69q1 14 60 40q17 -5 -14 -5q0 -4 70 21zM668 1556q0 14 -20 -12v30h-55q0 -8 19 8l-1 -26h57zM643 1293l-126 -156q-16 -4 31 3v-16l41 196l-8 -27h62z" />
    <glyph glyph-name="guillemotleft" unicode="&#xab;" horiz-adv-x="631" 
 />
    <glyph glyph-name="logicalnot" unicode="&#xac;" 
 />
    <glyph glyph-name="registered" unicode="&#xae;" horiz-adv-x="1674" 
 />
    <glyph glyph-name="macron" unicode="&#xaf;" horiz-adv-x="1681" 
d="M1070 2095h69q63 0 341 -18v-56h-44v42h38v-49q-76 -28 -280 -75v40h1q49 0 204 -5q0 -7 19 -7v-51q-204 -59 -187 -59v44l31 2h37v-53q-73 -13 -56 -13v46h-1l64 8v-54q-442 -154 -751 -172q-388 -32 -474 -32l-20 6q-6 -2 -34 -2l-44 57l4 6q-18 17 -18 49q70 54 99 54
h-61l20 -19q34 79 8 79q21 -21 21 24h19v-26l-19 17q22 38 69 59q0 23 268 58l510 84q126 16 167 16z" />
    <glyph glyph-name="degree" unicode="&#xb0;" horiz-adv-x="674" 
d="M330 1919h12q48 0 193 -60q149 -117 149 -217q0 -119 -68 -189q-5 0 -50 -66q-129 -118 -260 -118h-8q-75 0 -193 79q-89 93 -89 222q0 204 172 292q44 4 91 44q25 13 51 13zM255 1544q0 -5 85 -35q51 12 111 61q27 0 27 37q-32 24 -149 88q-60 0 -74 -151z" />
    <glyph glyph-name="plusminus" unicode="&#xb1;" horiz-adv-x="1334" 
d="M735 1337h48v-35q-5 -8 -5 19q-50 0 -50 12h65q15 -65 25 -169q-10 -98 -21 -127q128 32 211 32q13 0 56 -4q56 4 140 4v-54l-25 -4v42h25v-38q-54 -51 -268 -152h12v46h30v-35l14 23h-44q7 0 110 12v-55q-57 -15 -35 -15v46h-27l30 4h76q-107 -97 -337 -198
q-28 0 -28 -50q-41 -139 -66 -274q-51 -68 -106 -68l-10 4q32 0 32 -4q-114 0 -129 52h41l-15 -40h-67q11 69 15 75v-27h46q-2 -4 -2 -32h-35q-40 0 -40 20h34l-15 -8h-44v-13l24 13q-52 0 -74 193q5 64 5 117q5 0 5 -46q-5 0 -5 -1q-140 -22 -181 -35q-85 0 -112 54l-22 30
l5 9l-1 2v4l-24 13l14 23v-10l-40 42q55 7 55 -12l-12 47q29 0 27 -2v-3l27 11h-17q-25 0 -47 33v-1q-3 0 -3 33q0 57 105 96q100 21 285 46q21 103 21 101q-10 0 -10 12h32l-30 -12l-27 43q116 138 144 155q81 44 197 44q3 -14 -6 -10zM517 417v-58h-65v58h65zM735 827h48
v-35q-5 -8 -5 19q-50 0 -50 12h65q15 -65 25 -169q-10 -98 -21 -127q128 32 211 32q13 0 56 -4q56 4 140 4v-54l-25 -4v42h25v-38q-54 -51 -268 -152h12v46h30v-35l14 23h-44q7 0 110 12v-55q-57 -15 -35 -15v46h-27l30 4h76q-107 -97 -337 -198q-28 0 -28 -50
q-41 -139 -66 -274q-51 -68 -106 -68l-10 4q32 0 32 -4q-114 0 -129 52h41l-15 -40h-67q11 69 15 75v-27h46q-2 -4 -2 -32h-35q-40 0 -40 20h34l-15 -8h-44v-13l24 13q-52 0 -74 193q5 64 5 117q5 0 5 -46q-5 0 -5 -1q-140 -22 -181 -35q-85 0 -112 54l-22 30l5 9l-1 2v4
l-24 13l14 23v-10l-40 42q55 7 55 -12l-12 47q29 0 27 -2v-3l27 11h-17q-25 0 -47 33v-1q-3 0 -3 33q0 57 105 96q100 21 285 46q21 103 21 101q-10 0 -10 12h32l-30 -12l-27 43q116 138 144 155q81 44 197 44q3 -14 -6 -10zM512 -143v42h-55v-42h55z" />
    <glyph glyph-name="uni00B2" unicode="&#xb2;" horiz-adv-x="1205" 
d="M797 1769q192 0 346 -264q25 -73 31 -146l-6 -13q0 4 6 -7q0 -223 -380 -728l-157 -242v25h-29q110 23 233 35h38q32 6 124 6q83 -18 100 -18q24 0 417 82v-61l-58 -17v37h-23l75 21v-47q-44 -55 -224 -168l27 21h10q-65 -82 -284 -180q-63 -33 -294 -132
q-219 -131 -323 -131q-196 -130 -387 -161q0 20 -57 43v14h-11q-45 0 -46 29h53q0 -18 -56 -18q-56 57 -56 83q0 7 -9 23q9 16 9 -2q-23 0 -23 37v42h46l-23 15v-47l-7 48q95 113 180 233q78 82 179 248q92 93 269 412q234 425 234 620q0 11 3 10q-153 -141 -169 -235
q-39 -104 -70 -315q-63 -77 -157 -91q0 25 24 13q1 2 1 -32l-28 6v-5h-91q-18 18 -60 25q-60 67 -60 133v10q-23 0 -23 2l28 15q-48 0 -74 91q0 345 404 611q90 64 272 64q0 6 76 6z" />
    <glyph glyph-name="uni00B3" unicode="&#xb3;" horiz-adv-x="1785" 
d="M1545 1873q49 0 94 -42v-22l-16 -21v9l26 -32v-14l-1 -3q6 -1 6 -46l-21 -11q0 34 6 34q0 -85 -297 -379l-27 -34q87 0 183 34q47 -18 159 -46q94 -39 127 -137q66 -50 66 -151v-31q0 -283 -420 -657q-394 -352 -681 -455q-286 -133 -529 -190v68q35 0 79 18v-47
q2 1 -74 -9v65q28 0 108 63q10 0 125 67v-32h34q-26 -17 -177 -86v57l9 8h77q-56 -32 -102 -32v38q55 66 51 62q28 0 28 47q41 16 30 -10h45q-21 -10 -109 -10q98 98 281 222q108 109 585 533q143 151 160 267l23 -11q-1 -1 -52 -1v-12l26 12h-39q-108 0 -214 -55
q-102 -34 -168 -50q0 -3 -55 -27h-33q-27 0 -34 4q-41 -4 -144 -28v7q-34 -10 -55 -10q-8 0 -152 33v30l-12 -21q2 0 2 31q0 12 17 34q-1 2 -1 44q21 0 14 -8h58q-65 -21 -109 -21v60q29 0 8 -29h55l-74 -30v45q0 29 263 256q101 74 123 106l28 31h64q-214 -125 -663 -247
v61l32 11v-37h28l-213 -44v59l42 16v-36h30q-40 -11 -78 -11v37q31 47 170 132v-37q-65 -13 -107 -47h-36l-85 -8q0 13 20 13h-62v61h10v-45h50q0 -5 -65 -5v37l-5 -6q20 0 20 46q34 15 16 15v-45h-10v43l29 19q-35 8 -35 42l-11 -19q10 0 1 42q-16 0 -16 45l-13 -13h24v32
q8 39 134 80q6 44 74 44v-11h-55v-39q-5 0 -5 55h43q52 -26 37 -26q11 18 164 46q566 149 779 149q302 106 392 106z" />
    <glyph glyph-name="acute" unicode="&#xb4;" horiz-adv-x="722" 
d="M933 2237q-50 -43 -57 -44q0 42 -26 42q-5 0 118 41q-121 -107 -123 -139q-83 3 -83 -9q6 2 6 9l2 6l16 -15q-272 -248 -272 -300q0 4 3 4q23 0 114 28l-1 -13l-37 -8l93 50l-18 -71q-104 -66 -104 -65q0 23 -26 23q-4 0 9 4q14 -8 13 -8q13 0 -160 -251q122 129 121 117
l8 33l-31 -6q6 2 6 13l70 14q0 -56 -10 -58v19q0 20 -21 20h1l3 1l162 93q-14 -70 -23 -79l4 36q-38 -8 73 75q179 114 180 120q166 97 484 281l-241 7v29q0 15 -34 15h-41v26q0 -3 4 -4l-15 -3l-56 -24v42q0 -14 15 -14q-2 0 1 0l-48 -27q-73 10 -73 -16q15 10 -6 6z" />
    <glyph glyph-name="mu" unicode="&#xb5;" horiz-adv-x="0" 
 />
    <glyph glyph-name="paragraph" unicode="&#xb6;" horiz-adv-x="1024" 
 />
    <glyph glyph-name="periodcentered" unicode="&#xb7;" horiz-adv-x="508" 
d="M185 1031q38 -14 38 -10q-57 0 -57 10q52 -10 49 -10l7 3q55 0 55 -5l-31 -16h16q46 -11 46 -67q0 -124 -86 -221q-38 -11 -86 -56l-9 16l-4 -2q-26 41 -14 41q-49 -38 -96 -38v33q3 7 3 -19q54 0 54 -10h-63l-8 41q0 41 -7 115q33 116 57 143q-2 0 -2 10l67 33v-29h-20
q-23 0 -23 10h64q2 -14 -17 -14q-17 0 -17 28h57q15 -14 4 -14h-27v-23l-5 30q33 21 55 21z" />
    <glyph glyph-name="periodcentered" unicode="&#x2219;" horiz-adv-x="508" 
d="M185 1031q38 -14 38 -10q-57 0 -57 10q52 -10 49 -10l7 3q55 0 55 -5l-31 -16h16q46 -11 46 -67q0 -124 -86 -221q-38 -11 -86 -56l-9 16l-4 -2q-26 41 -14 41q-49 -38 -96 -38v33q3 7 3 -19q54 0 54 -10h-63l-8 41q0 41 -7 115q33 116 57 143q-2 0 -2 10l67 33v-29h-20
q-23 0 -23 10h64q2 -14 -17 -14q-17 0 -17 28h57q15 -14 4 -14h-27v-23l-5 30q33 21 55 21z" />
    <glyph glyph-name="cedilla" unicode="&#xb8;" horiz-adv-x="1024" 
 />
    <glyph glyph-name="uni00B9" unicode="&#xb9;" horiz-adv-x="924" 
d="M664 1873q61 0 80 -34q62 0 62 -18l-20 -11l31 -15q28 16 54 16h23q50 -72 87 -72q14 -28 7 -28q32 -10 53 -61q0 -34 -2 -34l2 -14q0 -55 -299 -631q-159 -397 -444 -831q-40 -86 -157 -248v99l-30 -107q-25 -33 -228 -387v121q0 11 22 71v-23h46q-19 -42 -19 -67h-71
v42q0 30 -8 30l8 -18q0 51 156 551q0 146 339 801l91 207h41q-135 -73 -222 -73l11 17h56q-88 -67 -123 -67h-17q-29 0 -34 11l13 6q-60 0 -73 46l-10 -13q1 0 -11 73q12 28 19 35l-4 10l137 183q0 27 269 366q40 50 118 50q26 -30 26 -22h-35z" />
    <glyph glyph-name="ordmasculine" unicode="&#xba;" horiz-adv-x="916" 
d="M536 1733h38q107 0 190 -122q21 -15 48 -91q28 -20 48 -97h31l-25 -36q0 29 25 29l-25 -36v-23q0 -40 -6 -94l20 -61q0 -100 -144 -272l-95 -72l-11 3q-138 -69 -216 -69v51l17 3v-44h30q-59 -12 -116 -12q-190 0 -305 175h45v-21h-67q0 28 -2 33h52v-29h-53
q-45 58 -45 201v7q0 148 105 349q98 142 250 181q162 47 211 47zM246 1080h-67v26q-2 19 -2 0h56v-1q0 -1 22 -28q0 -16 49 -44q22 -3 45 -3h3q123 0 220 83q54 53 54 166v31q0 15 1 17l-1 4v51q-20 48 -57 64q-48 18 -77 18q-48 0 -169 -60q-24 -10 -24 -53
q-53 -205 -53 -271zM813 1416h67v-55h-67v55zM68 984v46h-57v-46h57z" />
    <glyph glyph-name="guillemotright" unicode="&#xbb;" horiz-adv-x="631" 
 />
    <glyph glyph-name="onequarter" unicode="&#xbc;" horiz-adv-x="1883" 
d="M449 2350q41 0 52 -14q42 0 42 -1l-23 -10q19 -8 14 -8q16 7 33 7h18q28 -30 50 -30q8 -12 -2 -12q26 -6 42 -37q0 -32 2 -32l-2 10q0 -29 -169 -273q-90 -168 -250 -351q-23 -37 -111 -130v79l-38 -100q29 28 -107 -149v90q0 6 12 32v-27h46q-4 -7 -4 -28h-66v32
q0 27 -15 27l15 -26q0 28 87 238q0 64 192 341l38 66h49q-75 -31 -156 -31l6 7h64q-49 -28 -72 -28h-9q-24 0 -25 2l15 5q-43 0 -59 37l-23 -23q24 0 14 47q10 20 6 17l-1 2l80 81q0 11 156 159q27 24 78 24q24 -20 24 -9h-34zM1448 2037q25 -34 25 -50q0 -12 5 -1l-50 17
q2 3 26 3h13q30 -22 30 -39q0 -10 -17 -27h-15q17 0 36 38q-6 2 -6 -30q0 -16 -2 -26q-1 0 -1 -19q0 -10 -5 -15l-10 -18q-11 -17 -32 -17h29v10q-72 -107 -102 -142q5 5 5 13q0 15 17 9q-710 -988 -1258 -1566q-3 -1 -104 -108l-67 17l77 95l-11 -24l48 -12
q-145 -180 -449 -535l-75 19q39 34 72 85l-10 -21l47 -16q-20 -25 -33 -54l-67 17q18 34 26 71l105 185l7 22q11 10 25 32l-8 -22l47 -11q-22 -29 -46 -29h-5l-40 10l8 16l46 -12q-27 -28 -38 -54l-73 18l35 48h52q8 0 -23 -46l-60 15q18 46 18 49q0 -22 -21 -22
q436 684 664 967q254 371 491 655q128 162 178 263l-9 3v-20q13 26 39 26l24 51l31 -54l-25 6l85 71h14q-1 0 16 7l30 -8q22 -13 22 -30q0 -7 14 21h-20l25 -6q9 -31 -5 -27l24 5q9 -14 -10 -9q27 22 121 157q32 20 46 20h6l-3 1q-1 -3 71 28zM1604 1227q37 0 37 -20h-5
q40 0 40 -75l3 10v-26q0 -29 -202 -361l-9 -19h-41q69 12 113 12v-52q-32 -5 -32 34h-31q27 6 111 6q-61 -51 -61 -19h-27l103 19v-55q-51 -17 -29 -17v47h-31q24 6 63 6v-36q-39 -44 -157 -102q-93 -53 -93 -50q-213 -408 -356 -613q-133 -177 -182 -209q-19 44 -19 7
l32 16h-41q0 33 -3 46q9 49 56 167v-26h47q-37 -71 -113 -143v78q12 22 9 14q55 0 35 -44h-57q0 67 87 295q44 142 141 312v-36q-108 -33 -154 -33q-43 0 -69 45q8 11 8 -13q22 0 5 -5l-14 3q-38 -14 -65 -14q-34 0 -50 32v14l-12 -24q6 0 -13 44l5 7l-2 2q0 20 26 54
l229 345q44 53 113 167q106 149 154 189q26 -24 3 -24l12 10h39l7 -7q7 7 63 7q1 -7 -32 -7l18 12q52 -25 52 -68q-3 0 -3 36l-24 12q-2 -1 43 -1v-34q5 -4 11 -79q-13 0 -25 -38q-9 0 -2 10v1v-15q-217 -289 -272 -353l-13 -14h-59q151 60 212 60q148 249 300 461l24 20h29
h-1q34 32 69 32z" />
    <glyph glyph-name="onehalf" unicode="&#xbd;" horiz-adv-x="2367" 
d="M395 2250q42 0 51 -14q37 0 37 7l-26 -16q19 -10 11 -10q14 7 30 7h19q24 -30 43 -30q7 -12 -2 -12q23 -8 37 -37q0 -32 2 -32l-2 10q0 -28 -144 -272q-78 -168 -214 -350q-20 -37 -105 -140v86l-36 -115q38 46 -88 -145v102q0 6 11 32v-27h47q-3 -6 -3 -28h-65v32
q0 27 -10 27l10 -24q0 26 75 236q0 63 164 340l33 67h48q-65 -31 -139 -31l5 7h61q-43 -28 -64 -28h-8q-25 0 -25 1l17 6q-44 0 -54 37l-20 -23q20 0 10 47q10 19 8 17l-1 3l67 79q0 11 133 158q23 26 75 26q21 -21 21 -9h-36zM1548 2037q25 -34 25 -50q0 -12 5 -1l-50 17
q2 3 26 3h13q30 -22 30 -39q0 -10 -17 -27h-15q17 0 36 38q-6 2 -6 -30q0 -16 -2 -26q-1 0 -1 -19q0 -10 -5 -15l-10 -18q-11 -17 -32 -17h29v10q-72 -107 -102 -142q5 5 5 13q0 15 17 9q-710 -988 -1258 -1566q-3 -1 -104 -108l-67 17l77 95l-11 -24l48 -12
q-145 -180 -449 -535l-75 19q39 34 72 85l-10 -21l47 -16q-20 -25 -33 -54l-67 17q18 34 26 71l105 185l7 22q11 10 25 32l-8 -22l47 -11q-22 -29 -46 -29h-5l-40 10l8 16l46 -12q-27 -28 -38 -54l-73 18l35 48h52q8 0 -23 -46l-60 15q18 46 18 49q0 -22 -21 -22
q436 684 664 967q254 371 491 655q128 162 178 263l-9 3v-20q13 26 39 26l24 51l31 -54l-25 6l85 71h14q-1 0 16 7l30 -8q22 -13 22 -30q0 -7 14 21h-20l25 -6q9 -31 -5 -27l24 5q9 -14 -10 -9q27 22 121 157q32 20 46 20h6l-3 1q-1 -3 71 28zM1585 1186q152 0 280 -136
q22 -40 28 -84l-5 -7q0 9 4 3q0 -121 -308 -378l-121 -116v31h-28q88 11 186 17q35 0 35 1q20 2 92 2q67 -9 82 -9q20 0 339 42v-55l-46 -8v42h-24l65 10v-42q-41 -34 -186 -90l67 35h-6q-83 -66 -259 -115q-51 -17 -235 -66q-175 -65 -258 -65q-157 -65 -315 -81
q0 12 -45 23v6h-3q-41 0 -42 14h54q0 -9 -50 -9q-52 34 -52 54q0 -2 -14 12q14 14 14 -14q-18 0 -18 31v34h41l-23 10v-40l-8 31q83 62 152 123q62 40 143 123q73 47 213 205q184 208 184 300q0 -6 7 -7q-117 -68 -128 -111q-31 -52 -58 -161q-56 -42 -135 -51q0 16 25 9
q7 7 7 -17l-23 3v-2h-77q-14 9 -48 12q-56 38 -56 79v-7q-18 0 -18 -1l27 9q-39 0 -64 56q0 185 332 320q71 32 209 32q0 3 67 3z" />
    <glyph glyph-name="threequarters" unicode="&#xbe;" horiz-adv-x="2720" 
d="M927 2034q36 0 68 -32v-19l-9 -13v11l15 -19v-12l1 6q2 -1 2 -39l-12 -7q0 35 3 35q0 -65 -180 -243l-4 -5q28 0 88 21q32 -11 100 -29q62 -26 82 -86q41 -31 41 -96v-18q0 -174 -255 -401q-239 -213 -412 -275q-173 -81 -335 -119v64q30 0 47 7v-50q17 7 -44 -1v60
q24 0 72 38q7 0 68 36v-35h36q-13 -8 -122 -58v55l-12 -9h80q-33 -20 -78 -20v36q36 43 17 24q31 0 31 45q26 10 15 -22h45q-13 -6 -94 -6q76 76 186 150q63 65 350 319q83 88 92 149l27 -14q3 2 -43 2v-13l30 13h-26q-61 0 -123 -32q-62 -21 -94 -29l-43 -19h-22
q-20 0 -24 2q-20 -2 -95 -19v3q-6 -2 -21 -2q-6 0 -103 22v27l-12 -24q6 0 6 29q0 10 8 21q1 -1 1 36q19 0 -3 -25h62q-39 -13 -81 -13v56q23 0 -3 -37h56l-59 -24v43q0 21 161 161q59 43 72 62l3 3h66q-127 -74 -413 -153v57l19 7v-38h30l-141 -30v55l25 10v-38h32
q-24 -7 -61 -7v36q22 31 102 80v-40q-21 -4 -47 -25h-26l-64 -6q0 9 24 9h-49v57h6v-47h54q0 -3 -63 -3v36l-16 -18q25 0 25 44q30 13 10 13v-47h-6v40l3 2q-7 2 -7 32l-13 -23q15 0 9 25q-11 0 -11 41l-22 -22h28v30q6 30 81 55q4 29 68 29v-7h-57v-43q-3 0 -3 53h41
q31 -16 12 -16q6 10 103 27q340 90 467 90q182 64 238 64zM2148 2037q25 -34 25 -50q0 -12 5 -1l-50 17q2 3 26 3h13q30 -22 30 -39q0 -10 -17 -27h-15q17 0 36 38q-6 2 -6 -30q0 -16 -2 -26q-1 0 -1 -19q0 -10 -5 -15l-10 -18q-11 -17 -32 -17h29v10q-72 -107 -102 -142
q5 5 5 13q0 15 17 9q-710 -988 -1258 -1566q-3 -1 -104 -108l-67 17l77 95l-11 -24l48 -12q-145 -180 -449 -535l-75 19q39 34 72 85l-10 -21l47 -16q-20 -25 -33 -54l-67 17q18 34 26 71l105 185l7 22q11 10 25 32l-8 -22l47 -11q-22 -29 -46 -29h-5l-40 10l8 16l46 -12
q-27 -28 -38 -54l-73 18l35 48h52q8 0 -23 -46l-60 15q18 46 18 49q0 -22 -21 -22q436 684 664 967q254 371 491 655q128 162 178 263l-9 3v-20q13 26 39 26l24 51l31 -54l-25 6l85 71h14q-1 0 16 7l30 -8q22 -13 22 -30q0 -7 14 21h-20l25 -6q9 -31 -5 -27l24 5
q9 -14 -10 -9q27 22 121 157q32 20 46 20h6l-3 1q-1 -3 71 28zM2522 1138q38 0 38 -20h-1q41 0 41 -75l3 11q1 0 1 -27q0 -30 -236 -362l-10 -18h-42q80 12 125 12v-52q-37 -5 -37 34h-29q31 6 120 6q-68 -52 -68 -19h-26l114 18v-55q-56 -16 -33 -16v47h-31q28 6 68 6v-37
q-45 -44 -183 -102q-109 -53 -109 -50q-249 -409 -416 -613q-156 -177 -201 -205q-23 40 -23 7l30 13h-41q0 33 -4 47q11 49 66 167v-27h45q-44 -73 -122 -135v71q14 22 11 13q54 0 32 -44h-57q0 67 100 296q52 143 165 311v-34q-132 -35 -184 -35q-47 0 -75 44q8 12 8 -12
q20 0 1 -5l-17 4q-44 -15 -75 -15q-35 0 -53 31v16l-17 -25q11 0 -14 44l6 7l-1 2q0 21 31 55l267 346q51 52 132 166q124 150 174 186q27 -22 7 -22l15 10h38l10 -9q13 9 67 9q2 -7 -26 -7l18 11q55 -22 55 -67q-4 0 -4 38l-24 9h47v-33q6 -4 14 -80q-16 0 -29 -38
q-12 0 -3 10l-1 2v-17q-253 -289 -317 -353l-14 -13h-63q176 60 251 60q172 250 350 463l25 18h28l3 -3q42 35 80 35z" />
    <glyph glyph-name="questiondown" unicode="&#xbf;" horiz-adv-x="929" 
d="M214 -137q-23 0 -61 14q-54 -5 -96 -5h-18q-126 13 -126 94q0 10 3 22l3 13q30 60 50 60q7 49 8 58q24 102 51 183q-1 3 -1 19q7 7 6 1q-2 3 -2 36h12l-3 -18l-3 39q20 0 50 47q113 160 215 266q106 81 120 156q6 27 114 211l1 2l-1 -2q0 19 -37 76l2 17q5 15 16 20v0
q29 39 57 39q7 -3 -21 -3q2 9 13 9v-20q0 8 -12 56h63q20 -32 20 -42v24h-69l3 -6l10 30h29q36 -3 104 -91q38 0 62 -119q9 -31 9 -75q0 -59 -16 -143q-8 -35 -38 -91q-16 -79 -280 -378q-14 0 -90 -145l-1 -9q-6 -27 -12 -83q-17 -21 -14 -9h-34q133 15 373 107q7 2 3 -7
v-3q0 -5 -65 11l8 49h12v-47h-21l12 38q13 16 115 42q4 20 130 24h-7q31 25 82 25q18 -25 18 -38v23q-28 0 -17 5q31 -8 27 -8q22 9 113 9l-19 -16h-75l22 10h50l-13 -39l-14 -16q-22 0 -22 -30v-3l-1 -8q-5 -23 -52 -61l11 -33q-21 0 -14 44q5 0 5 -50l-32 -28
q-7 -40 -195 -118q-351 -132 -506 -132q1 0 -14 -3zM628 1318q-117 0 -134 129q17 30 -5 30l10 -21l7 21l13 7q3 -8 3 14q32 12 43 12h-13q3 15 47 15q7 -3 -22 -3q4 22 201 69q40 -25 40 -44v10l28 -21v-19q-34 -66 -18 -66l-11 22q-5 -22 9 -8q-2 0 -2 -36v-4l-3 -8
q-4 -26 1 -26q-12 21 -12 12v-14q-24 -16 -31 -51l-19 3q0 1 -132 -23z" />
    <glyph glyph-name="Agrave" unicode="&#xc0;" horiz-adv-x="1769" 
d="M1778 1935l79 -5q-80 -119 -80 -129q0 22 -27 22q-3 0 229 221l-175 -253q0 23 -29 23q2 0 331 353q-187 -352 -40 -110l162 204l-373 -626q0 -51 -107 -373q-87 -247 -408 -1271q-127 -195 -427 -505l169 389l-91 -125q111 346 111 399h19q-2 0 -89 -22q137 206 137 100
q1 1 -27 1q-32 0 -32 28q0 33 74 203q45 29 45 -9h-79v14h42l-10 -28h-71v35h41q0 11 -28 -28l-37 14l-381 -88q-348 -345 -755 -605l158 177l-143 -81q-40 0 -40 26q0 22 45 73l-300 -168l241 296q96 162 862 819q0 9 604 660q200 183 400 369zM1086 704h-55
q157 37 157 105q19 0 45 66q46 40 -147 -171zM1383 2748q11 22 -17 22q-12 0 24 -15q-5 36 -5 29q0 -46 -39 -46q-11 0 81 -46q-61 86 -47 82q7 -42 116 -184q-168 108 -165 104q24 8 24 17q0 4 -3 8l4 -4l21 -21q80 -393 252 -423l14 -18l-19 10l22 17l33 -40
q-14 -37 -14 -51q0 -7 5 -9q20 -17 16 -17q-26 0 -26 -19q0 8 164 -319q-72 218 -51 191h-1l-5 2q-24 -8 -24 -21q0 -4 -51 63l107 -40q11 -16 11 -23q0 -26 -31 -26q-10 0 92 -51q-65 83 -58 81l-16 6l41 51q34 -45 36 -55l-3 3q-36 0 -33 52q29 69 29 84v0
q-59 239 -171 385l-11 14q-61 78 -138 122q-20 27 -53 53l-8 3l-19 -2q-26 34 -17 31l-16 -19q-74 51 -51 19z" />
    <glyph glyph-name="Aacute" unicode="&#xc1;" horiz-adv-x="1769" 
d="M1778 1935l79 -5q-80 -119 -80 -129q0 22 -27 22q-3 0 229 221l-175 -253q0 23 -29 23q2 0 331 353q-187 -352 -40 -110l162 204l-373 -626q0 -51 -107 -373q-87 -247 -408 -1271q-127 -195 -427 -505l169 389l-91 -125q111 346 111 399h19q-2 0 -89 -22q137 206 137 100
q1 1 -27 1q-32 0 -32 28q0 33 74 203q45 29 45 -9h-79v14h42l-10 -28h-71v35h41q0 11 -28 -28l-37 14l-381 -88q-348 -345 -755 -605l158 177l-143 -81q-40 0 -40 26q0 22 45 73l-300 -168l241 296q96 162 862 819q0 9 604 660q200 183 400 369zM1086 704h-55
q157 37 157 105q19 0 45 66q46 40 -147 -171zM2223 2537q-50 -43 -57 -44q0 42 -26 42q-5 0 118 41q-121 -107 -123 -139q-83 3 -83 -9q6 2 6 9l2 6l16 -15q-272 -248 -272 -300q0 4 3 4q23 0 114 28l-1 -13l-37 -8l93 50l-18 -71q-104 -66 -104 -65q0 23 -26 23q-4 0 9 4
q14 -8 13 -8q13 0 -160 -251q122 129 121 117l8 33l-31 -6q6 2 6 13l70 14q0 -56 -10 -58v19q0 20 -21 20h1l3 1l162 93q-14 -70 -23 -79l4 36q-38 -8 73 75q179 114 180 120q166 97 484 281l-241 7v29q0 15 -34 15h-41v26q0 -3 4 -4l-15 -3l-56 -24v42q0 -14 15 -14
q-2 0 1 0l-48 -27q-73 10 -73 -16q15 10 -6 6z" />
    <glyph glyph-name="Acircumflex" unicode="&#xc2;" horiz-adv-x="1769" 
d="M1778 1935l79 -5q-80 -119 -80 -129q0 22 -27 22q-3 0 229 221l-175 -253q0 23 -29 23q2 0 331 353q-187 -352 -40 -110l162 204l-373 -626q0 -51 -107 -373q-87 -247 -408 -1271q-127 -195 -427 -505l169 389l-91 -125q111 346 111 399h19q-2 0 -89 -22q137 206 137 100
q1 1 -27 1q-32 0 -32 28q0 33 74 203q45 29 45 -9h-79v14h42l-10 -28h-71v35h41q0 11 -28 -28l-37 14l-381 -88q-348 -345 -755 -605l158 177l-143 -81q-40 0 -40 26q0 22 45 73l-300 -168l241 296q96 162 862 819q0 9 604 660q200 183 400 369zM1086 704h-55
q157 37 157 105q19 0 45 66q46 40 -147 -171zM882 2450q66 0 66 -13l-13 -3h26q11 -20 -3 -20q24 0 256 -287q66 -73 66 -114q0 -23 -28 -38q0 -39 -58 -39q-4 0 -20 -9l-16 9h4q-10 -8 -31 -8q-47 9 -114 120q-70 74 -72 76q-119 -152 -155 -152q-69 -36 -101 -36
q-7 4 13 4q-48 -96 -131 -96q-15 27 -15 20h48q0 -16 -55 -16q-9 8 -45 8v35l-6 -11q-6 0 -6 45q0 -1 -7 13q15 25 15 2q-8 0 -8 38q74 156 332 453q31 19 58 19z" />
    <glyph glyph-name="Atilde" unicode="&#xc3;" horiz-adv-x="1769" 
d="M1778 1935l79 -5q-80 -119 -80 -129q0 22 -27 22q-3 0 229 221l-175 -253q0 23 -29 23q2 0 331 353q-187 -352 -40 -110l162 204l-373 -626q0 -51 -107 -373q-87 -247 -408 -1271q-127 -195 -427 -505l169 389l-91 -125q111 346 111 399h19q-2 0 -89 -22q137 206 137 100
q1 1 -27 1q-32 0 -32 28q0 33 74 203q45 29 45 -9h-79v14h42l-10 -28h-71v35h41q0 11 -28 -28l-37 14l-381 -88q-348 -345 -755 -605l158 177l-143 -81q-40 0 -40 26q0 22 45 73l-300 -168l241 296q96 162 862 819q0 9 604 660q200 183 400 369zM1086 704h-55
q157 37 157 105q19 0 45 66q46 40 -147 -171zM1752 2447h12q26 0 44 -37l9 17h-43l45 7q33 -47 75 -71v27l-30 -15q36 0 162 -136q24 -16 26 -16q-8 0 117 132q60 21 145 72v-58q-4 -8 -4 45l-28 -19h44v-34l4 7l-33 16q41 28 121 55q0 -36 11 -46q-65 -233 -140 -285
q-40 -35 -66 -56l-1 3v-34q-35 0 -87 -38q-49 25 -49 -5l25 19h-26l25 -19q0 26 -83 7q-25 32 -25 -3l28 19h-49l6 31q-107 48 -199 121h18q-35 -21 -159 -160q-31 0 -46 12h-21h-18l-12 8h13l-56 -40h-60l8 16h71q0 -8 -38 -8h-34v31q8 43 18 65h50q-56 -36 -138 -36l16 20
h62l-12 -8h-44v29q0 30 94 153q10 44 146 160q59 52 106 52z" />
    <glyph glyph-name="Adieresis" unicode="&#xc4;" horiz-adv-x="1769" 
d="M1778 1935l79 -5q-80 -119 -80 -129q0 22 -27 22q-3 0 229 221l-175 -253q0 23 -29 23q2 0 331 353q-187 -352 -40 -110l162 204l-373 -626q0 -51 -107 -373q-87 -247 -408 -1271q-127 -195 -427 -505l169 389l-91 -125q111 346 111 399h19q-2 0 -89 -22q137 206 137 100
q1 1 -27 1q-32 0 -32 28q0 33 74 203q45 29 45 -9h-79v14h42l-10 -28h-71v35h41q0 11 -28 -28l-37 14l-381 -88q-348 -345 -755 -605l158 177l-143 -81q-40 0 -40 26q0 22 45 73l-300 -168l241 296q96 162 862 819q0 9 604 660q200 183 400 369zM1086 704h-55
q157 37 157 105q19 0 45 66q46 40 -147 -171zM2124 2237l-1 2l-11 -7h55q1 -28 -43 -28q0 6 65 6q0 -23 71 -74v-22q0 -35 2 -35q6 -13 15 -48l-15 -30q3 -7 3 -32l-57 -26l-3 8q13 8 41 8l-8 18v-13l-20 -45l-35 19h16q-67 -60 -146 -60q0 19 13 12l-40 -18q0 45 -52 58
q-25 25 -42 62q-14 0 -14 34l-8 -18q3 0 3 41q0 125 170 188h41zM1598 2228q0 -26 -39 -6q-1 -7 37 -7h5q41 0 41 -27q-28 0 -11 12l17 -10q13 4 34 4q82 0 100 -115l12 -18v-37h-71v-18q11 8 11 11l6 -40l-87 -93v-28h-52q-35 0 -35 -11l-13 -5q-71 4 -109 49h-32l18 40
v-19q-22 0 -22 68q6 11 6 -3q12 -5 -17 -5v42l-11 -15q13 0 4 64l5 3l2 -3v10q0 116 201 157z" />
    <glyph glyph-name="Aring" unicode="&#xc5;" horiz-adv-x="1769" 
d="M1778 1935l79 -5q-80 -119 -80 -129q0 22 -27 22q-3 0 229 221l-175 -253q0 23 -29 23q2 0 331 353q-187 -352 -40 -110l162 204l-373 -626q0 -51 -107 -373q-87 -247 -408 -1271q-127 -195 -427 -505l169 389l-91 -125q111 346 111 399h19q-2 0 -89 -22q137 206 137 100
q1 1 -27 1q-32 0 -32 28q0 33 74 203q45 29 45 -9h-79v14h42l-10 -28h-71v35h41q0 11 -28 -28l-37 14l-381 -88q-348 -345 -755 -605l158 177l-143 -81q-40 0 -40 26q0 22 45 73l-300 -168l241 296q96 162 862 819q0 9 604 660q200 183 400 369zM1086 704h-55
q157 37 157 105q19 0 45 66q46 40 -147 -171zM1930 2539h12q48 0 193 -60q149 -117 149 -217q0 -119 -68 -189q-5 0 -50 -66q-129 -118 -260 -118h-8q-75 0 -193 79q-89 93 -89 222q0 204 172 292q44 4 91 44q25 13 51 13zM2088 2290v0q0 16 -107 68q-65 -14 -142 -77h-15
q-23 0 -27 -66q42 -41 179 -139h-5q87 0 117 214z" />
    <glyph glyph-name="AE" unicode="&#xc6;" horiz-adv-x="2764" 
d="M1779 1644l81 -5q-83 -110 -83 -118q0 22 -27 22q-2 0 236 203l-182 -235q0 24 -29 24q2 0 334 320q-190 -323 -31 -88l156 176l-379 -572q0 -47 -107 -336q-87 -223 -408 -1145q-128 -176 -429 -456l168 349l-89 -111q112 316 112 362q0 -2 19 -2q-3 0 -88 -15
q136 184 136 87q0 -1 -27 -1q-32 0 -32 28q0 30 72 179q47 27 47 -7h-79v12h42l-10 -25h-71v31h41q0 11 -29 -24q-35 12 -36 12l-382 -79q-348 -311 -763 -549l158 159l-135 -69q-39 0 -39 26q0 21 39 61l-299 -151l247 274q96 146 861 736q0 8 605 595q200 165 400 332z
M1090 536h-59q157 33 157 95q19 0 43 53q47 37 -141 -148zM2633 1750q402 -13 485 -13l81 -9v-60h-38v43h46v-52q-236 -112 -900 -294q-106 -7 -106 -39q0 -16 -69 -149h-40l46 6h53l256 -71v-31l13 19h-6v-53q-330 -152 -375 -152q-116 0 -116 -38l-255 -530h-44
q214 99 906 293v-70q-39 -4 -39 33l6 1h40v-39q-84 -92 -381 -245q-317 -206 -595 -329q-396 -182 -537 -280q0 -11 -83 -51h-21q-56 18 -56 32l-50 -10q-49 48 -68 132q-20 0 -20 48q56 143 899 1464q0 12 34 66q-11 0 -11 -9q22 9 7 9q-41 0 -150 -7q-101 33 -103 63v45
h15q0 -33 -46 -15q0 47 1 47l-1 5q0 33 49 79q79 43 186 64q48 0 945 97h42z" />
    <glyph glyph-name="Ccedilla" unicode="&#xc7;" horiz-adv-x="1912" 
d="M1772 1706q109 0 266 -101l-17 -25v22q33 -3 33 -47q-8 -11 -8 14q-1 0 30 -43l-8 -11l6 -2q-26 -174 -320 -499q-26 0 -64 -24h-27q-47 0 -47 18h33l-75 -53q0 54 -56 61l-2 3l2 1h-103q0 18 -51 34l-75 135q37 0 46 59q27 0 39 16h53q-138 -62 -257 -143
q-43 0 -382 -299q-284 -368 -321 -600v6q17 -2 17 -56q-17 -2 -17 35q19 0 50 -117q0 16 -13 16q32 0 292 100q201 42 407 126h82l-25 -23h-66l25 11h46q0 -55 26 -27l-35 -13v-52l2 3h-57l33 18h60q-99 -240 -644 -452q-111 -38 -272 -38q-280 0 -390 274q-18 54 -18 138
v47q0 466 774 1090q404 262 777 361q159 37 251 37z" />
    <glyph glyph-name="Egrave" unicode="&#xc8;" horiz-adv-x="1906" 
d="M1774 1750q402 -13 485 -13l81 -9v-60h-38v43h46v-52q-236 -112 -900 -294q-106 -7 -106 -39q0 -16 -69 -149h-40l46 6h53l256 -71v-31l13 19h-6v-53q-330 -152 -375 -152q-116 0 -116 -38l-255 -530h-44q214 99 906 293v-70q-39 -4 -39 33l6 1h40v-39q-84 -92 -381 -245
q-317 -206 -595 -329q-396 -182 -537 -280q0 -11 -83 -51h-21q-56 18 -56 32l-50 -10q-49 48 -68 132q-20 0 -20 48q56 143 899 1464q0 12 34 66q-11 0 -11 -9q22 9 7 9q-41 0 -150 -7q-101 33 -103 63v45h15q0 -33 -46 -15q0 47 1 47l-1 5q0 33 49 79q79 43 186 64
q48 0 945 97h42zM1198 2507q11 22 -17 22q-12 0 24 -15q-5 36 -5 29q0 -46 -39 -46q-11 0 81 -46q-61 86 -47 82q7 -42 116 -184q-168 108 -165 104q24 8 24 17q0 4 -3 8l4 -4l21 -21q80 -393 252 -423l14 -18l-19 10l22 17l33 -40q-14 -37 -14 -51q0 -7 5 -9q20 -17 16 -17
q-26 0 -26 -19q0 8 164 -319q-72 218 -51 191h-1l-5 2q-24 -8 -24 -21q0 -4 -51 63l107 -40q11 -16 11 -23q0 -26 -31 -26q-10 0 92 -51q-65 83 -58 81l-16 6l41 51q34 -45 36 -55l-3 3q-36 0 -33 52q29 69 29 84v0q-59 239 -171 385l-11 14q-61 78 -138 122q-20 27 -53 53
l-8 3l-19 -2q-26 34 -17 31l-16 -19q-74 51 -51 19z" />
    <glyph glyph-name="Eacute" unicode="&#xc9;" horiz-adv-x="1906" 
d="M1774 1750q402 -13 485 -13l81 -9v-60h-38v43h46v-52q-236 -112 -900 -294q-106 -7 -106 -39q0 -16 -69 -149h-40l46 6h53l256 -71v-31l13 19h-6v-53q-330 -152 -375 -152q-116 0 -116 -38l-255 -530h-44q214 99 906 293v-70q-39 -4 -39 33l6 1h40v-39q-84 -92 -381 -245
q-317 -206 -595 -329q-396 -182 -537 -280q0 -11 -83 -51h-21q-56 18 -56 32l-50 -10q-49 48 -68 132q-20 0 -20 48q56 143 899 1464q0 12 34 66q-11 0 -11 -9q22 9 7 9q-41 0 -150 -7q-101 33 -103 63v45h15q0 -33 -46 -15q0 47 1 47l-1 5q0 33 49 79q79 43 186 64
q48 0 945 97h42zM1870 2237q-50 -43 -57 -44q0 42 -26 42q-5 0 118 41q-121 -107 -123 -139q-83 3 -83 -9q6 2 6 9l2 6l16 -15q-272 -248 -272 -300q0 4 3 4q23 0 114 28l-1 -13l-37 -8l93 50l-18 -71q-104 -66 -104 -65q0 23 -26 23q-4 0 9 4q14 -8 13 -8q13 0 -160 -251
q122 129 121 117l8 33l-31 -6q6 2 6 13l70 14q0 -56 -10 -58v19q0 20 -21 20h1l3 1l162 93q-14 -70 -23 -79l4 36q-38 -8 73 75q179 114 180 120q166 97 484 281l-241 7v29q0 15 -34 15h-41v26q0 -3 4 -4l-15 -3l-56 -24v42q0 -14 15 -14q-2 0 1 0l-48 -27q-73 10 -73 -16
q15 10 -6 6z" />
    <glyph glyph-name="Ecircumflex" unicode="&#xca;" horiz-adv-x="1906" 
d="M1774 1750q402 -13 485 -13l81 -9v-60h-38v43h46v-52q-236 -112 -900 -294q-106 -7 -106 -39q0 -16 -69 -149h-40l46 6h53l256 -71v-31l13 19h-6v-53q-330 -152 -375 -152q-116 0 -116 -38l-255 -530h-44q214 99 906 293v-70q-39 -4 -39 33l6 1h40v-39q-84 -92 -381 -245
q-317 -206 -595 -329q-396 -182 -537 -280q0 -11 -83 -51h-21q-56 18 -56 32l-50 -10q-49 48 -68 132q-20 0 -20 48q56 143 899 1464q0 12 34 66q-11 0 -11 -9q22 9 7 9q-41 0 -150 -7q-101 33 -103 63v45h15q0 -33 -46 -15q0 47 1 47l-1 5q0 33 49 79q79 43 186 64
q48 0 945 97h42zM1126 2450q66 0 66 -13l-13 -3h26q11 -20 -3 -20q24 0 256 -287q66 -73 66 -114q0 -23 -28 -38q0 -39 -58 -39q-4 0 -20 -9l-16 9h4q-10 -8 -31 -8q-47 9 -114 120q-70 74 -72 76q-119 -152 -155 -152q-69 -36 -101 -36q-7 4 13 4q-48 -96 -131 -96
q-15 27 -15 20h48q0 -16 -55 -16q-9 8 -45 8v35l-6 -11q-6 0 -6 45q0 -1 -7 13q15 25 15 2q-8 0 -8 38q74 156 332 453q31 19 58 19z" />
    <glyph glyph-name="Edieresis" unicode="&#xcb;" horiz-adv-x="1906" 
d="M1774 1750q402 -13 485 -13l81 -9v-60h-38v43h46v-52q-236 -112 -900 -294q-106 -7 -106 -39q0 -16 -69 -149h-40l46 6h53l256 -71v-31l13 19h-6v-53q-330 -152 -375 -152q-116 0 -116 -38l-255 -530h-44q214 99 906 293v-70q-39 -4 -39 33l6 1h40v-39q-84 -92 -381 -245
q-317 -206 -595 -329q-396 -182 -537 -280q0 -11 -83 -51h-21q-56 18 -56 32l-50 -10q-49 48 -68 132q-20 0 -20 48q56 143 899 1464q0 12 34 66q-11 0 -11 -9q22 9 7 9q-41 0 -150 -7q-101 33 -103 63v45h15q0 -33 -46 -15q0 47 1 47l-1 5q0 33 49 79q79 43 186 64
q48 0 945 97h42zM1846 2180l-1 2l-11 -7h55q1 -28 -43 -28q0 6 65 6q0 -23 71 -74v-22q0 -35 2 -35q6 -13 15 -48l-15 -30q3 -7 3 -32l-57 -26l-3 8q13 8 41 8l-8 18v-13l-20 -45l-35 19h16q-67 -60 -146 -60q0 19 13 12l-40 -18q0 45 -52 58q-25 25 -42 62q-14 0 -14 34
l-8 -18q3 0 3 41q0 125 170 188h41zM1320 2171q0 -26 -39 -6q-1 -7 37 -7h5q41 0 41 -27q-28 0 -11 12l17 -10q13 4 34 4q82 0 100 -115l12 -18v-37h-71v-18q11 8 11 11l6 -40l-87 -93v-28h-52q-35 0 -35 -11l-13 -5q-71 4 -109 49h-32l18 40v-19q-22 0 -22 68q6 11 6 -3
q12 -5 -17 -5v42l-11 -15q13 0 4 64l5 3l2 -3v10q0 116 201 157z" />
    <glyph glyph-name="Igrave" unicode="&#xcc;" horiz-adv-x="1415" 
d="M1496 1731q0 -23 41 -45l-9 -14q-2 2 138 -63q-105 0 -101 5v25q22 -2 22 -35q0 -10 -4 -16l5 -13q-19 -91 -63 -91h-9l7 -1q0 1 -155 -77q-376 -749 -600 -1025v19h11v1q113 31 134 31h32q0 -48 156 5l-96 -19q2 -11 38 -11q27 0 67 -49q-4 0 -246 -89v36h-31
q233 81 283 81q0 -42 1 -41l27 -26q-281 -87 -301 -96q0 -27 -251 -120q-72 -35 -91 -50q-48 0 -48 -4q-146 -35 -269 -46q-6 -10 -129 -35q0 23 -25 34l14 25q0 -19 -53 -16v40l-5 -6l36 -12q-4 -2 -36 -2l-20 37l12 14l-4 13q22 60 124 109q0 32 322 131q2 0 77 254
q63 165 362 740q22 -9 23 -9q-158 4 -158 -21q38 31 -112 21q-63 18 -63 43v-4q-20 7 -28 39l-13 -17q15 0 15 38l7 14q18 0 -7 35v36q10 0 10 -23l-7 30q56 65 302 118q105 13 155 13q34 0 81 -4q98 0 355 82q24 0 77 11zM662 2507q11 22 -17 22q-12 0 24 -15q-5 36 -5 29
q0 -46 -39 -46q-11 0 81 -46q-61 86 -47 82q7 -42 116 -184q-168 108 -165 104q24 8 24 17q0 4 -3 8l4 -4l21 -21q80 -393 252 -423l14 -18l-19 10l22 17l33 -40q-14 -37 -14 -51q0 -7 5 -9q20 -17 16 -17q-26 0 -26 -19q0 8 164 -319q-72 218 -51 191h-1l-5 2
q-24 -8 -24 -21q0 -4 -51 63l107 -40q11 -16 11 -23q0 -26 -31 -26q-10 0 92 -51q-65 83 -58 81l-16 6l41 51q34 -45 36 -55l-3 3q-36 0 -33 52q29 69 29 84v0q-59 239 -171 385l-11 14q-61 78 -138 122q-20 27 -53 53l-8 3l-19 -2q-26 34 -17 31l-16 -19q-74 51 -51 19z
" />
    <glyph glyph-name="Iacute" unicode="&#xcd;" horiz-adv-x="1415" 
d="M1496 1731q0 -23 41 -45l-9 -14q-2 2 138 -63q-105 0 -101 5v25q22 -2 22 -35q0 -10 -4 -16l5 -13q-19 -91 -63 -91h-9l7 -1q0 1 -155 -77q-376 -749 -600 -1025v19h11v1q113 31 134 31h32q0 -48 156 5l-96 -19q2 -11 38 -11q27 0 67 -49q-4 0 -246 -89v36h-31
q233 81 283 81q0 -42 1 -41l27 -26q-281 -87 -301 -96q0 -27 -251 -120q-72 -35 -91 -50q-48 0 -48 -4q-146 -35 -269 -46q-6 -10 -129 -35q0 23 -25 34l14 25q0 -19 -53 -16v40l-5 -6l36 -12q-4 -2 -36 -2l-20 37l12 14l-4 13q22 60 124 109q0 32 322 131q2 0 77 254
q63 165 362 740q22 -9 23 -9q-158 4 -158 -21q38 31 -112 21q-63 18 -63 43v-4q-20 7 -28 39l-13 -17q15 0 15 38l7 14q18 0 -7 35v36q10 0 10 -23l-7 30q56 65 302 118q105 13 155 13q34 0 81 -4q98 0 355 82q24 0 77 11zM1533 2237q-50 -43 -57 -44q0 42 -26 42
q-5 0 118 41q-121 -107 -123 -139q-83 3 -83 -9q6 2 6 9l2 6l16 -15q-272 -248 -272 -300q0 4 3 4q23 0 114 28l-1 -13l-37 -8l93 50l-18 -71q-104 -66 -104 -65q0 23 -26 23q-4 0 9 4q14 -8 13 -8q13 0 -160 -251q122 129 121 117l8 33l-31 -6q6 2 6 13l70 14
q0 -56 -10 -58v19q0 20 -21 20h1l3 1l162 93q-14 -70 -23 -79l4 36q-38 -8 73 75q179 114 180 120q166 97 484 281l-241 7v29q0 15 -34 15h-41v26q0 -3 4 -4l-15 -3l-56 -24v42q0 -14 15 -14q-2 0 1 0l-48 -27q-73 10 -73 -16q15 10 -6 6z" />
    <glyph glyph-name="Icircumflex" unicode="&#xce;" horiz-adv-x="1415" 
d="M1496 1731q0 -23 41 -45l-9 -14q-2 2 138 -63q-105 0 -101 5v25q22 -2 22 -35q0 -10 -4 -16l5 -13q-19 -91 -63 -91h-9l7 -1q0 1 -155 -77q-376 -749 -600 -1025v19h11v1q113 31 134 31h32q0 -48 156 5l-96 -19q2 -11 38 -11q27 0 67 -49q-4 0 -246 -89v36h-31
q233 81 283 81q0 -42 1 -41l27 -26q-281 -87 -301 -96q0 -27 -251 -120q-72 -35 -91 -50q-48 0 -48 -4q-146 -35 -269 -46q-6 -10 -129 -35q0 23 -25 34l14 25q0 -19 -53 -16v40l-5 -6l36 -12q-4 -2 -36 -2l-20 37l12 14l-4 13q22 60 124 109q0 32 322 131q2 0 77 254
q63 165 362 740q22 -9 23 -9q-158 4 -158 -21q38 31 -112 21q-63 18 -63 43v-4q-20 7 -28 39l-13 -17q15 0 15 38l7 14q18 0 -7 35v36q10 0 10 -23l-7 30q56 65 302 118q105 13 155 13q34 0 81 -4q98 0 355 82q24 0 77 11zM777 2450q66 0 66 -13l-13 -3h26q11 -20 -3 -20
q24 0 256 -287q66 -73 66 -114q0 -23 -28 -38q0 -39 -58 -39q-4 0 -20 -9l-16 9h4q-10 -8 -31 -8q-47 9 -114 120q-70 74 -72 76q-119 -152 -155 -152q-69 -36 -101 -36q-7 4 13 4q-48 -96 -131 -96q-15 27 -15 20h48q0 -16 -55 -16q-9 8 -45 8v35l-6 -11q-6 0 -6 45
q0 -1 -7 13q15 25 15 2q-8 0 -8 38q74 156 332 453q31 19 58 19z" />
    <glyph glyph-name="Idieresis" unicode="&#xcf;" horiz-adv-x="1415" 
d="M1496 1731q0 -23 41 -45l-9 -14q-2 2 138 -63q-105 0 -101 5v25q22 -2 22 -35q0 -10 -4 -16l5 -13q-19 -91 -63 -91h-9l7 -1q0 1 -155 -77q-376 -749 -600 -1025v19h11v1q113 31 134 31h32q0 -48 156 5l-96 -19q2 -11 38 -11q27 0 67 -49q-4 0 -246 -89v36h-31
q233 81 283 81q0 -42 1 -41l27 -26q-281 -87 -301 -96q0 -27 -251 -120q-72 -35 -91 -50q-48 0 -48 -4q-146 -35 -269 -46q-6 -10 -129 -35q0 23 -25 34l14 25q0 -19 -53 -16v40l-5 -6l36 -12q-4 -2 -36 -2l-20 37l12 14l-4 13q22 60 124 109q0 32 322 131q2 0 77 254
q63 165 362 740q22 -9 23 -9q-158 4 -158 -21q38 31 -112 21q-63 18 -63 43v-4q-20 7 -28 39l-13 -17q15 0 15 38l7 14q18 0 -7 35v36q10 0 10 -23l-7 30q56 65 302 118q105 13 155 13q34 0 81 -4q98 0 355 82q24 0 77 11zM1495 2203l-1 2l-11 -7h55q1 -28 -43 -28q0 6 65 6
q0 -23 71 -74v-22q0 -35 2 -35q6 -13 15 -48l-15 -30q3 -7 3 -32l-57 -26l-3 8q13 8 41 8l-8 18v-13l-20 -45l-35 19h16q-67 -60 -146 -60q0 19 13 12l-40 -18q0 45 -52 58q-25 25 -42 62q-14 0 -14 34l-8 -18q3 0 3 41q0 125 170 188h41zM969 2194q0 -26 -39 -6
q-1 -7 37 -7h5q41 0 41 -27q-28 0 -11 12l17 -10q13 4 34 4q82 0 100 -115l12 -18v-37h-71v-18q11 8 11 11l6 -40l-87 -93v-28h-52q-35 0 -35 -11l-13 -5q-71 4 -109 49h-32l18 40v-19q-22 0 -22 68q6 11 6 -3q12 -5 -17 -5v42l-11 -15q13 0 4 64l5 3l2 -3v10q0 116 201 157
z" />
    <glyph glyph-name="Eth" unicode="&#xd0;" horiz-adv-x="2039" 
d="M2119 1752q106 0 138 -62v-26l-16 -21v25q32 0 32 -32q0 -86 -38 -102l-2 2v-12q0 -20 -532 -430q-1323 -1133 -1425 -1133l-53 -8l-52 15l-50 -102l-54 -38h-26l21 -9q0 9 -59 9q-33 80 -33 109v14q0 376 235 889q121 296 224 498h-220q-59 0 -131 90l20 9l1 -2
q0 76 264 134q349 57 881 87v7q-21 -9 -6 -9q66 0 355 28l44 -7zM932 1366q-16 -7 -62 -7v7q-60 0 -60 -42q-195 -403 -282 -629q235 246 544 463l289 257v-30q-262 -19 -429 -19zM570 1223h69q63 0 341 -12v-55h-44v45h38v-50q-79 -19 -280 -52v43h1q48 0 204 -4
q0 -5 19 -5v-50q-205 -42 -187 -42v46l31 2h37v-52q-74 -10 -56 -10v48v0l63 4v-51q-444 -108 -751 -121q-388 -22 -472 -22l-21 4q-9 -2 -32 -2l-53 49l2 2q-10 7 -10 42q73 39 99 39h-85l40 -24q41 66 -7 66q40 -28 40 16h19v-32l-23 15q29 39 73 52q0 16 269 41l510 59
q125 11 166 11z" />
    <glyph glyph-name="Ntilde" unicode="&#xd1;" horiz-adv-x="1461" 
d="M665 1953h72q0 -133 12 -133q-19 26 -12 -17q-6 -63 -6 -68l177 -1264q-40 0 9 214l253 690h58v-30q0 -11 -12 -60v17h-54q0 -11 25 68h65v-40q0 -30 28 -30q-28 28 -28 16h-47l30 98h65v-10h-48q4 17 250 491h56v-30q0 -14 -18 -53v24h-54q0 -14 28 44h62v-52l-168 -662
q-114 -656 -193 -979l-130 -383q23 -102 23 -156h-72q0 27 -1 30h49v22l6 -29v-40q-58 6 -60 9q0 47 -9 47l-15 22v-41h-72v10h54v23l45 -140h-72l-12 29h45v27q6 -8 6 -51h-58q-131 170 -300 670q-48 172 -182 724q33 0 -5 -148q0 -85 -212 -626q-37 -37 -111 -37
q0 23 -24 36v47h48q-22 -78 -66 -78q0 -5 -42 -5q-66 25 -66 97q7 0 -12 35q0 175 413 1189q0 85 52 85q17 19 85 148q-11 44 -11 152v30q55 49 78 49q43 0 71 -20h-21l12 34h64q0 -39 -18 -74v26h-43q13 24 13 53zM1234 1433h72v-60h-72v60zM865 2547h14q25 0 49 -37l10 17
h-46l49 6q38 -44 88 -69v22l-27 -11q35 0 185 -134q31 -18 38 -18q-6 0 146 133q71 21 162 66v-54q-5 -8 -5 40l-24 -13h44v-35l5 8l-33 15q53 30 138 54q0 -32 14 -42q-79 -236 -170 -289q-47 -35 -76 -55l-3 5v-35q-39 0 -99 -36q-52 22 -52 0l19 12h-22l19 -12
q0 18 -90 1q-27 30 -27 2l24 13h-48l6 30q-128 47 -241 122h14q-45 -22 -192 -160q-29 0 -49 14q-4 -2 -27 -2h-18l-15 8h9l-67 -40h-61l9 16h73q0 -8 -40 -8h-35v31q10 45 22 65h51q-67 -36 -160 -36l20 20h68l-15 -8h-43v29q0 31 112 155q13 44 177 160q68 50 120 50z" />
    <glyph glyph-name="Ograve" unicode="&#xd2;" horiz-adv-x="2085" 
d="M1310 1735h33q115 0 231 -26v-35q-7 10 -7 47h37q43 0 43 -15h-53v-28q-7 8 -7 52h37q19 0 70 -41q23 3 34 3q132 -31 230 -191q157 -295 157 -541q0 -112 -85 -498h-68v39h50l-7 -48h-67l-13 95h42q-51 -126 -375 -384q-233 -187 -518 -297q-205 -64 -292 -64
q-90 0 -378 62q-200 0 -371 190q-63 142 -63 299q0 415 332 778q112 162 389 350q277 143 268 143q0 37 254 99q34 11 97 11zM569 830q29 -48 29 -103q-100 -235 -100 -283q0 -100 90 -209q115 -47 159 -47q325 37 398 90q302 172 302 216q241 342 241 695q0 61 -26 69
q-230 155 -276 155l-74 -45q-232 -83 -444 -221q-116 -86 -116 -145q-63 0 -183 -172zM1261 2663q11 22 -17 22q-12 0 24 -15q-5 36 -5 29q0 -46 -39 -46q-11 0 81 -46q-61 86 -47 82q7 -42 116 -184q-168 108 -165 104q24 8 24 17q0 4 -3 8l4 -4l21 -21q80 -393 252 -423
l14 -18l-19 10l22 17l33 -40q-14 -37 -14 -51q0 -7 5 -9q20 -17 16 -17q-26 0 -26 -19q0 8 164 -319q-72 218 -51 191h-1l-5 2q-24 -8 -24 -21q0 -4 -51 63l107 -40q11 -16 11 -23q0 -26 -31 -26q-10 0 92 -51q-65 83 -58 81l-16 6l41 51q34 -45 36 -55l-3 3q-36 0 -33 52
q29 69 29 84v0q-59 239 -171 385l-11 14q-61 78 -138 122q-20 27 -53 53l-8 3l-19 -2q-26 34 -17 31l-16 -19q-74 51 -51 19z" />
    <glyph glyph-name="Oacute" unicode="&#xd3;" horiz-adv-x="2085" 
d="M1310 1735h33q115 0 231 -26v-35q-7 10 -7 47h37q43 0 43 -15h-53v-28q-7 8 -7 52h37q19 0 70 -41q23 3 34 3q132 -31 230 -191q157 -295 157 -541q0 -112 -85 -498h-68v39h50l-7 -48h-67l-13 95h42q-51 -126 -375 -384q-233 -187 -518 -297q-205 -64 -292 -64
q-90 0 -378 62q-200 0 -371 190q-63 142 -63 299q0 415 332 778q112 162 389 350q277 143 268 143q0 37 254 99q34 11 97 11zM569 830q29 -48 29 -103q-100 -235 -100 -283q0 -100 90 -209q115 -47 159 -47q325 37 398 90q302 172 302 216q241 342 241 695q0 61 -26 69
q-230 155 -276 155l-74 -45q-232 -83 -444 -221q-116 -86 -116 -145q-63 0 -183 -172zM1976 2381q-50 -43 -57 -44q0 42 -26 42q-5 0 118 41q-121 -107 -123 -139q-83 3 -83 -9q6 2 6 9l2 6l16 -15q-272 -248 -272 -300q0 4 3 4q23 0 114 28l-1 -13l-37 -8l93 50l-18 -71
q-104 -66 -104 -65q0 23 -26 23q-4 0 9 4q14 -8 13 -8q13 0 -160 -251q122 129 121 117l8 33l-31 -6q6 2 6 13l70 14q0 -56 -10 -58v19q0 20 -21 20h1l3 1l162 93q-14 -70 -23 -79l4 36q-38 -8 73 75q179 114 180 120q166 97 484 281l-241 7v29q0 15 -34 15h-41v26
q0 -3 4 -4l-15 -3l-56 -24v42q0 -14 15 -14q-2 0 1 0l-48 -27q-73 10 -73 -16q15 10 -6 6z" />
    <glyph glyph-name="Ocircumflex" unicode="&#xd4;" horiz-adv-x="2085" 
d="M1310 1735h33q115 0 231 -26v-35q-7 10 -7 47h37q43 0 43 -15h-53v-28q-7 8 -7 52h37q19 0 70 -41q23 3 34 3q132 -31 230 -191q157 -295 157 -541q0 -112 -85 -498h-68v39h50l-7 -48h-67l-13 95h42q-51 -126 -375 -384q-233 -187 -518 -297q-205 -64 -292 -64
q-90 0 -378 62q-200 0 -371 190q-63 142 -63 299q0 415 332 778q112 162 389 350q277 143 268 143q0 37 254 99q34 11 97 11zM569 830q29 -48 29 -103q-100 -235 -100 -283q0 -100 90 -209q115 -47 159 -47q325 37 398 90q302 172 302 216q241 342 241 695q0 61 -26 69
q-230 155 -276 155l-74 -45q-232 -83 -444 -221q-116 -86 -116 -145q-63 0 -183 -172zM1041 2450q66 0 66 -13l-13 -3h26q11 -20 -3 -20q24 0 256 -287q66 -73 66 -114q0 -23 -28 -38q0 -39 -58 -39q-4 0 -20 -9l-16 9h4q-10 -8 -31 -8q-47 9 -114 120q-70 74 -72 76
q-119 -152 -155 -152q-69 -36 -101 -36q-7 4 13 4q-48 -96 -131 -96q-15 27 -15 20h48q0 -16 -55 -16q-9 8 -45 8v35l-6 -11q-6 0 -6 45q0 -1 -7 13q15 25 15 2q-8 0 -8 38q74 156 332 453q31 19 58 19z" />
    <glyph glyph-name="Otilde" unicode="&#xd5;" horiz-adv-x="2085" 
d="M1310 1735h33q115 0 231 -26v-35q-7 10 -7 47h37q43 0 43 -15h-53v-28q-7 8 -7 52h37q19 0 70 -41q23 3 34 3q132 -31 230 -191q157 -295 157 -541q0 -112 -85 -498h-68v39h50l-7 -48h-67l-13 95h42q-51 -126 -375 -384q-233 -187 -518 -297q-205 -64 -292 -64
q-90 0 -378 62q-200 0 -371 190q-63 142 -63 299q0 415 332 778q112 162 389 350q277 143 268 143q0 37 254 99q34 11 97 11zM569 830q29 -48 29 -103q-100 -235 -100 -283q0 -100 90 -209q115 -47 159 -47q325 37 398 90q302 172 302 216q241 342 241 695q0 61 -26 69
q-230 155 -276 155l-74 -45q-232 -83 -444 -221q-116 -86 -116 -145q-63 0 -183 -172zM879 2291h12q26 0 44 -37l9 17h-43l45 7q33 -47 75 -71v27l-30 -15q36 0 162 -136q24 -16 26 -16q-8 0 117 132q60 21 145 72v-58q-4 -8 -4 45l-28 -19h44v-34l4 7l-33 16q41 28 121 55
q0 -36 11 -46q-65 -233 -140 -285q-40 -35 -66 -56l-1 3v-34q-35 0 -87 -38q-49 25 -49 -5l25 19h-26l25 -19q0 26 -83 7q-25 32 -25 -3l28 19h-49l6 31q-107 48 -199 121h18q-35 -21 -159 -160q-31 0 -46 12h-21h-18l-12 8h13l-56 -40h-60l8 16h71q0 -8 -38 -8h-34v31
q8 43 18 65h50q-56 -36 -138 -36l16 20h62l-12 -8h-44v29q0 30 94 153q10 44 146 160q59 52 106 52z" />
    <glyph glyph-name="Odieresis" unicode="&#xd6;" horiz-adv-x="2085" 
d="M1310 1735h33q115 0 231 -26v-35q-7 10 -7 47h37q43 0 43 -15h-53v-28q-7 8 -7 52h37q19 0 70 -41q23 3 34 3q132 -31 230 -191q157 -295 157 -541q0 -112 -85 -498h-68v39h50l-7 -48h-67l-13 95h42q-51 -126 -375 -384q-233 -187 -518 -297q-205 -64 -292 -64
q-90 0 -378 62q-200 0 -371 190q-63 142 -63 299q0 415 332 778q112 162 389 350q277 143 268 143q0 37 254 99q34 11 97 11zM569 830q29 -48 29 -103q-100 -235 -100 -283q0 -100 90 -209q115 -47 159 -47q325 37 398 90q302 172 302 216q241 342 241 695q0 61 -26 69
q-230 155 -276 155l-74 -45q-232 -83 -444 -221q-116 -86 -116 -145q-63 0 -183 -172zM1749 2203l-1 2l-11 -7h55q1 -28 -43 -28q0 6 65 6q0 -23 71 -74v-22q0 -35 2 -35q6 -13 15 -48l-15 -30q3 -7 3 -32l-57 -26l-3 8q13 8 41 8l-8 18v-13l-20 -45l-35 19h16
q-67 -60 -146 -60q0 19 13 12l-40 -18q0 45 -52 58q-25 25 -42 62q-14 0 -14 34l-8 -18q3 0 3 41q0 125 170 188h41zM1110 2194q0 -26 -39 -6q-1 -7 37 -7h5q41 0 41 -27q-28 0 -11 12l17 -10q13 4 34 4q82 0 100 -115l12 -18v-37h-71v-18q11 8 11 11l6 -40l-87 -93v-28h-52
q-35 0 -35 -11l-13 -5q-71 4 -109 49h-32l18 40v-19q-22 0 -22 68q6 11 6 -3q12 -5 -17 -5v42l-11 -15q13 0 4 64l5 3l2 -3v10q0 116 201 157z" />
    <glyph glyph-name="multiply" unicode="&#xd7;" horiz-adv-x="1334" 
d="M722 1337h48v-35q-5 -8 -5 19q-50 0 -50 12h65q15 -65 25 -169q-10 -98 -21 -127q128 32 211 32q13 0 56 -4q56 4 140 4v-54l-25 -4v42h25v-38q-54 -51 -268 -152h12v46h30v-35l14 23h-44q7 0 110 12v-55q-57 -15 -35 -15v46h-27l30 4h76q-107 -97 -337 -198
q-28 0 -28 -50q-41 -139 -66 -274q-51 -68 -106 -68l-10 4q32 0 32 -4q-114 0 -129 52h41l-15 -40h-67q11 69 15 75v-27h46q-2 -4 -2 -32h-35q-40 0 -40 20h34l-15 -8h-44v-13l24 13q-52 0 -74 193q5 64 5 117q5 0 5 -46q-5 0 -5 -1q-140 -22 -181 -35q-85 0 -112 54l-22 30
l5 9l-1 2v4l-24 13l14 23v-10l-40 42q55 7 55 -12l-12 47q29 0 27 -2v-3l27 11h-17q-25 0 -47 33v-1q-3 0 -3 33q0 57 105 96q100 21 285 46q21 103 21 101q-10 0 -10 12h32l-30 -12l-27 43q116 138 144 155q81 44 197 44q3 -14 -6 -10zM499 367v42h-55v-42h55z" />
    <glyph glyph-name="Oslash" unicode="&#xd8;" horiz-adv-x="2085" 
d="M1310 1735h33q115 0 231 -26v-35q-7 10 -7 47h37q43 0 43 -15h-53v-28q-7 8 -7 52h37q19 0 70 -41q23 3 34 3q132 -31 230 -191q157 -295 157 -541q0 -112 -85 -498h-68v39h50l-7 -48h-67l-13 95h42q-51 -126 -375 -384q-233 -187 -518 -297q-205 -64 -292 -64
q-90 0 -378 62q-200 0 -371 190q-63 142 -63 299q0 415 332 778q112 162 389 350q277 143 268 143q0 37 254 99q34 11 97 11zM569 830q29 -48 29 -103q-100 -235 -100 -283q0 -100 90 -209q115 -47 159 -47q325 37 398 90q302 172 302 216q241 342 241 695q0 61 -26 69
q-230 155 -276 155l-74 -45q-232 -83 -444 -221q-116 -86 -116 -145q-63 0 -183 -172zM2034 2132q27 -36 27 -48q0 -13 20 27l-75 -25q9 18 41 18q32 -12 32 -32q0 -11 -17 -28q1 0 28 45q-14 0 -14 -32v-14q-7 0 -7 -27q0 -6 -3 -13l-11 -20q-7 -13 -5 -13v3
q-69 -110 -99 -150q5 4 5 12q0 24 22 24q-698 -1075 -1215 -1738q-2 -1 -94 -120l-84 -12l86 121l-16 -32h59q-142 -203 -428 -594l-102 -17q60 60 93 115l-16 -31h59q-24 -36 -36 -60h-69q19 43 31 78l106 190l5 18q10 13 27 39l-16 -32h59q-24 -35 -46 -39h-51l-2 -4
l72 24q-35 -43 -43 -61l-85 -12l41 63q69 9 41 -36l-73 -10q27 61 27 62q0 -23 -20 -23q432 716 651 1029q250 396 476 712q124 180 173 276h-4l-1 -11q9 18 32 27l24 49l24 -32l-28 -7l83 91q8 2 21 12l24 2q35 0 35 -28q0 -7 24 41l-43 -14h34q5 -21 -13 -21h-8l24 13
q10 -10 1 -10h-11q29 30 120 174q29 29 44 29h-2q0 1 66 52z" />
    <glyph glyph-name="Ugrave" unicode="&#xd9;" horiz-adv-x="1586" 
d="M975 2056l11 -95l-32 -63l-6 23h-37q21 36 21 56l71 13v-33q0 -10 -3 -15q-2 9 7 -1v-10q0 -12 -7 -30l8 -21l60 164l-51 -79q9 -97 9 -111q0 -68 -31 -169l6 -8l-30 -98v24h-46l29 77l64 6q0 -79 16 -77l-16 18v-16q0 -61 -145 -678q-206 -606 -206 -621v21h-30
q105 38 366 112q1 -7 1 9q0 175 174 932q9 18 55 260l29 15l26 3l23 -10l-27 -4q1 22 38 28l24 3l47 -12l-15 -2v-19q0 30 37 37h16q25 -13 22 -13h-28q1 20 39 23l51 7q3 -16 -18 -16h-8q10 6 36 6q57 -43 67 -81l3 -32v-8q0 -74 -121 -540q-22 -93 -151 -762
q-50 -100 -87 -296l-66 -11l-1 18h52v24q0 -11 -25 -73l-67 -6l1 5l36 16l-37 -7l-18 50q-6 52 -16 216l2 -20l47 9l-41 -139l-67 -6l2 67v-25l49 8q-1 -5 -1 -14v-25l-72 -12v34q-2 18 -18 46l2 32l3 -24q-236 -165 -467 -284q-240 -219 -293 -233l-33 -5q-132 3 -138 45
l1 -6q24 4 17 4q-40 0 -45 36q5 8 5 7v-23h29q-20 0 -90 57q40 8 40 -5v0v2l-26 35q42 5 45 47q50 86 50 100v-24h23q-37 0 -63 37l13 22v-3q2 -17 22 -17h-35q3 80 -10 77l11 -15v11q0 48 100 237q57 108 75 328q67 339 264 903q3 26 35 30l18 3q49 -14 50 -20h-51v-24
q0 34 84 91zM773 79v41h-56v-41h56zM-125 -189h69v-58h-69v58zM-121 -206h69q0 -59 -69 -59v59zM866 2663q11 22 -17 22q-12 0 24 -15q-5 36 -5 29q0 -46 -39 -46q-11 0 81 -46q-61 86 -47 82q7 -42 116 -184q-168 108 -165 104q24 8 24 17q0 4 -3 8l4 -4l21 -21
q80 -393 252 -423l14 -18l-19 10l22 17l33 -40q-14 -37 -14 -51q0 -7 5 -9q20 -17 16 -17q-26 0 -26 -19q0 8 164 -319q-72 218 -51 191h-1l-5 2q-24 -8 -24 -21q0 -4 -51 63l107 -40q11 -16 11 -23q0 -26 -31 -26q-10 0 92 -51q-65 83 -58 81l-16 6l41 51q34 -45 36 -55
l-3 3q-36 0 -33 52q29 69 29 84v0q-59 239 -171 385l-11 14q-61 78 -138 122q-20 27 -53 53l-8 3l-19 -2q-26 34 -17 31l-16 -19q-74 51 -51 19z" />
    <glyph glyph-name="Uacute" unicode="&#xda;" horiz-adv-x="1586" 
d="M975 2056l11 -95l-32 -63l-6 23h-37q21 36 21 56l71 13v-33q0 -10 -3 -15q-2 9 7 -1v-10q0 -12 -7 -30l8 -21l60 164l-51 -79q9 -97 9 -111q0 -68 -31 -169l6 -8l-30 -98v24h-46l29 77l64 6q0 -79 16 -77l-16 18v-16q0 -61 -145 -678q-206 -606 -206 -621v21h-30
q105 38 366 112q1 -7 1 9q0 175 174 932q9 18 55 260l29 15l26 3l23 -10l-27 -4q1 22 38 28l24 3l47 -12l-15 -2v-19q0 30 37 37h16q25 -13 22 -13h-28q1 20 39 23l51 7q3 -16 -18 -16h-8q10 6 36 6q57 -43 67 -81l3 -32v-8q0 -74 -121 -540q-22 -93 -151 -762
q-50 -100 -87 -296l-66 -11l-1 18h52v24q0 -11 -25 -73l-67 -6l1 5l36 16l-37 -7l-18 50q-6 52 -16 216l2 -20l47 9l-41 -139l-67 -6l2 67v-25l49 8q-1 -5 -1 -14v-25l-72 -12v34q-2 18 -18 46l2 32l3 -24q-236 -165 -467 -284q-240 -219 -293 -233l-33 -5q-132 3 -138 45
l1 -6q24 4 17 4q-40 0 -45 36q5 8 5 7v-23h29q-20 0 -90 57q40 8 40 -5v0v2l-26 35q42 5 45 47q50 86 50 100v-24h23q-37 0 -63 37l13 22v-3q2 -17 22 -17h-35q3 80 -10 77l11 -15v11q0 48 100 237q57 108 75 328q67 339 264 903q3 26 35 30l18 3q49 -14 50 -20h-51v-24
q0 34 84 91zM773 79v41h-56v-41h56zM-125 -189h69v-58h-69v58zM-121 -206h69q0 -59 -69 -59v59zM839 2381q-50 -43 -57 -44q0 42 -26 42q-5 0 118 41q-121 -107 -123 -139q-83 3 -83 -9q6 2 6 9l2 6l16 -15q-272 -248 -272 -300q0 4 3 4q23 0 114 28l-1 -13l-37 -8l93 50
l-18 -71q-104 -66 -104 -65q0 23 -26 23q-4 0 9 4q14 -8 13 -8q13 0 -160 -251q122 129 121 117l8 33l-31 -6q6 2 6 13l70 14q0 -56 -10 -58v19q0 20 -21 20h1l3 1l162 93q-14 -70 -23 -79l4 36q-38 -8 73 75q179 114 180 120q166 97 484 281l-241 7v29q0 15 -34 15h-41v26
q0 -3 4 -4l-15 -3l-56 -24v42q0 -14 15 -14q-2 0 1 0l-48 -27q-73 10 -73 -16q15 10 -6 6z" />
    <glyph glyph-name="Ucircumflex" unicode="&#xdb;" horiz-adv-x="1586" 
d="M975 2056l11 -95l-32 -63l-6 23h-37q21 36 21 56l71 13v-33q0 -10 -3 -15q-2 9 7 -1v-10q0 -12 -7 -30l8 -21l60 164l-51 -79q9 -97 9 -111q0 -68 -31 -169l6 -8l-30 -98v24h-46l29 77l64 6q0 -79 16 -77l-16 18v-16q0 -61 -145 -678q-206 -606 -206 -621v21h-30
q105 38 366 112q1 -7 1 9q0 175 174 932q9 18 55 260l29 15l26 3l23 -10l-27 -4q1 22 38 28l24 3l47 -12l-15 -2v-19q0 30 37 37h16q25 -13 22 -13h-28q1 20 39 23l51 7q3 -16 -18 -16h-8q10 6 36 6q57 -43 67 -81l3 -32v-8q0 -74 -121 -540q-22 -93 -151 -762
q-50 -100 -87 -296l-66 -11l-1 18h52v24q0 -11 -25 -73l-67 -6l1 5l36 16l-37 -7l-18 50q-6 52 -16 216l2 -20l47 9l-41 -139l-67 -6l2 67v-25l49 8q-1 -5 -1 -14v-25l-72 -12v34q-2 18 -18 46l2 32l3 -24q-236 -165 -467 -284q-240 -219 -293 -233l-33 -5q-132 3 -138 45
l1 -6q24 4 17 4q-40 0 -45 36q5 8 5 7v-23h29q-20 0 -90 57q40 8 40 -5v0v2l-26 35q42 5 45 47q50 86 50 100v-24h23q-37 0 -63 37l13 22v-3q2 -17 22 -17h-35q3 80 -10 77l11 -15v11q0 48 100 237q57 108 75 328q67 339 264 903q3 26 35 30l18 3q49 -14 50 -20h-51v-24
q0 34 84 91zM773 79v41h-56v-41h56zM-125 -189h69v-58h-69v58zM-121 -206h69q0 -59 -69 -59v59zM733 2450q66 0 66 -13l-13 -3h26q11 -20 -3 -20q24 0 256 -287q66 -73 66 -114q0 -23 -28 -38q0 -39 -58 -39q-4 0 -20 -9l-16 9h4q-10 -8 -31 -8q-47 9 -114 120
q-70 74 -72 76q-119 -152 -155 -152q-69 -36 -101 -36q-7 4 13 4q-48 -96 -131 -96q-15 27 -15 20h48q0 -16 -55 -16q-9 8 -45 8v35l-6 -11q-6 0 -6 45q0 -1 -7 13q15 25 15 2q-8 0 -8 38q74 156 332 453q31 19 58 19z" />
    <glyph glyph-name="Udieresis" unicode="&#xdc;" horiz-adv-x="1586" 
d="M975 2056l11 -95l-32 -63l-6 23h-37q21 36 21 56l71 13v-33q0 -10 -3 -15q-2 9 7 -1v-10q0 -12 -7 -30l8 -21l60 164l-51 -79q9 -97 9 -111q0 -68 -31 -169l6 -8l-30 -98v24h-46l29 77l64 6q0 -79 16 -77l-16 18v-16q0 -61 -145 -678q-206 -606 -206 -621v21h-30
q105 38 366 112q1 -7 1 9q0 175 174 932q9 18 55 260l29 15l26 3l23 -10l-27 -4q1 22 38 28l24 3l47 -12l-15 -2v-19q0 30 37 37h16q25 -13 22 -13h-28q1 20 39 23l51 7q3 -16 -18 -16h-8q10 6 36 6q57 -43 67 -81l3 -32v-8q0 -74 -121 -540q-22 -93 -151 -762
q-50 -100 -87 -296l-66 -11l-1 18h52v24q0 -11 -25 -73l-67 -6l1 5l36 16l-37 -7l-18 50q-6 52 -16 216l2 -20l47 9l-41 -139l-67 -6l2 67v-25l49 8q-1 -5 -1 -14v-25l-72 -12v34q-2 18 -18 46l2 32l3 -24q-236 -165 -467 -284q-240 -219 -293 -233l-33 -5q-132 3 -138 45
l1 -6q24 4 17 4q-40 0 -45 36q5 8 5 7v-23h29q-20 0 -90 57q40 8 40 -5v0v2l-26 35q42 5 45 47q50 86 50 100v-24h23q-37 0 -63 37l13 22v-3q2 -17 22 -17h-35q3 80 -10 77l11 -15v11q0 48 100 237q57 108 75 328q67 339 264 903q3 26 35 30l18 3q49 -14 50 -20h-51v-24
q0 34 84 91zM773 79v41h-56v-41h56zM-125 -189h69v-58h-69v58zM-121 -206h69q0 -59 -69 -59v59zM1025 2203l-1 2l-11 -7h55q1 -28 -43 -28q0 6 65 6q0 -23 71 -74v-22q0 -35 2 -35q6 -13 15 -48l-15 -30q3 -7 3 -32l-57 -26l-3 8q13 8 41 8l-8 18v-13l-20 -45l-35 19h16
q-67 -60 -146 -60q0 19 13 12l-40 -18q0 45 -52 58q-25 25 -42 62q-14 0 -14 34l-8 -18q3 0 3 41q0 125 170 188h41zM499 2194q0 -26 -39 -6q-1 -7 37 -7h5q41 0 41 -27q-28 0 -11 12l17 -10q13 4 34 4q82 0 100 -115l12 -18v-37h-71v-18q11 8 11 11l6 -40l-87 -93v-28h-52
q-35 0 -35 -11l-13 -5q-71 4 -109 49h-32l18 40v-19q-22 0 -22 68q6 11 6 -3q12 -5 -17 -5v42l-11 -15q13 0 4 64l5 3l2 -3v10q0 116 201 157z" />
    <glyph glyph-name="Yacute" unicode="&#xdd;" horiz-adv-x="1681" 
d="M1572 1851l30 -18h-31l1 9h33q22 0 25 -1q3 1 54 1v-30q0 -3 32 -9q-5 -26 -5 -29q0 -9 4 -27q-18 -36 6 -36l-4 6q-3 -19 1 -12l50 37h47v-38l-35 -38v58l5 4h56l-18 -54l1 4q2 -3 40 -10q-148 -265 -333 -444q-180 -220 -347 -467q-70 -206 -417 -1796l-18 327
l-69 -190l-83 250l160 322l-322 -877l76 403l-35 -35h63q-2 0 -174 -57l132 163l51 271q13 51 13 63q0 -19 29 -19q13 0 125 262l-115 -185l-25 30q3 29 12 53v-24h48l-37 -144l-177 -395q62 306 62 343q0 34 -10 63l107 563q15 142 184 614q-245 159 -426 321
q-359 350 -398 402v13q3 23 9 25q-2 3 -2 29v20q38 21 58 74q24 0 22 -19l-12 23l50 25q48 0 48 -35v21h-32q2 14 75 14q-5 -33 -5 -35q0 6 -20 6h-21q2 15 50 15v0l1 9h46l93 8q0 -20 -1 -19l6 2h19q46 0 356 -291q160 -156 256 -340h-17q165 200 214 315q30 46 86 71
q244 358 284 407zM1000 2381q-50 -43 -57 -44q0 42 -26 42q-5 0 118 41q-121 -107 -123 -139q-83 3 -83 -9q6 2 6 9l2 6l16 -15q-272 -248 -272 -300q0 4 3 4q23 0 114 28l-1 -13l-37 -8l93 50l-18 -71q-104 -66 -104 -65q0 23 -26 23q-4 0 9 4q14 -8 13 -8q13 0 -160 -251
q122 129 121 117l8 33l-31 -6q6 2 6 13l70 14q0 -56 -10 -58v19q0 20 -21 20h1l3 1l162 93q-14 -70 -23 -79l4 36q-38 -8 73 75q179 114 180 120q166 97 484 281l-241 7v29q0 15 -34 15h-41v26q0 -3 4 -4l-15 -3l-56 -24v42q0 -14 15 -14q-2 0 1 0l-48 -27q-73 10 -73 -16
q15 10 -6 6z" />
    <glyph glyph-name="Thorn" unicode="&#xde;" horiz-adv-x="1721" 
d="M890 1858q242 -12 339 -12h73l383 -35h92q0 -10 64 -14v-53h-15v38h15v-37l7 10q-12 3 35 3v-61h-21q0 38 28 38v-62q-39 0 -57 -28v25q-29 0 -13 7l77 -11q0 -62 -82 -104q-443 -417 -893 -727q-329 -247 -439 -247q0 6 42 6q-32 -61 -232 -598h-59v31q0 17 15 67v-22
h46l-21 -76h-68q0 51 5 58l-5 19l14 91v-22h45q-99 -260 -133 -381h-68v30h48q-2 -8 -2 -36h-74v31q0 31 -7 31v17l7 59v-9h53q0 11 -92 -269h-104q50 57 51 89v-13h52q0 7 -21 -59h-67q0 40 -7 64q106 779 271 1350l110 413q-5 7 -5 9h14q-68 -18 -112 -18q-51 0 -86 60
q0 37 -11 37l11 -19v12q0 108 142 133q-1 1 -1 46q37 121 306 121q299 18 350 18zM704 1188q306 224 530 336v-30l-456 -36zM1054 2757h17l17 -8l62 7l2 5l-38 -10h30q53 -53 53 -86q0 -7 -2 -16q-301 -582 -478 -1072l-146 -399q-93 -255 -222 -406h-66l8 21h53l-13 -21
h-41q-30 28 -30 56q0 8 2 18l-8 -16h61l-11 -28h-65l4 40h43q-17 -38 -30 -73h-67l7 36h52l-14 -39h-71l2 6h56l-46 -124h-75q17 38 19 58h51l-1 -2q-8 -43 -24 -59h-49q-18 89 -18 138q0 42 9 67q10 269 67 425l-5 35h-5l10 -20l22 62v-1q0 -3 -10 11l18 14q30 149 43 185
l16 46v-1l-5 13q14 12 14 13l22 59l1 2q0 -5 -8 3l20 31l10 26q0 1 0 -2q0 -22 -27 -22l35 47q123 337 416 807l29 7h22l13 -6h-11q15 15 69 108q91 41 103 41h22l4 -2l26 7q11 -5 -2 -5q15 13 58 24z" />
    <glyph glyph-name="germandbls" unicode="&#xdf;" horiz-adv-x="1288" 
d="M1399 1508v-62l-50 -15v37h-24q20 11 74 11v-46q-45 -41 -229 -166l-16 -15q-34 0 -34 -43q-49 -28 -39 -28v45h-28q27 5 100 5q-94 -109 -347 -302q-72 -44 -81 -52q22 0 372 -133q138 -48 138 -83q-2 0 11 -41q-6 -14 -6 5q10 -2 10 -31v-5q0 -15 -9 -21q4 -6 4 -39
l-14 -8l-1 3v-16q-112 -138 -300 -265q-179 -126 -423 -244q-45 -39 -232 -132q-227 -136 -290 -136q0 50 50 76v-34h33q-27 -13 -51 -32h-47v31q0 32 146 164h70q-96 -42 -153 -42q4 53 57 77v-35h33q-40 -21 -63 -21h-58q70 96 269 263q72 78 358 327l78 87v-28h22
q-212 42 -260 42q-70 -5 -135 -5q-161 0 -189 53q-5 0 5 -10q0 31 -56 31q-24 31 -24 21h55v25q5 -10 5 -52h-45q-70 44 -70 110q0 233 351 427q425 247 570 247h15q32 0 115 -11q135 20 333 66z" />
    <glyph glyph-name="agrave" unicode="&#xe0;" horiz-adv-x="1336" 
d="M1262 1584q5 -20 -14 -20q14 5 37 5q91 -59 91 -176v-12q-84 -609 -88 -711q51 11 97 11q0 -46 58 -22h-128q28 9 116 9q-59 -62 -161 -112q-11 -125 -13 -194h-6q0 46 10 46q-96 -669 -96 -718h-74v33q0 22 -2 43h49l-2 -76h-73v14q39 0 36 -81h-71l-5 54h50l-2 -50h-60
q-44 64 -70 153h44l-1 -14h-72l2 72h50l-5 -31v-27h-66q-35 88 -35 227v28h47v-13h-81l15 59l1 13h52q1 11 -20 -63h-68v37q0 17 -12 48q22 247 21 234q-233 -116 -352 -126q-122 -157 -231 -229l-94 4h-22l-32 -9q-23 31 -23 10l9 3q-89 77 -89 118v15q5 158 619 861
q39 55 356 394q5 124 175 124l27 -34l12 16h-57q2 29 78 66q22 -8 -7 -8q0 -2 80 29zM992 1312q0 11 -30 -31v28h-53q0 -5 30 20l-1 -17h54zM955 873q0 -10 -219 -308q22 8 106 22v-14l60 325l-6 -25h59zM366 2363q11 22 -17 22q-12 0 24 -15q-5 36 -5 29q0 -46 -39 -46
q-11 0 81 -46q-61 86 -47 82q7 -42 116 -184q-168 108 -165 104q24 8 24 17q0 4 -3 8l4 -4l21 -21q80 -393 252 -423l14 -18l-19 10l22 17l33 -40q-14 -37 -14 -51q0 -7 5 -9q20 -17 16 -17q-26 0 -26 -19q0 8 164 -319q-72 218 -51 191h-1l-5 2q-24 -8 -24 -21q0 -4 -51 63
l107 -40q11 -16 11 -23q0 -26 -31 -26q-10 0 92 -51q-65 83 -58 81l-16 6l41 51q34 -45 36 -55l-3 3q-36 0 -33 52q29 69 29 84v0q-59 239 -171 385l-11 14q-61 78 -138 122q-20 27 -53 53l-8 3l-19 -2q-26 34 -17 31l-16 -19q-74 51 -51 19z" />
    <glyph glyph-name="aacute" unicode="&#xe1;" horiz-adv-x="1336" 
d="M1262 1584q5 -20 -14 -20q14 5 37 5q91 -59 91 -176v-12q-84 -609 -88 -711q51 11 97 11q0 -46 58 -22h-128q28 9 116 9q-59 -62 -161 -112q-11 -125 -13 -194h-6q0 46 10 46q-96 -669 -96 -718h-74v33q0 22 -2 43h49l-2 -76h-73v14q39 0 36 -81h-71l-5 54h50l-2 -50h-60
q-44 64 -70 153h44l-1 -14h-72l2 72h50l-5 -31v-27h-66q-35 88 -35 227v28h47v-13h-81l15 59l1 13h52q1 11 -20 -63h-68v37q0 17 -12 48q22 247 21 234q-233 -116 -352 -126q-122 -157 -231 -229l-94 4h-22l-32 -9q-23 31 -23 10l9 3q-89 77 -89 118v15q5 158 619 861
q39 55 356 394q5 124 175 124l27 -34l12 16h-57q2 29 78 66q22 -8 -7 -8q0 -2 80 29zM992 1312q0 11 -30 -31v28h-53q0 -5 30 20l-1 -17h54zM955 873q0 -10 -219 -308q22 8 106 22v-14l60 325l-6 -25h59zM793 2237q-50 -43 -57 -44q0 42 -26 42q-5 0 118 41
q-121 -107 -123 -139q-83 3 -83 -9q6 2 6 9l2 6l16 -15q-272 -248 -272 -300q0 4 3 4q23 0 114 28l-1 -13l-37 -8l93 50l-18 -71q-104 -66 -104 -65q0 23 -26 23q-4 0 9 4q14 -8 13 -8q13 0 -160 -251q122 129 121 117l8 33l-31 -6q6 2 6 13l70 14q0 -56 -10 -58v19
q0 20 -21 20h1l3 1l162 93q-14 -70 -23 -79l4 36q-38 -8 73 75q179 114 180 120q166 97 484 281l-241 7v29q0 15 -34 15h-41v26q0 -3 4 -4l-15 -3l-56 -24v42q0 -14 15 -14q-2 0 1 0l-48 -27q-73 10 -73 -16q15 10 -6 6z" />
    <glyph glyph-name="acircumflex" unicode="&#xe2;" horiz-adv-x="1336" 
d="M1262 1584q5 -20 -14 -20q14 5 37 5q91 -59 91 -176v-12q-84 -609 -88 -711q51 11 97 11q0 -46 58 -22h-128q28 9 116 9q-59 -62 -161 -112q-11 -125 -13 -194h-6q0 46 10 46q-96 -669 -96 -718h-74v33q0 22 -2 43h49l-2 -76h-73v14q39 0 36 -81h-71l-5 54h50l-2 -50h-60
q-44 64 -70 153h44l-1 -14h-72l2 72h50l-5 -31v-27h-66q-35 88 -35 227v28h47v-13h-81l15 59l1 13h52q1 11 -20 -63h-68v37q0 17 -12 48q22 247 21 234q-233 -116 -352 -126q-122 -157 -231 -229l-94 4h-22l-32 -9q-23 31 -23 10l9 3q-89 77 -89 118v15q5 158 619 861
q39 55 356 394q5 124 175 124l27 -34l12 16h-57q2 29 78 66q22 -8 -7 -8q0 -2 80 29zM992 1312q0 11 -30 -31v28h-53q0 -5 30 20l-1 -17h54zM955 873q0 -10 -219 -308q22 8 106 22v-14l60 325l-6 -25h59zM687 2306q66 0 66 -13l-13 -3h26q11 -20 -3 -20q24 0 256 -287
q66 -73 66 -114q0 -23 -28 -38q0 -39 -58 -39q-4 0 -20 -9l-16 9h4q-10 -8 -31 -8q-47 9 -114 120q-70 74 -72 76q-119 -152 -155 -152q-69 -36 -101 -36q-7 4 13 4q-48 -96 -131 -96q-15 27 -15 20h48q0 -16 -55 -16q-9 8 -45 8v35l-6 -11q-6 0 -6 45q0 -1 -7 13
q15 25 15 2q-8 0 -8 38q74 156 332 453q31 19 58 19z" />
    <glyph glyph-name="atilde" unicode="&#xe3;" horiz-adv-x="1336" 
d="M1262 1584q5 -20 -14 -20q14 5 37 5q91 -59 91 -176v-12q-84 -609 -88 -711q51 11 97 11q0 -46 58 -22h-128q28 9 116 9q-59 -62 -161 -112q-11 -125 -13 -194h-6q0 46 10 46q-96 -669 -96 -718h-74v33q0 22 -2 43h49l-2 -76h-73v14q39 0 36 -81h-71l-5 54h50l-2 -50h-60
q-44 64 -70 153h44l-1 -14h-72l2 72h50l-5 -31v-27h-66q-35 88 -35 227v28h47v-13h-81l15 59l1 13h52q1 11 -20 -63h-68v37q0 17 -12 48q22 247 21 234q-233 -116 -352 -126q-122 -157 -231 -229l-94 4h-22l-32 -9q-23 31 -23 10l9 3q-89 77 -89 118v15q5 158 619 861
q39 55 356 394q5 124 175 124l27 -34l12 16h-57q2 29 78 66q22 -8 -7 -8q0 -2 80 29zM992 1312q0 11 -30 -31v28h-53q0 -5 30 20l-1 -17h54zM955 873q0 -10 -219 -308q22 8 106 22v-14l60 325l-6 -25h59zM525 2147h12q26 0 44 -37l9 17h-43l45 7q33 -47 75 -71v27l-30 -15
q36 0 162 -136q24 -16 26 -16q-8 0 117 132q60 21 145 72v-58q-4 -8 -4 45l-28 -19h44v-34l4 7l-33 16q41 28 121 55q0 -36 11 -46q-65 -233 -140 -285q-40 -35 -66 -56l-1 3v-34q-35 0 -87 -38q-49 25 -49 -5l25 19h-26l25 -19q0 26 -83 7q-25 32 -25 -3l28 19h-49l6 31
q-107 48 -199 121h18q-35 -21 -159 -160q-31 0 -46 12h-21h-18l-12 8h13l-56 -40h-60l8 16h71q0 -8 -38 -8h-34v31q8 43 18 65h50q-56 -36 -138 -36l16 20h62l-12 -8h-44v29q0 30 94 153q10 44 146 160q59 52 106 52z" />
    <glyph glyph-name="adieresis" unicode="&#xe4;" horiz-adv-x="1336" 
d="M1262 1584q5 -20 -14 -20q14 5 37 5q91 -59 91 -176v-12q-84 -609 -88 -711q51 11 97 11q0 -46 58 -22h-128q28 9 116 9q-59 -62 -161 -112q-11 -125 -13 -194h-6q0 46 10 46q-96 -669 -96 -718h-74v33q0 22 -2 43h49l-2 -76h-73v14q39 0 36 -81h-71l-5 54h50l-2 -50h-60
q-44 64 -70 153h44l-1 -14h-72l2 72h50l-5 -31v-27h-66q-35 88 -35 227v28h47v-13h-81l15 59l1 13h52q1 11 -20 -63h-68v37q0 17 -12 48q22 247 21 234q-233 -116 -352 -126q-122 -157 -231 -229l-94 4h-22l-32 -9q-23 31 -23 10l9 3q-89 77 -89 118v15q5 158 619 861
q39 55 356 394q5 124 175 124l27 -34l12 16h-57q2 29 78 66q22 -8 -7 -8q0 -2 80 29zM992 1312q0 11 -30 -31v28h-53q0 -5 30 20l-1 -17h54zM955 873q0 -10 -219 -308q22 8 106 22v-14l60 325l-6 -25h59zM979 2059l-1 2l-11 -7h55q1 -28 -43 -28q0 6 65 6q0 -23 71 -74v-22
q0 -35 2 -35q6 -13 15 -48l-15 -30q3 -7 3 -32l-57 -26l-3 8q13 8 41 8l-8 18v-13l-20 -45l-35 19h16q-67 -60 -146 -60q0 19 13 12l-40 -18q0 45 -52 58q-25 25 -42 62q-14 0 -14 34l-8 -18q3 0 3 41q0 125 170 188h41zM453 2050q0 -26 -39 -6q-1 -7 37 -7h5q41 0 41 -27
q-28 0 -11 12l17 -10q13 4 34 4q82 0 100 -115l12 -18v-37h-71v-18q11 8 11 11l6 -40l-87 -93v-28h-52q-35 0 -35 -11l-13 -5q-71 4 -109 49h-32l18 40v-19q-22 0 -22 68q6 11 6 -3q12 -5 -17 -5v42l-11 -15q13 0 4 64l5 3l2 -3v10q0 116 201 157z" />
    <glyph glyph-name="aring" unicode="&#xe5;" horiz-adv-x="1336" 
d="M1262 1584q5 -20 -14 -20q14 5 37 5q91 -59 91 -176v-12q-84 -609 -88 -711q51 11 97 11q0 -46 58 -22h-128q28 9 116 9q-59 -62 -161 -112q-11 -125 -13 -194h-6q0 46 10 46q-96 -669 -96 -718h-74v33q0 22 -2 43h49l-2 -76h-73v14q39 0 36 -81h-71l-5 54h50l-2 -50h-60
q-44 64 -70 153h44l-1 -14h-72l2 72h50l-5 -31v-27h-66q-35 88 -35 227v28h47v-13h-81l15 59l1 13h52q1 11 -20 -63h-68v37q0 17 -12 48q22 247 21 234q-233 -116 -352 -126q-122 -157 -231 -229l-94 4h-22l-32 -9q-23 31 -23 10l9 3q-89 77 -89 118v15q5 158 619 861
q39 55 356 394q5 124 175 124l27 -34l12 16h-57q2 29 78 66q22 -8 -7 -8q0 -2 80 29zM992 1312q0 11 -30 -31v28h-53q0 -5 30 20l-1 -17h54zM955 873q0 -10 -219 -308q22 8 106 22v-14l60 325l-6 -25h59zM1324 2240h12q48 0 193 -60q149 -117 149 -217q0 -119 -68 -189
q-5 0 -50 -66q-129 -118 -260 -118h-8q-75 0 -193 79q-89 93 -89 222q0 204 172 292q44 4 91 44q25 13 51 13zM1482 1991v0q0 16 -107 68q-65 -14 -142 -77h-15q-23 0 -27 -66q42 -41 179 -139h-5q87 0 117 214z" />
    <glyph glyph-name="ae" unicode="&#xe6;" horiz-adv-x="2308" 
d="M1262 1584q5 -20 -14 -20q14 5 37 5q91 -59 91 -176v-12q-84 -609 -88 -711q51 11 97 11q0 -46 58 -22h-128q28 9 116 9q-59 -62 -161 -112q-11 -125 -13 -194h-6q0 46 10 46q-96 -669 -96 -718h-74v33q0 22 -2 43h49l-2 -76h-73v14q39 0 36 -81h-71l-5 54h50l-2 -50h-60
q-44 64 -70 153h44l-1 -14h-72l2 72h50l-5 -31v-27h-66q-35 88 -35 227v28h47v-13h-81l15 59l1 13h52q1 11 -20 -63h-68v37q0 17 -12 48q22 247 21 234q-233 -116 -352 -126q-122 -157 -231 -229l-94 4h-22l-32 -9q-23 31 -23 10l9 3q-89 77 -89 118v15q5 158 619 861
q39 55 356 394q5 124 175 124l27 -34l12 16h-57q2 29 78 66q22 -8 -7 -8q0 -2 80 29zM992 1312q0 11 -30 -31v28h-53q0 -5 30 20l-1 -17h54zM955 873q0 -10 -219 -308q22 8 106 22v-14l60 325l-6 -25h59zM1491 1537q65 -1 125 -30q248 22 427 26q276 -11 482 -11l7 -56
l-67 -4v44h105q-62 -65 -189 -91q-68 -24 -136 -35l-10 40l218 -11l14 -57h-88q17 2 17 18v24h59l13 -49q-116 -35 -560 -90q-126 -3 -207 -3l-18 -6q-18 6 -27 6h-50q3 2 -17 -43q-2 10 72 -45q-62 -21 -36 -21l-12 36l31 -21q-85 -252 -85 -263v27l91 7v1q4 1 93 1h33
q40 0 337 -35h28l15 -58h-40l-11 43h49l7 -52q-163 -33 -207 -59q-81 -12 -141 -25l-10 39h13l11 -42q-230 -108 -337 -108q-44 -240 -140 -434l-4 24q76 8 169 8q357 -7 421 -7h83l15 -58q-45 0 -66 -2l-11 44h52l7 -27v-3q0 -31 -18 -31v43l38 -4l7 -55h-40q-7 0 -34 -2
v44q68 0 182 -5l7 -54q-88 -6 -67 -6v46h63l6 -51q-114 -28 -358 -66q-13 -11 -299 -70q-75 -36 -480 -75q-27 0 -27 7v-6q-14 -36 -46 -36h-32l-4 19h45l-3 -19h-55q-39 48 -42 63l-4 19l-14 11l-6 21l-12 -21q-14 0 -57 38q-9 0 -38 26l-2 18v5q0 32 58 77q33 46 80 58
q63 213 123 503q120 327 251 610h35q-63 12 -70 40l-1 -5q-16 0 -25 35v6q0 24 10 35q1 -1 -4 43h-12l27 -27l-3 26q64 63 199 63q18 31 109 31q0 -4 -53 -4q0 8 41 8zM1215 248l12 -54v-3q0 -32 -42 -32h-74q43 57 43 62v27h61z" />
    <glyph glyph-name="ccedilla" unicode="&#xe7;" horiz-adv-x="1785" 
d="M677 1485h38l376 -73q349 -90 424 -169q68 -86 68 -123q0 -7 15 -33q-31 -12 -31 2q6 -10 6 -30l-37 -37h-54v11h54v15q6 -64 6 -78q-27 -56 -73 -82h-40q-39 0 -48 8q3 2 -49 2q0 16 -1 16q30 0 30 -14q-154 40 -257 40h-3l-68 -10v-7l26 12h-12q-197 0 -468 -118
q-80 -124 -80 -208v-25q10 -167 18 -167q106 -41 221 -41q12 0 192 41q173 0 678 218q1 5 131 67l26 -57q-170 -87 -141 -87l-3 5q-33 -18 -33 14h-26l212 81v-52q-20 -23 -172 -87l12 22h-48q60 28 136 53v-55l-70 -39h-93q61 16 219 96v-55q-22 -34 -103 -67v36h-32
q118 46 219 46l-37 -31h-78q14 11 78 11q0 -59 -230 -259q-65 -64 -282 -180q-86 -33 -438 -111v-11h-35q-187 0 -468 144q-128 111 -189 204q-85 54 -85 219q-25 50 -25 118v31q0 207 181 392h-11v-45h32q-103 -40 -223 -137q0 44 50 44q0 5 -89 -57l-28 56
q130 115 240 218q23 19 -5 19l8 -13q40 52 118 94v-33h28l-44 -23l-27 60q348 157 497 157q0 6 67 9v-37q-122 30 -170 30v60zM244 964q-23 -15 -38 -15v-46h34q-11 -6 4 61z" />
    <glyph glyph-name="egrave" unicode="&#xe8;" horiz-adv-x="1424" 
d="M607 1537q65 -1 125 -30q248 22 427 26q276 -11 482 -11l7 -56l-67 -4v44h105q-62 -65 -189 -91q-68 -24 -136 -35l-10 40l218 -11l14 -57h-88q17 2 17 18v24h59l13 -49q-116 -35 -560 -90q-126 -3 -207 -3l-18 -6q-18 6 -27 6h-50q3 2 -17 -43q-2 10 72 -45
q-62 -21 -36 -21l-12 36l31 -21q-85 -252 -85 -263v27l91 7v1q4 1 93 1h33q40 0 337 -35h28l15 -58h-40l-11 43h49l7 -52q-163 -33 -207 -59q-81 -12 -141 -25l-10 39h13l11 -42q-230 -108 -337 -108q-44 -240 -140 -434l-4 24q76 8 169 8q357 -7 421 -7h83l15 -58
q-45 0 -66 -2l-11 44h52l7 -27v-3q0 -31 -18 -31v43l38 -4l7 -55h-40q-7 0 -34 -2v44q68 0 182 -5l7 -54q-88 -6 -67 -6v46h63l6 -51q-114 -28 -358 -66q-13 -11 -299 -70q-75 -36 -480 -75q-27 0 -27 7v-6q-14 -36 -46 -36h-32l-4 19h45l-3 -19h-55q-39 48 -42 63l-4 19
l-14 11l-6 21l-12 -21q-14 0 -57 38q-9 0 -38 26l-2 18v5q0 32 58 77q33 46 80 58q63 213 123 503q120 327 251 610h35q-63 12 -70 40l-1 -5q-16 0 -25 35v6q0 24 10 35q1 -1 -4 43h-12l27 -27l-3 26q64 63 199 63q18 31 109 31q0 -4 -53 -4q0 8 41 8zM330 198v23
q0 -19 5 -12h-34q-18 0 -18 -18v-1l-2 8h49zM425 2363q11 22 -17 22q-12 0 24 -15q-5 36 -5 29q0 -46 -39 -46q-11 0 81 -46q-61 86 -47 82q7 -42 116 -184q-168 108 -165 104q24 8 24 17q0 4 -3 8l4 -4l21 -21q80 -393 252 -423l14 -18l-19 10l22 17l33 -40
q-14 -37 -14 -51q0 -7 5 -9q20 -17 16 -17q-26 0 -26 -19q0 8 164 -319q-72 218 -51 191h-1l-5 2q-24 -8 -24 -21q0 -4 -51 63l107 -40q11 -16 11 -23q0 -26 -31 -26q-10 0 92 -51q-65 83 -58 81l-16 6l41 51q34 -45 36 -55l-3 3q-36 0 -33 52q29 69 29 84v0
q-59 239 -171 385l-11 14q-61 78 -138 122q-20 27 -53 53l-8 3l-19 -2q-26 34 -17 31l-16 -19q-74 51 -51 19z" />
    <glyph glyph-name="eacute" unicode="&#xe9;" horiz-adv-x="1424" 
d="M607 1537q65 -1 125 -30q248 22 427 26q276 -11 482 -11l7 -56l-67 -4v44h105q-62 -65 -189 -91q-68 -24 -136 -35l-10 40l218 -11l14 -57h-88q17 2 17 18v24h59l13 -49q-116 -35 -560 -90q-126 -3 -207 -3l-18 -6q-18 6 -27 6h-50q3 2 -17 -43q-2 10 72 -45
q-62 -21 -36 -21l-12 36l31 -21q-85 -252 -85 -263v27l91 7v1q4 1 93 1h33q40 0 337 -35h28l15 -58h-40l-11 43h49l7 -52q-163 -33 -207 -59q-81 -12 -141 -25l-10 39h13l11 -42q-230 -108 -337 -108q-44 -240 -140 -434l-4 24q76 8 169 8q357 -7 421 -7h83l15 -58
q-45 0 -66 -2l-11 44h52l7 -27v-3q0 -31 -18 -31v43l38 -4l7 -55h-40q-7 0 -34 -2v44q68 0 182 -5l7 -54q-88 -6 -67 -6v46h63l6 -51q-114 -28 -358 -66q-13 -11 -299 -70q-75 -36 -480 -75q-27 0 -27 7v-6q-14 -36 -46 -36h-32l-4 19h45l-3 -19h-55q-39 48 -42 63l-4 19
l-14 11l-6 21l-12 -21q-14 0 -57 38q-9 0 -38 26l-2 18v5q0 32 58 77q33 46 80 58q63 213 123 503q120 327 251 610h35q-63 12 -70 40l-1 -5q-16 0 -25 35v6q0 24 10 35q1 -1 -4 43h-12l27 -27l-3 26q64 63 199 63q18 31 109 31q0 -4 -53 -4q0 8 41 8zM330 198v23
q0 -19 5 -12h-34q-18 0 -18 -18v-1l-2 8h49zM852 2237q-50 -43 -57 -44q0 42 -26 42q-5 0 118 41q-121 -107 -123 -139q-83 3 -83 -9q6 2 6 9l2 6l16 -15q-272 -248 -272 -300q0 4 3 4q23 0 114 28l-1 -13l-37 -8l93 50l-18 -71q-104 -66 -104 -65q0 23 -26 23q-4 0 9 4
q14 -8 13 -8q13 0 -160 -251q122 129 121 117l8 33l-31 -6q6 2 6 13l70 14q0 -56 -10 -58v19q0 20 -21 20h1l3 1l162 93q-14 -70 -23 -79l4 36q-38 -8 73 75q179 114 180 120q166 97 484 281l-241 7v29q0 15 -34 15h-41v26q0 -3 4 -4l-15 -3l-56 -24v42q0 -14 15 -14
q-2 0 1 0l-48 -27q-73 10 -73 -16q15 10 -6 6z" />
    <glyph glyph-name="ecircumflex" unicode="&#xea;" horiz-adv-x="1424" 
d="M607 1537q65 -1 125 -30q248 22 427 26q276 -11 482 -11l7 -56l-67 -4v44h105q-62 -65 -189 -91q-68 -24 -136 -35l-10 40l218 -11l14 -57h-88q17 2 17 18v24h59l13 -49q-116 -35 -560 -90q-126 -3 -207 -3l-18 -6q-18 6 -27 6h-50q3 2 -17 -43q-2 10 72 -45
q-62 -21 -36 -21l-12 36l31 -21q-85 -252 -85 -263v27l91 7v1q4 1 93 1h33q40 0 337 -35h28l15 -58h-40l-11 43h49l7 -52q-163 -33 -207 -59q-81 -12 -141 -25l-10 39h13l11 -42q-230 -108 -337 -108q-44 -240 -140 -434l-4 24q76 8 169 8q357 -7 421 -7h83l15 -58
q-45 0 -66 -2l-11 44h52l7 -27v-3q0 -31 -18 -31v43l38 -4l7 -55h-40q-7 0 -34 -2v44q68 0 182 -5l7 -54q-88 -6 -67 -6v46h63l6 -51q-114 -28 -358 -66q-13 -11 -299 -70q-75 -36 -480 -75q-27 0 -27 7v-6q-14 -36 -46 -36h-32l-4 19h45l-3 -19h-55q-39 48 -42 63l-4 19
l-14 11l-6 21l-12 -21q-14 0 -57 38q-9 0 -38 26l-2 18v5q0 32 58 77q33 46 80 58q63 213 123 503q120 327 251 610h35q-63 12 -70 40l-1 -5q-16 0 -25 35v6q0 24 10 35q1 -1 -4 43h-12l27 -27l-3 26q64 63 199 63q18 31 109 31q0 -4 -53 -4q0 8 41 8zM330 198v23
q0 -19 5 -12h-34q-18 0 -18 -18v-1l-2 8h49zM746 2306q66 0 66 -13l-13 -3h26q11 -20 -3 -20q24 0 256 -287q66 -73 66 -114q0 -23 -28 -38q0 -39 -58 -39q-4 0 -20 -9l-16 9h4q-10 -8 -31 -8q-47 9 -114 120q-70 74 -72 76q-119 -152 -155 -152q-69 -36 -101 -36q-7 4 13 4
q-48 -96 -131 -96q-15 27 -15 20h48q0 -16 -55 -16q-9 8 -45 8v35l-6 -11q-6 0 -6 45q0 -1 -7 13q15 25 15 2q-8 0 -8 38q74 156 332 453q31 19 58 19z" />
    <glyph glyph-name="edieresis" unicode="&#xeb;" horiz-adv-x="1424" 
d="M607 1537q65 -1 125 -30q248 22 427 26q276 -11 482 -11l7 -56l-67 -4v44h105q-62 -65 -189 -91q-68 -24 -136 -35l-10 40l218 -11l14 -57h-88q17 2 17 18v24h59l13 -49q-116 -35 -560 -90q-126 -3 -207 -3l-18 -6q-18 6 -27 6h-50q3 2 -17 -43q-2 10 72 -45
q-62 -21 -36 -21l-12 36l31 -21q-85 -252 -85 -263v27l91 7v1q4 1 93 1h33q40 0 337 -35h28l15 -58h-40l-11 43h49l7 -52q-163 -33 -207 -59q-81 -12 -141 -25l-10 39h13l11 -42q-230 -108 -337 -108q-44 -240 -140 -434l-4 24q76 8 169 8q357 -7 421 -7h83l15 -58
q-45 0 -66 -2l-11 44h52l7 -27v-3q0 -31 -18 -31v43l38 -4l7 -55h-40q-7 0 -34 -2v44q68 0 182 -5l7 -54q-88 -6 -67 -6v46h63l6 -51q-114 -28 -358 -66q-13 -11 -299 -70q-75 -36 -480 -75q-27 0 -27 7v-6q-14 -36 -46 -36h-32l-4 19h45l-3 -19h-55q-39 48 -42 63l-4 19
l-14 11l-6 21l-12 -21q-14 0 -57 38q-9 0 -38 26l-2 18v5q0 32 58 77q33 46 80 58q63 213 123 503q120 327 251 610h35q-63 12 -70 40l-1 -5q-16 0 -25 35v6q0 24 10 35q1 -1 -4 43h-12l27 -27l-3 26q64 63 199 63q18 31 109 31q0 -4 -53 -4q0 8 41 8zM330 198v23
q0 -19 5 -12h-34q-18 0 -18 -18v-1l-2 8h49zM1038 2059l-1 2l-11 -7h55q1 -28 -43 -28q0 6 65 6q0 -23 71 -74v-22q0 -35 2 -35q6 -13 15 -48l-15 -30q3 -7 3 -32l-57 -26l-3 8q13 8 41 8l-8 18v-13l-20 -45l-35 19h16q-67 -60 -146 -60q0 19 13 12l-40 -18q0 45 -52 58
q-25 25 -42 62q-14 0 -14 34l-8 -18q3 0 3 41q0 125 170 188h41zM512 2050q0 -26 -39 -6q-1 -7 37 -7h5q41 0 41 -27q-28 0 -11 12l17 -10q13 4 34 4q82 0 100 -115l12 -18v-37h-71v-18q11 8 11 11l6 -40l-87 -93v-28h-52q-35 0 -35 -11l-13 -5q-71 4 -109 49h-32l18 40v-19
q-22 0 -22 68q6 11 6 -3q12 -5 -17 -5v42l-11 -15q13 0 4 64l5 3l2 -3v10q0 116 201 157z" />
    <glyph glyph-name="igrave" unicode="&#xec;" horiz-adv-x="661" 
d="M719 1729q38 -15 38 -12q-56 0 -56 10q55 -10 54 -10l8 4q55 0 55 -47v35l-28 -13h15q46 -11 46 -65v-11q-13 -145 -121 -255q-44 -14 -99 -60l-8 16l-7 -4q-27 48 -17 48q-62 -45 -116 -45l9 36q4 8 -3 -20q57 0 56 -12h-64l-4 46q3 39 3 100v36q49 134 76 161q2 0 3 15
l72 32l-3 -30h-20q-20 0 -19 12h66q0 -17 -20 -17q-12 0 -9 33h57q17 -16 6 -16h-26v-22l-3 34q36 21 59 21zM456 1278h34q24 -25 13 -25q19 21 73 21h34v-28q0 11 -46 11q1 8 69 8q-5 -33 -5 -36q0 16 -30 16l54 10v-32q0 12 -30 16l3 9q74 -9 74 10l16 9q0 -26 21 -26
l-16 -29l39 -33q-42 -11 -28 16q4 0 4 -75q-8 -88 -311 -1121l-175 -435h-60v31l8 37v-23h48q-2 -5 -7 -41h-62q-7 51 -7 63v4l6 63q-13 48 -13 107q0 22 2 46l13 156v1q0 -19 45 -19l-63 -169h-63q4 37 22 100l-7 -26h55l-22 -62h-63q4 36 5 89q106 614 201 917
q44 139 101 407q32 0 45 22zM86 2363q11 22 -17 22q-12 0 24 -15q-5 36 -5 29q0 -46 -39 -46q-11 0 81 -46q-61 86 -47 82q7 -42 116 -184q-168 108 -165 104q24 8 24 17q0 4 -3 8l4 -4l21 -21q80 -393 252 -423l14 -18l-19 10l22 17l33 -40q-14 -37 -14 -51q0 -7 5 -9
q20 -17 16 -17q-26 0 -26 -19q0 8 164 -319q-72 218 -51 191h-1l-5 2q-24 -8 -24 -21q0 -4 -51 63l107 -40q11 -16 11 -23q0 -26 -31 -26q-10 0 92 -51q-65 83 -58 81l-16 6l41 51q34 -45 36 -55l-3 3q-36 0 -33 52q29 69 29 84v0q-59 239 -171 385l-11 14q-61 78 -138 122
q-20 27 -53 53l-8 3l-19 -2q-26 34 -17 31l-16 -19q-74 51 -51 19z" />
    <glyph glyph-name="iacute" unicode="&#xed;" horiz-adv-x="661" 
d="M682 1729q38 -15 38 -12q-56 0 -56 10q55 -10 54 -10l8 4q55 0 55 -47v35l-28 -13h15q46 -11 46 -65v-11q-13 -145 -121 -255q-44 -14 -99 -60l-8 16l-7 -4q-27 48 -17 48q-62 -45 -116 -45l9 36q4 8 -3 -20q57 0 56 -12h-64l-4 46q3 39 3 100v36q49 134 76 161q2 0 3 15
l72 32l-3 -30h-20q-20 0 -19 12h66q0 -17 -20 -17q-12 0 -9 33h57q17 -16 6 -16h-26v-22l-3 34q36 21 59 21zM419 1278h34q24 -25 13 -25q19 21 73 21h34v-28q0 11 -46 11q1 8 69 8q-5 -33 -5 -36q0 16 -30 16l54 10v-32q0 12 -30 16l3 9q74 -9 74 10l16 9q0 -26 21 -26
l-16 -29l39 -33q-42 -11 -28 16q4 0 4 -75q-8 -88 -311 -1121l-175 -435h-60v31l8 37v-23h48q-2 -5 -7 -41h-62q-7 51 -7 63v4l6 63q-13 48 -13 107q0 22 2 46l13 156v1q0 -19 45 -19l-63 -169h-63q4 37 22 100l-7 -26h55l-22 -62h-63q4 36 5 89q106 614 201 917
q44 139 101 407q32 0 45 22zM477 2237q-50 -43 -57 -44q0 42 -26 42q-5 0 118 41q-121 -107 -123 -139q-83 3 -83 -9q6 2 6 9l2 6l16 -15q-272 -248 -272 -300q0 4 3 4q23 0 114 28l-1 -13l-37 -8l93 50l-18 -71q-104 -66 -104 -65q0 23 -26 23q-4 0 9 4q14 -8 13 -8
q13 0 -160 -251q122 129 121 117l8 33l-31 -6q6 2 6 13l70 14q0 -56 -10 -58v19q0 20 -21 20h1l3 1l162 93q-14 -70 -23 -79l4 36q-38 -8 73 75q179 114 180 120q166 97 484 281l-241 7v29q0 15 -34 15h-41v26q0 -3 4 -4l-15 -3l-56 -24v42q0 -14 15 -14q-2 0 1 0l-48 -27
q-73 10 -73 -16q15 10 -6 6z" />
    <glyph glyph-name="icircumflex" unicode="&#xee;" horiz-adv-x="661" 
d="M703 1729q38 -15 38 -12q-56 0 -56 10q55 -10 54 -10l8 4q55 0 55 -47v35l-28 -13h15q46 -11 46 -65v-11q-13 -145 -121 -255q-44 -14 -99 -60l-8 16l-7 -4q-27 48 -17 48q-62 -45 -116 -45l9 36q4 8 -3 -20q57 0 56 -12h-64l-4 46q3 39 3 100v36q49 134 76 161q2 0 3 15
l72 32l-3 -30h-20q-20 0 -19 12h66q0 -17 -20 -17q-12 0 -9 33h57q17 -16 6 -16h-26v-22l-3 34q36 21 59 21zM440 1278h34q24 -25 13 -25q19 21 73 21h34v-28q0 11 -46 11q1 8 69 8q-5 -33 -5 -36q0 16 -30 16l54 10v-32q0 12 -30 16l3 9q74 -9 74 10l16 9q0 -26 21 -26
l-16 -29l39 -33q-42 -11 -28 16q4 0 4 -75q-8 -88 -311 -1121l-175 -435h-60v31l8 37v-23h48q-2 -5 -7 -41h-62q-7 51 -7 63v4l6 63q-13 48 -13 107q0 22 2 46l13 156v1q0 -19 45 -19l-63 -169h-63q4 37 22 100l-7 -26h55l-22 -62h-63q4 36 5 89q106 614 201 917
q44 139 101 407q32 0 45 22zM392 2306q66 0 66 -13l-13 -3h26q11 -20 -3 -20q24 0 256 -287q66 -73 66 -114q0 -23 -28 -38q0 -39 -58 -39q-4 0 -20 -9l-16 9h4q-10 -8 -31 -8q-47 9 -114 120q-70 74 -72 76q-119 -152 -155 -152q-69 -36 -101 -36q-7 4 13 4
q-48 -96 -131 -96q-15 27 -15 20h48q0 -16 -55 -16q-9 8 -45 8v35l-6 -11q-6 0 -6 45q0 -1 -7 13q15 25 15 2q-8 0 -8 38q74 156 332 453q31 19 58 19z" />
    <glyph glyph-name="idieresis" unicode="&#xef;" horiz-adv-x="661" 
d="M749 1729q38 -15 38 -12q-56 0 -56 10q55 -10 54 -10l8 4q55 0 55 -47v35l-28 -13h15q46 -11 46 -65v-11q-13 -145 -121 -255q-44 -14 -99 -60l-8 16l-7 -4q-27 48 -17 48q-62 -45 -116 -45l9 36q4 8 -3 -20q57 0 56 -12h-64l-4 46q3 39 3 100v36q49 134 76 161q2 0 3 15
l72 32l-3 -30h-20q-20 0 -19 12h66q0 -17 -20 -17q-12 0 -9 33h57q17 -16 6 -16h-26v-22l-3 34q36 21 59 21zM486 1278h34q24 -25 13 -25q19 21 73 21h34v-28q0 11 -46 11q1 8 69 8q-5 -33 -5 -36q0 16 -30 16l54 10v-32q0 12 -30 16l3 9q74 -9 74 10l16 9q0 -26 21 -26
l-16 -29l39 -33q-42 -11 -28 16q4 0 4 -75q-8 -88 -311 -1121l-175 -435h-60v31l8 37v-23h48q-2 -5 -7 -41h-62q-7 51 -7 63v4l6 63q-13 48 -13 107q0 22 2 46l13 156v1q0 -19 45 -19l-63 -169h-63q4 37 22 100l-7 -26h55l-22 -62h-63q4 36 5 89q106 614 201 917
q44 139 101 407q32 0 45 22zM730 2059l-1 2l-11 -7h55q1 -28 -43 -28q0 6 65 6q0 -23 71 -74v-22q0 -35 2 -35q6 -13 15 -48l-15 -30q3 -7 3 -32l-57 -26l-3 8q13 8 41 8l-8 18v-13l-20 -45l-35 19h16q-67 -60 -146 -60q0 19 13 12l-40 -18q0 45 -52 58q-25 25 -42 62
q-14 0 -14 34l-8 -18q3 0 3 41q0 125 170 188h41zM204 2050q0 -26 -39 -6q-1 -7 37 -7h5q41 0 41 -27q-28 0 -11 12l17 -10q13 4 34 4q82 0 100 -115l12 -18v-37h-71v-18q11 8 11 11l6 -40l-87 -93v-28h-52q-35 0 -35 -11l-13 -5q-71 4 -109 49h-32l18 40v-19q-22 0 -22 68
q6 11 6 -3q12 -5 -17 -5v42l-11 -15q13 0 4 64l5 3l2 -3v10q0 116 201 157z" />
    <glyph glyph-name="eth" unicode="&#xf0;" horiz-adv-x="1392" 
d="M829 1299l-192 -260q-31 12 -37 16q-25 11 -158 45q-27 0 -87 22.5t-60 43.5v27h11v-41q-37 10 -81 27v36l89 27v-36q-31 5 -76 22v42q22 3 22 -41l7 1h-35v52q19 2 19 -33q-85 20 -137 42q-79 21 -113 43v40h5v-47h-11v43q56 33 86 39v-35q-92 23 -119 46v33l17 3v-43
h27l-46 -7v50q95 40 170 40q141 0 288 -47q108 -34 126 -34q-25 0 -25 2q48 0 61 -8h-90l-439 302l655 -370h-59l12 -17v34q47 0 56 -6h-2q34 -9 116 -53zM505 1095l263 241q75 -34 75 -54q106 -112 207 -232.5t140 -283.5l36 -184l5 -91l-14 -82q7 -90 7 -152q-3 0 -3 22
l6 -25l-6 -4v-1q0 -30 -7 -30q1 13 1 5q0 -9 3 -22q-31 -73 -78 -121l-31 -38q-50 -30 -36 -19h-31v-48l-26 -8v40h-32q22 5 32 5h95q-129 -78 -239 -108v34q22 -5 22 -30v-23l-19 -3v43h-22l49 9v-53q-65 -22 -89 -22h-21q-86 0 -161 10q-51 4 -90 14l-33 10
q-71 19 -100 76q-9 15 -41 63q-108 135 -230 377q-30 171 -30 310v17q0 19 7 56q9 57 48 112v-30q29 0 -8 -27h-43v29l-2 -12q59 0 59 -11h-66q0 70 57 123q81 67 197 67l16 -2h17q165 0 379 -114h-51q10 -17 -112 96q-26 22 -100 71zM821 474q-54 86 -158 173
q-122 45 -147 45q-37 -6 -43 -14q-41 -25 -57 -83q0 -64 24 -105q36 -92 104 -155q136 -96 204 -96l11 9q72 80 72 211q0 -2 -10 15zM523 141h39v27q19 -28 21 -28v-56q9 0 -60 57zM557 1494l36 17q33 16 196 83l25 -49l-25 -11l-17 43l17 9l22 -44q-36 -38 -127 -111
l-20 40l-13 -6q26 12 122 55q6 -12 -12 -12q-5 0 23 14l23 -45q-96 -88 -81 -80l-23 44l4 2l33 11l22 -43q-42 -30 -24 -23l-23 45l-15 -7l44 31l25 -49q-196 -198 -353 -287q-195 -115 -243 -138l-8 -1q-3 -3 -27 -12l-51 25v3q-9 2 -21 28q24 50 43 62l-78 -20l56 -17v28
q0 37 -38 21q42 -13 24 23l10 5l13 -26l-19 6q4 37 25 62v-7q0 23 126 105l244 173q62 42 85 53z" />
    <glyph glyph-name="ntilde" unicode="&#xf1;" horiz-adv-x="1219" 
d="M1165 1538h69l-7 -40h-50l1 1l5 31h38q35 0 35 -56q0 -85 -37 -396q-30 -167 -120 -610h14l-11 22q0 -34 -6 -34v24q0 22 12 22q-23 -89 -28 -117l-3 -16q-4 -16 -9 -21v8q0 22 13 22q-24 -84 -28 -109l-22 -122l-6 -16l3 -6q-7 -41 -59 -139l28 -141q-85 40 -92 63h44
l3 22q11 -17 11 -36q0 -8 -20 -48q-65 52 -70 54v0l-51 -16q-142 0 -168 143q-1 18 -1 34q0 31 4 55l13 78l-160 362h41q-1 -4 -6 -9v9q0 22 8 22q-7 -58 -15 -58q-19 -80 -29 -138l-25 -140q-3 -17 -12 -37v3q0 22 18 22l-23 -51l-1 -9q-33 -186 -112 -186q-3 0 -56 -7
l-2 4l9 3q-21 0 -39 15l27 31l33 -35q-54 -7 -91 -54l-59 -21h-57q-121 28 -121 119q0 12 2 25l19 109l7 25q0 -46 -16 -46q328 960 400 1142q3 0 -1 -16q-12 21 -12 90v34q28 0 49 24q14 0 9 -20l-5 44q30 0 49 52h68l-2 -12h-49l1 8h43l26 -17v-3h66q3 -35 3 -45t3 9h-54
q6 36 56 36q43 -34 45 -242q124 -479 131 -534h-42l1 2l61 234v0v-24q0 -22 -16 -22q57 152 118 394h11q-1 -5 32 100h70l-8 -43v-13h-51l4 20q10 28 42 28h31q12 -57 12 -93q0 -28 0 -27h-49q22 47 113 280zM746 2201h12q26 0 44 -37l9 17h-43l45 7q33 -47 75 -71v27
l-30 -15q36 0 162 -136q24 -16 26 -16q-8 0 117 132q60 21 145 72v-58q-4 -8 -4 45l-28 -19h44v-34l4 7l-33 16q41 28 121 55q0 -36 11 -46q-65 -233 -140 -285q-40 -35 -66 -56l-1 3v-34q-35 0 -87 -38q-49 25 -49 -5l25 19h-26l25 -19q0 26 -83 7q-25 32 -25 -3l28 19h-49
l6 31q-107 48 -199 121h18q-35 -21 -159 -160q-31 0 -46 12h-21h-18l-12 8h13l-56 -40h-60l8 16h71q0 -8 -38 -8h-34v31q8 43 18 65h50q-56 -36 -138 -36l16 20h62l-12 -8h-44v29q0 30 94 153q10 44 146 160q59 52 106 52z" />
    <glyph glyph-name="ograve" unicode="&#xf2;" horiz-adv-x="1354" 
d="M812 1513h57q155 0 277 -198q30 -24 71 -150q42 -32 75 -168h29l-24 -39q0 27 24 27l-24 -39v-42q0 -66 -10 -158l31 -103q0 -159 -213 -439l-137 -114l-14 5q-212 -116 -312 -116v54l26 4v-42h29q-89 -20 -175 -20q-280 0 -453 292h44v-36h-71q0 33 -5 56h50v-48h-57
q-60 85 -60 317v12q0 243 158 574q144 229 369 294q244 77 315 77zM357 458h-70v28q-4 32 -4 16h55v-19q0 -6 33 -51q0 -31 85 -85q38 -6 73 -6h4q193 0 344 144q87 93 87 289v51q0 20 3 24l-3 14v85q-33 90 -97 120q-76 30 -122 30q-76 0 -262 -102q-46 -20 -46 -100
q-80 -342 -80 -438zM1248 985h70v-58h-70v58zM87 299v42h-55v-42h55zM361 2363q11 22 -17 22q-12 0 24 -15q-5 36 -5 29q0 -46 -39 -46q-11 0 81 -46q-61 86 -47 82q7 -42 116 -184q-168 108 -165 104q24 8 24 17q0 4 -3 8l4 -4l21 -21q80 -393 252 -423l14 -18l-19 10
l22 17l33 -40q-14 -37 -14 -51q0 -7 5 -9q20 -17 16 -17q-26 0 -26 -19q0 8 164 -319q-72 218 -51 191h-1l-5 2q-24 -8 -24 -21q0 -4 -51 63l107 -40q11 -16 11 -23q0 -26 -31 -26q-10 0 92 -51q-65 83 -58 81l-16 6l41 51q34 -45 36 -55l-3 3q-36 0 -33 52q29 69 29 84v0
q-59 239 -171 385l-11 14q-61 78 -138 122q-20 27 -53 53l-8 3l-19 -2q-26 34 -17 31l-16 -19q-74 51 -51 19z" />
    <glyph glyph-name="oacute" unicode="&#xf3;" horiz-adv-x="1354" 
d="M812 1513h57q155 0 277 -198q30 -24 71 -150q42 -32 75 -168h29l-24 -39q0 27 24 27l-24 -39v-42q0 -66 -10 -158l31 -103q0 -159 -213 -439l-137 -114l-14 5q-212 -116 -312 -116v54l26 4v-42h29q-89 -20 -175 -20q-280 0 -453 292h44v-36h-71q0 33 -5 56h50v-48h-57
q-60 85 -60 317v12q0 243 158 574q144 229 369 294q244 77 315 77zM357 458h-70v28q-4 32 -4 16h55v-19q0 -6 33 -51q0 -31 85 -85q38 -6 73 -6h4q193 0 344 144q87 93 87 289v51q0 20 3 24l-3 14v85q-33 90 -97 120q-76 30 -122 30q-76 0 -262 -102q-46 -20 -46 -100
q-80 -342 -80 -438zM1248 985h70v-58h-70v58zM87 299v42h-55v-42h55zM1033 2237q-50 -43 -57 -44q0 42 -26 42q-5 0 118 41q-121 -107 -123 -139q-83 3 -83 -9q6 2 6 9l2 6l16 -15q-272 -248 -272 -300q0 4 3 4q23 0 114 28l-1 -13l-37 -8l93 50l-18 -71q-104 -66 -104 -65
q0 23 -26 23q-4 0 9 4q14 -8 13 -8q13 0 -160 -251q122 129 121 117l8 33l-31 -6q6 2 6 13l70 14q0 -56 -10 -58v19q0 20 -21 20h1l3 1l162 93q-14 -70 -23 -79l4 36q-38 -8 73 75q179 114 180 120q166 97 484 281l-241 7v29q0 15 -34 15h-41v26q0 -3 4 -4l-15 -3l-56 -24
v42q0 -14 15 -14q-2 0 1 0l-48 -27q-73 10 -73 -16q15 10 -6 6z" />
    <glyph glyph-name="ocircumflex" unicode="&#xf4;" horiz-adv-x="1354" 
d="M812 1513h57q155 0 277 -198q30 -24 71 -150q42 -32 75 -168h29l-24 -39q0 27 24 27l-24 -39v-42q0 -66 -10 -158l31 -103q0 -159 -213 -439l-137 -114l-14 5q-212 -116 -312 -116v54l26 4v-42h29q-89 -20 -175 -20q-280 0 -453 292h44v-36h-71q0 33 -5 56h50v-48h-57
q-60 85 -60 317v12q0 243 158 574q144 229 369 294q244 77 315 77zM357 458h-70v28q-4 32 -4 16h55v-19q0 -6 33 -51q0 -31 85 -85q38 -6 73 -6h4q193 0 344 144q87 93 87 289v51q0 20 3 24l-3 14v85q-33 90 -97 120q-76 30 -122 30q-76 0 -262 -102q-46 -20 -46 -100
q-80 -342 -80 -438zM1248 985h70v-58h-70v58zM87 299v42h-55v-42h55zM642 2306q66 0 66 -13l-13 -3h26q11 -20 -3 -20q24 0 256 -287q66 -73 66 -114q0 -23 -28 -38q0 -39 -58 -39q-4 0 -20 -9l-16 9h4q-10 -8 -31 -8q-47 9 -114 120q-70 74 -72 76q-119 -152 -155 -152
q-69 -36 -101 -36q-7 4 13 4q-48 -96 -131 -96q-15 27 -15 20h48q0 -16 -55 -16q-9 8 -45 8v35l-6 -11q-6 0 -6 45q0 -1 -7 13q15 25 15 2q-8 0 -8 38q74 156 332 453q31 19 58 19z" />
    <glyph glyph-name="otilde" unicode="&#xf5;" horiz-adv-x="1354" 
d="M812 1513h57q155 0 277 -198q30 -24 71 -150q42 -32 75 -168h29l-24 -39q0 27 24 27l-24 -39v-42q0 -66 -10 -158l31 -103q0 -159 -213 -439l-137 -114l-14 5q-212 -116 -312 -116v54l26 4v-42h29q-89 -20 -175 -20q-280 0 -453 292h44v-36h-71q0 33 -5 56h50v-48h-57
q-60 85 -60 317v12q0 243 158 574q144 229 369 294q244 77 315 77zM357 458h-70v28q-4 32 -4 16h55v-19q0 -6 33 -51q0 -31 85 -85q38 -6 73 -6h4q193 0 344 144q87 93 87 289v51q0 20 3 24l-3 14v85q-33 90 -97 120q-76 30 -122 30q-76 0 -262 -102q-46 -20 -46 -100
q-80 -342 -80 -438zM1248 985h70v-58h-70v58zM87 299v42h-55v-42h55zM571 2147h16q27 0 48 -37l11 17h-46l52 6q41 -44 95 -68v21l-27 -11q36 0 198 -133q35 -19 43 -19q-4 0 161 133q77 21 171 64v-52q-5 -8 -5 40l-24 -13h44v-35l6 10l-33 12q58 31 147 54q0 -31 14 -41
q-84 -237 -182 -289q-52 -36 -84 -55l-3 5v-35q-42 0 -105 -35q-54 20 -54 -1l19 12h-24l19 -12q0 18 -92 2q-31 27 -31 1l24 13h-53l9 30q-139 47 -261 122h12q-49 -23 -208 -160q-28 0 -52 15q-6 -3 -28 -3h-20l-15 8h7l-73 -40h-66l11 16h76q0 -8 -40 -8h-35v31
q10 45 22 65h52q-73 -36 -165 -36l20 20h68l-15 -8h-45v29q0 32 123 156q14 43 190 160q74 49 128 49z" />
    <glyph glyph-name="odieresis" unicode="&#xf6;" horiz-adv-x="1260" 
d="M812 1513h57q155 0 277 -198q30 -24 71 -150q42 -32 75 -168h29l-24 -39q0 27 24 27l-24 -39v-42q0 -66 -10 -158l31 -103q0 -159 -213 -439l-137 -114l-14 5q-212 -116 -312 -116v54l26 4v-42h29q-89 -20 -175 -20q-280 0 -453 292h44v-36h-71q0 33 -5 56h50v-48h-57
q-60 85 -60 317v12q0 243 158 574q144 229 369 294q244 77 315 77zM357 458h-70v28q-4 32 -4 16h55v-19q0 -6 33 -51q0 -31 85 -85q38 -6 73 -6h4q193 0 344 144q87 93 87 289v51q0 20 3 24l-3 14v85q-33 90 -97 120q-76 30 -122 30q-76 0 -262 -102q-46 -20 -46 -100
q-80 -342 -80 -438zM1248 985h70v-58h-70v58zM87 299v42h-55v-42h55zM1116 2052l-1 2l-11 -7h55q1 -28 -43 -28q0 6 65 6q0 -23 71 -74v-22q0 -35 2 -35q6 -13 15 -48l-15 -30q3 -7 3 -32l-57 -26l-3 8q13 8 41 8l-8 18v-13l-20 -45l-35 19h16q-67 -60 -146 -60q0 19 13 12
l-40 -18q0 45 -52 58q-25 25 -42 62q-14 0 -14 34l-8 -18q3 0 3 41q0 125 170 188h41zM544 2058q0 -26 -39 -6q-1 -7 37 -7h5q41 0 41 -27q-28 0 -11 12l17 -10q13 4 34 4q82 0 100 -115l12 -18v-37h-71v-18q11 8 11 11l6 -40l-87 -93v-28h-52q-35 0 -35 -11l-13 -5
q-71 4 -109 49h-32l18 40v-19q-22 0 -22 68q6 11 6 -3q12 -5 -17 -5v42l-11 -15q13 0 4 64l5 3l2 -3v10q0 116 201 157z" />
    <glyph glyph-name="divide" unicode="&#xf7;" horiz-adv-x="1607" 
d="M826 526q40 -15 40 -12q-56 0 -56 10q55 -10 54 -10l8 4q58 0 58 -10l-30 -15h16q50 -12 50 -75q0 -144 -99 -256q-44 -13 -96 -62l-9 18l-5 -3q-31 47 -21 47q-58 -45 -106 -45v34q4 8 4 -18q52 0 52 -12h-64l-8 44q0 49 -8 136q37 135 63 163q1 0 1 14l68 34v-31h-18
q-22 0 -22 12h65q2 -17 -15 -17q-14 0 -14 33h59q18 -16 7 -16h-26v-23l-6 34q35 22 58 22zM826 1752q40 -15 40 -12q-56 0 -56 10q55 -10 54 -10l8 4q58 0 58 -10l-30 -15h16q50 -12 50 -75q0 -144 -99 -256q-44 -13 -96 -62l-9 18l-5 -3q-31 47 -21 47q-58 -45 -106 -45
v34q4 8 4 -18q52 0 52 -12h-64l-8 44q0 49 -8 136q37 135 63 163q1 0 1 14l68 34v-31h-18q-22 0 -22 12h65q2 -17 -15 -17q-14 0 -14 33h59q18 -16 7 -16h-26v-23l-6 34q35 22 58 22zM1135 1187h69q63 0 341 -18v-56h-44v42h38v-49q-76 -28 -280 -75v40h1q49 0 204 -5
q0 -7 19 -7v-51q-204 -59 -187 -59v44l31 2h37v-53q-73 -13 -56 -13v46h-1l64 8v-54q-442 -154 -751 -172q-388 -32 -474 -32l-20 6q-6 -2 -34 -2l-44 57l4 6q-18 17 -18 49q70 54 99 54h-61l20 -19q34 79 8 79q21 -21 21 24h19v-26l-19 17q22 38 69 59q0 23 268 58l510 84
q126 16 167 16z" />
    <glyph glyph-name="oslash" unicode="&#xf8;" horiz-adv-x="1354" 
d="M812 1513h57q155 0 277 -198q30 -24 71 -150q42 -32 75 -168h29l-24 -39q0 27 24 27l-24 -39v-42q0 -66 -10 -158l31 -103q0 -159 -213 -439l-137 -114l-14 5q-212 -116 -312 -116v54l26 4v-42h29q-89 -20 -175 -20q-280 0 -453 292h44v-36h-71q0 33 -5 56h50v-48h-57
q-60 85 -60 317v12q0 243 158 574q144 229 369 294q244 77 315 77zM357 458h-70v28q-4 32 -4 16h55v-19q0 -6 33 -51q0 -31 85 -85q38 -6 73 -6h4q193 0 344 144q87 93 87 289v51q0 20 3 24l-3 14v85q-33 90 -97 120q-76 30 -122 30q-76 0 -262 -102q-46 -20 -46 -100
q-80 -342 -80 -438zM1248 985h70v-58h-70v58zM87 299v42h-55v-42h55zM1031 1551q33 -33 33 -49q0 -6 8 19h-63q1 8 41 8q30 -15 30 -32v-26q-9 0 6 47q-3 0 -2 -32q3 0 3 -30l-4 -17q-7 -22 3 -22l-3 19q-27 -75 -37 -96v4q0 24 13 24q-271 -697 -508 -1126q-2 0 -42 -72
h-68l37 78v-27h49q-56 -121 -182 -378h-81q32 40 43 71v-26h49q-6 -12 -9 -38h-65q4 34 4 58l34 122l-2 14q7 10 13 27l-10 -30h58q-11 -24 -36 -24h-41l3 10h54q-9 -15 -14 -37h-70l15 40q59 0 49 -29h-61q4 35 4 40q0 -18 -11 -18q153 468 243 668q93 254 188 455
q49 112 64 184h-6l3 -21q0 22 20 29l11 45l37 -37h-29l41 57q9 0 16 5h21h34l-21 -3h24q9 -15 -9 -15l17 6q8 -6 -12 -6q9 11 42 103q22 25 39 25h-14q-1 -7 51 33z" />
    <glyph glyph-name="ugrave" unicode="&#xf9;" horiz-adv-x="1222" 
d="M1140 1552h12q25 0 32 -10l-7 -4q57 0 88 -110q-223 -696 -238 -916q-51 -268 -102 -372q-17 -27 -66 -190h-66l3 43h50l-1 -3l-5 -40h-61l-14 43h41q-15 -45 -21 -128h-66q-6 46 -6 65q0 10 -2 -8h57q0 -10 -6 -10q0 46 13 46l-13 -46q3 -7 3 -42h-56q-47 54 -47 178
q0 37 1 54h55l-1 -19h-71l2 37h52l-9 -47h-60q-21 66 -21 65q-152 -141 -298 -141h-6q-275 0 -296 390l5 72v2q0 4 -8 17l9 13l-4 25q8 10 8 8q0 -20 -10 -20l21 116l-5 10q71 340 156 596q71 198 120 198h11q35 0 35 2q-7 -1 23 11q17 -8 7 -8l63 30q2 -25 -21 -25
q11 4 53 4q0 -19 73 -34l-2 -18q-5 0 19 -39l-1 -29l10 17q-6 0 -6 -29v-26q-20 0 -18 3l-1 -10q-97 -432 -103 -518l-5 -62q-1 -38 -1 -72q0 -182 17 -193q166 116 167 136l1 9q26 222 36 222v-24q0 -21 -12 -21q49 181 52 187q0 -26 -14 -26q141 517 201 594h48l16 -10
h-27q2 24 52 24q41 0 40 1q-2 -30 49 23h31l21 -15h-21q3 24 45 24zM283 305l1 12v0h-48q1 14 -14 14q9 -16 9 -3v-23h52zM307 206l4 19q-1 16 -47 16l-3 -35h46zM327 168v41q-1 3 -20 8l-3 -37zM461 2363q11 22 -17 22q-12 0 24 -15q-5 36 -5 29q0 -46 -39 -46
q-11 0 81 -46q-61 86 -47 82q7 -42 116 -184q-168 108 -165 104q24 8 24 17q0 4 -3 8l4 -4l21 -21q80 -393 252 -423l14 -18l-19 10l22 17l33 -40q-14 -37 -14 -51q0 -7 5 -9q20 -17 16 -17q-26 0 -26 -19q0 8 164 -319q-72 218 -51 191h-1l-5 2q-24 -8 -24 -21q0 -4 -51 63
l107 -40q11 -16 11 -23q0 -26 -31 -26q-10 0 92 -51q-65 83 -58 81l-16 6l41 51q34 -45 36 -55l-3 3q-36 0 -33 52q29 69 29 84v0q-59 239 -171 385l-11 14q-61 78 -138 122q-20 27 -53 53l-8 3l-19 -2q-26 34 -17 31l-16 -19q-74 51 -51 19z" />
    <glyph glyph-name="uacute" unicode="&#xfa;" horiz-adv-x="1222" 
d="M1140 1552h12q25 0 32 -10l-7 -4q57 0 88 -110q-223 -696 -238 -916q-51 -268 -102 -372q-17 -27 -66 -190h-66l3 43h50l-1 -3l-5 -40h-61l-14 43h41q-15 -45 -21 -128h-66q-6 46 -6 65q0 10 -2 -8h57q0 -10 -6 -10q0 46 13 46l-13 -46q3 -7 3 -42h-56q-47 54 -47 178
q0 37 1 54h55l-1 -19h-71l2 37h52l-9 -47h-60q-21 66 -21 65q-152 -141 -298 -141h-6q-275 0 -296 390l5 72v2q0 4 -8 17l9 13l-4 25q8 10 8 8q0 -20 -10 -20l21 116l-5 10q71 340 156 596q71 198 120 198h11q35 0 35 2q-7 -1 23 11q17 -8 7 -8l63 30q2 -25 -21 -25
q11 4 53 4q0 -19 73 -34l-2 -18q-5 0 19 -39l-1 -29l10 17q-6 0 -6 -29v-26q-20 0 -18 3l-1 -10q-97 -432 -103 -518l-5 -62q-1 -38 -1 -72q0 -182 17 -193q166 116 167 136l1 9q26 222 36 222v-24q0 -21 -12 -21q49 181 52 187q0 -26 -14 -26q141 517 201 594h48l16 -10
h-27q2 24 52 24q41 0 40 1q-2 -30 49 23h31l21 -15h-21q3 24 45 24zM283 305l1 12v0h-48q1 14 -14 14q9 -16 9 -3v-23h52zM307 206l4 19q-1 16 -47 16l-3 -35h46zM327 168v41q-1 3 -20 8l-3 -37zM1133 2237q-50 -43 -57 -44q0 42 -26 42q-5 0 118 41q-121 -107 -123 -139
q-83 3 -83 -9q6 2 6 9l2 6l16 -15q-272 -248 -272 -300q0 4 3 4q23 0 114 28l-1 -13l-37 -8l93 50l-18 -71q-104 -66 -104 -65q0 23 -26 23q-4 0 9 4q14 -8 13 -8q13 0 -160 -251q122 129 121 117l8 33l-31 -6q6 2 6 13l70 14q0 -56 -10 -58v19q0 20 -21 20h1l3 1l162 93
q-14 -70 -23 -79l4 36q-38 -8 73 75q179 114 180 120q166 97 484 281l-241 7v29q0 15 -34 15h-41v26q0 -3 4 -4l-15 -3l-56 -24v42q0 -14 15 -14q-2 0 1 0l-48 -27q-73 10 -73 -16q15 10 -6 6z" />
    <glyph glyph-name="ucircumflex" unicode="&#xfb;" horiz-adv-x="1222" 
d="M1140 1552h12q25 0 32 -10l-7 -4q57 0 88 -110q-223 -696 -238 -916q-51 -268 -102 -372q-17 -27 -66 -190h-66l3 43h50l-1 -3l-5 -40h-61l-14 43h41q-15 -45 -21 -128h-66q-6 46 -6 65q0 10 -2 -8h57q0 -10 -6 -10q0 46 13 46l-13 -46q3 -7 3 -42h-56q-47 54 -47 178
q0 37 1 54h55l-1 -19h-71l2 37h52l-9 -47h-60q-21 66 -21 65q-152 -141 -298 -141h-6q-275 0 -296 390l5 72v2q0 4 -8 17l9 13l-4 25q8 10 8 8q0 -20 -10 -20l21 116l-5 10q71 340 156 596q71 198 120 198h11q35 0 35 2q-7 -1 23 11q17 -8 7 -8l63 30q2 -25 -21 -25
q11 4 53 4q0 -19 73 -34l-2 -18q-5 0 19 -39l-1 -29l10 17q-6 0 -6 -29v-26q-20 0 -18 3l-1 -10q-97 -432 -103 -518l-5 -62q-1 -38 -1 -72q0 -182 17 -193q166 116 167 136l1 9q26 222 36 222v-24q0 -21 -12 -21q49 181 52 187q0 -26 -14 -26q141 517 201 594h48l16 -10
h-27q2 24 52 24q41 0 40 1q-2 -30 49 23h31l21 -15h-21q3 24 45 24zM283 305l1 12v0h-48q1 14 -14 14q9 -16 9 -3v-23h52zM307 206l4 19q-1 16 -47 16l-3 -35h46zM327 168v41q-1 3 -20 8l-3 -37zM635 2306q66 0 66 -13l-13 -3h26q11 -20 -3 -20q24 0 256 -287
q66 -73 66 -114q0 -23 -28 -38q0 -39 -58 -39q-4 0 -20 -9l-16 9h4q-10 -8 -31 -8q-47 9 -114 120q-70 74 -72 76q-119 -152 -155 -152q-69 -36 -101 -36q-7 4 13 4q-48 -96 -131 -96q-15 27 -15 20h48q0 -16 -55 -16q-9 8 -45 8v35l-6 -11q-6 0 -6 45q0 -1 -7 13
q15 25 15 2q-8 0 -8 38q74 156 332 453q31 19 58 19z" />
    <glyph glyph-name="udieresis" unicode="&#xfc;" horiz-adv-x="1222" 
d="M1140 1552h12q25 0 32 -10l-7 -4q57 0 88 -110q-223 -696 -238 -916q-51 -268 -102 -372q-17 -27 -66 -190h-66l3 43h50l-1 -3l-5 -40h-61l-14 43h41q-15 -45 -21 -128h-66q-6 46 -6 65q0 10 -2 -8h57q0 -10 -6 -10q0 46 13 46l-13 -46q3 -7 3 -42h-56q-47 54 -47 178
q0 37 1 54h55l-1 -19h-71l2 37h52l-9 -47h-60q-21 66 -21 65q-152 -141 -298 -141h-6q-275 0 -296 390l5 72v2q0 4 -8 17l9 13l-4 25q8 10 8 8q0 -20 -10 -20l21 116l-5 10q71 340 156 596q71 198 120 198h11q35 0 35 2q-7 -1 23 11q17 -8 7 -8l63 30q2 -25 -21 -25
q11 4 53 4q0 -19 73 -34l-2 -18q-5 0 19 -39l-1 -29l10 17q-6 0 -6 -29v-26q-20 0 -18 3l-1 -10q-97 -432 -103 -518l-5 -62q-1 -38 -1 -72q0 -182 17 -193q166 116 167 136l1 9q26 222 36 222v-24q0 -21 -12 -21q49 181 52 187q0 -26 -14 -26q141 517 201 594h48l16 -10
h-27q2 24 52 24q41 0 40 1q-2 -30 49 23h31l21 -15h-21q3 24 45 24zM283 305l1 12v0h-48q1 14 -14 14q9 -16 9 -3v-23h52zM307 206l4 19q-1 16 -47 16l-3 -35h46zM327 168v41q-1 3 -20 8l-3 -37zM1095 2059l-1 2l-11 -7h55q1 -28 -43 -28q0 6 65 6q0 -23 71 -74v-22
q0 -35 2 -35q6 -13 15 -48l-15 -30q3 -7 3 -32l-57 -26l-3 8q13 8 41 8l-8 18v-13l-20 -45l-35 19h16q-67 -60 -146 -60q0 19 13 12l-40 -18q0 45 -52 58q-25 25 -42 62q-14 0 -14 34l-8 -18q3 0 3 41q0 125 170 188h41zM569 2050q0 -26 -39 -6q-1 -7 37 -7h5q41 0 41 -27
q-28 0 -11 12l17 -10q13 4 34 4q82 0 100 -115l12 -18v-37h-71v-18q11 8 11 11l6 -40l-87 -93v-28h-52q-35 0 -35 -11l-13 -5q-71 4 -109 49h-32l18 40v-19q-22 0 -22 68q6 11 6 -3q12 -5 -17 -5v42l-11 -15q13 0 4 64l5 3l2 -3v10q0 116 201 157z" />
    <glyph glyph-name="yacute" unicode="&#xfd;" horiz-adv-x="1317" 
d="M1347 1707v-27q0 17 -23 17l19 5q101 0 101 -147v-14l-27 -38l-12 -26q5 -26 5 -50q0 -31 -10 -51q-16 -34 -445 -631q-348 -531 -522 -706q-209 -271 -234 -326h-88l4 10q48 5 55 19q1 -2 1 -10q0 -7 -11 -29h-52q-55 61 -55 122q0 28 8 54v9q0 102 62 235l32 69
q108 198 116 213l7 14q8 22 24 22q-15 -15 -15 -23q0 -22 -30 -22l51 70l18 40l7 43h-3l-11 44h38l5 14q-17 -73 -32 -103h-68l4 45h43l2 4l-11 -54h-56q-42 42 -218 525q-13 87 -13 153q0 102 29 163q17 36 109 67q20 -7 7 -7q12 16 103 37q16 -7 15 -7q17 17 74 33l13 -8
h30h21q56 -12 77 -40q67 0 99 -420q0 -89 -33 -89q298 465 354 544h49l-9 3q2 5 83 27q136 207 212 207l6 -2q11 22 95 22zM1169 2237q-50 -43 -57 -44q0 42 -26 42q-5 0 118 41q-121 -107 -123 -139q-83 3 -83 -9q6 2 6 9l2 6l16 -15q-272 -248 -272 -300q0 4 3 4
q23 0 114 28l-1 -13l-37 -8l93 50l-18 -71q-104 -66 -104 -65q0 23 -26 23q-4 0 9 4q14 -8 13 -8q13 0 -160 -251q122 129 121 117l8 33l-31 -6q6 2 6 13l70 14q0 -56 -10 -58v19q0 20 -21 20h1l3 1l162 93q-14 -70 -23 -79l4 36q-38 -8 73 75q179 114 180 120
q166 97 484 281l-241 7v29q0 15 -34 15h-41v26q0 -3 4 -4l-15 -3l-56 -24v42q0 -14 15 -14q-2 0 1 0l-48 -27q-73 10 -73 -16q15 10 -6 6z" />
    <glyph glyph-name="thorn" unicode="&#xfe;" horiz-adv-x="1625" 
d="M895 1589q262 0 647 -99q88 -36 115 -114q7 -9 7 -28q0 -6 -1 -11l-3 -37q-6 -70 -159 -212q-73 -138 -395 -388q-317 -219 -492 -285l1 5q-17 -205 -327 -819v-25h-76q5 47 22 96v-23h46l-25 -68h-61q-10 91 -10 102l-2 -5h56l-1 -15h-79q25 80 26 92l-6 -24h53
q-8 -21 -11 -53h-73l2 24q43 0 34 -29h-68l5 58h51l-5 -27l-6 -26h-55q-28 45 -28 162q0 116 17 322q19 217 60 403v-1q0 -21 -17 -21q27 71 35 157h4v-24q0 -21 -12 -21l150 646q-6 0 -6 34v3l3 11l-11 -15l-183 41l5 54h34l-9 -45q-23 0 -35 55q75 23 229 42q32 12 38 23
l-3 -16q15 -7 -31 -7l7 59h28v-45q-24 0 -24 34v2q5 39 539 58zM857 1182q-23 4 -74 4q-2 -23 -66 -336h-38l373 177q192 155 193 179l-4 -16q-43 11 -103 11q-74 0 -281 -19zM1054 2357h17l17 -8l62 7l2 5l-38 -10h30q53 -53 53 -86q0 -7 -2 -16q-301 -582 -478 -1072
l-146 -399q-93 -255 -222 -406h-66l8 21h53l-13 -21h-41q-30 28 -30 56q0 8 2 18l-8 -16h61l-11 -28h-65l4 40h43q-17 -38 -30 -73h-67l7 36h52l-14 -39h-71l2 6h56l-46 -124h-75q17 38 19 58h51l-1 -2q-8 -43 -24 -59h-49q-18 89 -18 138q0 42 9 67q10 269 67 425l-5 35h-5
l10 -20l22 62v-1q0 -3 -10 11l18 14q30 149 43 185l16 46v-1l-5 13q14 12 14 13l22 59l1 2q0 -5 -8 3l20 31l10 26q0 1 0 -2q0 -22 -27 -22l35 47q123 337 416 807l29 7h22l13 -6h-11q15 15 69 108q91 41 103 41h22l4 -2l26 7q11 -5 -2 -5q15 13 58 24z" />
    <glyph glyph-name="ydieresis" unicode="&#xff;" horiz-adv-x="1317" 
d="M1347 1707v-27q0 17 -23 17l19 5q101 0 101 -147v-14l-27 -38l-12 -26q5 -26 5 -50q0 -31 -10 -51q-16 -34 -445 -631q-348 -531 -522 -706q-209 -271 -234 -326h-88l4 10q48 5 55 19q1 -2 1 -10q0 -7 -11 -29h-52q-55 61 -55 122q0 28 8 54v9q0 102 62 235l32 69
q108 198 116 213l7 14q8 22 24 22q-15 -15 -15 -23q0 -22 -30 -22l51 70l18 40l7 43h-3l-11 44h38l5 14q-17 -73 -32 -103h-68l4 45h43l2 4l-11 -54h-56q-42 42 -218 525q-13 87 -13 153q0 102 29 163q17 36 109 67q20 -7 7 -7q12 16 103 37q16 -7 15 -7q17 17 74 33l13 -8
h30h21q56 -12 77 -40q67 0 99 -420q0 -89 -33 -89q298 465 354 544h49l-9 3q2 5 83 27q136 207 212 207l6 -2q11 22 95 22zM1018 2059l-1 2l-11 -7h55q1 -28 -43 -28q0 6 65 6q0 -23 71 -74v-22q0 -35 2 -35q6 -13 15 -48l-15 -30q3 -7 3 -32l-57 -26l-3 8q13 8 41 8l-8 18
v-13l-20 -45l-35 19h16q-67 -60 -146 -60q0 19 13 12l-40 -18q0 45 -52 58q-25 25 -42 62q-14 0 -14 34l-8 -18q3 0 3 41q0 125 170 188h41zM492 2050q0 -26 -39 -6q-1 -7 37 -7h5q41 0 41 -27q-28 0 -11 12l17 -10q13 4 34 4q82 0 100 -115l12 -18v-37h-71v-18q11 8 11 11
l6 -40l-87 -93v-28h-52q-35 0 -35 -11l-13 -5q-71 4 -109 49h-32l18 40v-19q-22 0 -22 68q6 11 6 -3q12 -5 -17 -5v42l-11 -15q13 0 4 64l5 3l2 -3v10q0 116 201 157z" />
    <glyph glyph-name="dotlessi" unicode="&#x131;" horiz-adv-x="661" 
d="M633 1729q38 -15 38 -12q-56 0 -56 10q55 -10 54 -10l8 4q55 0 55 -47v35l-28 -13h15q46 -11 46 -65v-11q-13 -145 -121 -255q-44 -14 -99 -60l-8 16l-7 -4q-27 48 -17 48q-62 -45 -116 -45l9 36q4 8 -3 -20q57 0 56 -12h-64l-4 46q3 39 3 100v36q49 134 76 161q2 0 3 15
l72 32l-3 -30h-20q-20 0 -19 12h66q0 -17 -20 -17q-12 0 -9 33h57q17 -16 6 -16h-26v-22l-3 34q36 21 59 21zM370 1278h34q24 -25 13 -25q19 21 73 21h34v-28q0 11 -46 11q1 8 69 8q-5 -33 -5 -36q0 16 -30 16l54 10v-32q0 12 -30 16l3 9q74 -9 74 10l16 9q0 -26 21 -26
l-16 -29l39 -33q-42 -11 -28 16q4 0 4 -75q-8 -88 -311 -1121l-175 -435h-60v31l8 37v-23h48q-2 -5 -7 -41h-62q-7 51 -7 63v4l6 63q-13 48 -13 107q0 22 2 46l13 156v1q0 -19 45 -19l-63 -169h-63q4 37 22 100l-7 -26h55l-22 -62h-63q4 36 5 89q106 614 201 917
q44 139 101 407q32 0 45 22z" />
    <glyph glyph-name="circumflex" unicode="&#x2c6;" horiz-adv-x="862" 
d="M385 2306q66 0 66 -13l-13 -3h26q11 -20 -3 -20q24 0 256 -287q66 -73 66 -114q0 -23 -28 -38q0 -39 -58 -39q-4 0 -20 -9l-16 9h4q-10 -8 -31 -8q-47 9 -114 120q-70 74 -72 76q-119 -152 -155 -152q-69 -36 -101 -36q-7 4 13 4q-48 -96 -131 -96q-15 27 -15 20h48
q0 -16 -55 -16q-9 8 -45 8v35l-6 -11q-6 0 -6 45q0 -1 -7 13q15 25 15 2q-8 0 -8 38q74 156 332 453q31 19 58 19z" />
    <glyph glyph-name="caron" unicode="&#x2c7;" horiz-adv-x="862" 
d="M327 1719q-258 298 -332 453q0 38 8 38q0 -23 -15 2q7 14 7 13q0 45 6 45l6 -11v35q36 0 45 8q55 0 55 -16h-48q0 -7 15 20q83 0 131 -96q-20 0 -13 4q32 0 101 -36q36 0 155 -152q2 2 72 76q67 111 114 120q21 0 31 -8h-4l16 9q16 -9 20 -9q58 0 58 -39q28 -15 28 -38
q0 -41 -66 -114q-232 -287 -256 -287q14 0 3 -20h-26l13 -3q0 -13 -66 -13q-27 0 -58 19z" />
    <glyph glyph-name="uni02C9" unicode="&#x2c9;" horiz-adv-x="1681" 
d="M1070 2095h69q63 0 341 -18v-56h-44v42h38v-49q-76 -28 -280 -75v40h1q49 0 204 -5q0 -7 19 -7v-51q-204 -59 -187 -59v44l31 2h37v-53q-73 -13 -56 -13v46h-1l64 8v-54q-442 -154 -751 -172q-388 -32 -474 -32l-20 6q-6 -2 -34 -2l-44 57l4 6q-18 17 -18 49q70 54 99 54
h-61l20 -19q34 79 8 79q21 -21 21 24h19v-26l-19 17q22 38 69 59q0 23 268 58l510 84q126 16 167 16z" />
    <glyph glyph-name="breve" unicode="&#x2d8;" horiz-adv-x="1024" 
 />
    <glyph glyph-name="dotaccent" unicode="&#x2d9;" horiz-adv-x="508" 
d="M185 2226q38 -14 38 -10q-57 0 -57 10q52 -10 49 -10l7 3q55 0 55 -5l-31 -16h16q46 -11 46 -67q0 -124 -86 -221q-38 -11 -86 -56l-9 16l-4 -2q-26 41 -14 41q-49 -38 -96 -38v33q3 7 3 -19q54 0 54 -10h-63l-8 41q0 41 -7 115q33 116 57 143q-2 0 -2 10l67 33v-29h-20
q-23 0 -23 10h64q2 -14 -17 -14q-17 0 -17 28h57q15 -14 4 -14h-27v-23l-5 30q33 21 55 21z" />
    <glyph glyph-name="ring" unicode="&#x2da;" horiz-adv-x="1024" 
d="M469 1919h12q48 0 193 -60q149 -117 149 -217q0 -119 -68 -189q-5 0 -50 -66q-129 -118 -260 -118h-8q-75 0 -193 79q-89 93 -89 222q0 204 172 292q44 4 91 44q25 13 51 13zM627 1670v0q0 16 -107 68q-65 -14 -142 -77h-15q-23 0 -27 -66q42 -41 179 -139h-5
q87 0 117 214z" />
    <glyph glyph-name="ogonek" unicode="&#x2db;" horiz-adv-x="1024" 
d="M183 -54q0 37 -53 8l-35 21q24 0 24 -29l-46 17h2q2 1 2 -22q-48 -11 -48 -40v-8q0 -79 138 -259q0 -2 102 -76q60 -56 23 -56v-25q-6 8 -6 69l104 -64h-5q-19 0 -19 -42q-6 0 -6 54h66q0 -15 -8 -12h-26v-21q0 11 120 -168q-128 284 -132 284q-8 0 -1 8q-10 0 -10 -22
q0 -1 -62 46v61l61 -33h-34v14q49 -9 58 -9q11 0 11 8q0 54 -153 241l10 16v-2q0 -9 28 -22q0 20 -76 -9q0 46 -49 104q33 0 33 -46q2 0 -27 31q-10 0 14 -17z" />
    <glyph glyph-name="tilde" unicode="&#x2dc;" horiz-adv-x="1024" 
d="M304 2147h12q26 0 44 -37l9 17h-43l45 7q33 -47 75 -71v27l-30 -15q36 0 162 -136q24 -16 26 -16q-8 0 117 132q60 21 145 72v-58q-4 -8 -4 45l-28 -19h44v-34l4 7l-33 16q41 28 121 55q0 -36 11 -46q-65 -233 -140 -285q-40 -35 -66 -56l-1 3v-34q-35 0 -87 -38
q-49 25 -49 -5l25 19h-26l25 -19q0 26 -83 7q-25 32 -25 -3l28 19h-49l6 31q-107 48 -199 121h18q-35 -21 -159 -160q-31 0 -46 12h-21h-18l-12 8h13l-56 -40h-60l8 16h71q0 -8 -38 -8h-34v31q8 43 18 65h50q-56 -36 -138 -36l16 20h62l-12 -8h-44v29q0 30 94 153
q10 44 146 160q59 52 106 52z" />
    <glyph glyph-name="hungarumlaut" unicode="&#x2dd;" horiz-adv-x="1024" 
d="M416 2237q-50 -43 -57 -44q0 42 -26 42q-5 0 118 41q-121 -107 -123 -139q-83 3 -83 -9q6 2 6 9l2 6l16 -15q-272 -248 -272 -300q0 4 3 4q23 0 114 28l-1 -13l-37 -8l93 50l-18 -71q-104 -66 -104 -65q0 23 -26 23q-4 0 9 4q14 -8 13 -8q13 0 -160 -251q122 129 121 117
l8 33l-31 -6q6 2 6 13l70 14q0 -56 -10 -58v19q0 20 -21 20h1l3 1l162 93q-14 -70 -23 -79l4 36q-38 -8 73 75q179 114 180 120q166 97 484 281l-241 7v29q0 15 -34 15h-41v26q0 -3 4 -4l-15 -3l-56 -24v42q0 -14 15 -14q-2 0 1 0l-48 -27q-73 10 -73 -16q15 10 -6 6z
M1450 2237q-50 -43 -57 -44q0 42 -26 42q-5 0 118 41q-121 -107 -123 -139q-83 3 -83 -9q6 2 6 9l2 6l16 -15q-272 -248 -272 -300q0 4 3 4q23 0 114 28l-1 -13l-37 -8l93 50l-18 -71q-104 -66 -104 -65q0 23 -26 23q-4 0 9 4q14 -8 13 -8q13 0 -160 -251q122 129 121 117
l8 33l-31 -6q6 2 6 13l70 14q0 -56 -10 -58v19q0 20 -21 20h1l3 1l162 93q-14 -70 -23 -79l4 36q-38 -8 73 75q179 114 180 120q166 97 484 281l-241 7v29q0 15 -34 15h-41v26q0 -3 4 -4l-15 -3l-56 -24v42q0 -14 15 -14q-2 0 1 0l-48 -27q-73 10 -73 -16q15 10 -6 6z" />
    <glyph glyph-name="endash" unicode="&#x2013;" horiz-adv-x="1108" 
d="M1070 595h69q63 0 341 -9v-53h-44v46h38v-49q-81 -15 -280 -38v45h1q48 0 204 -2q0 -4 19 -4v-50q-206 -30 -187 -30v47l31 1h37v-52q-74 -6 -56 -6v48v0l63 4v-51q-445 -78 -752 -87q-387 -16 -471 -16l-22 4q-9 -2 -28 -2l-63 41l1 1q-2 1 -2 37q76 29 99 29h-110
l59 -27q50 57 -20 57q59 -32 59 12h19v-36l-31 15q41 36 81 45q0 13 270 30l510 42q125 8 165 8z" />
    <glyph glyph-name="emdash" unicode="&#x2014;" horiz-adv-x="2116" 
d="M1513 595h97q88 0 470 -9v-53h-62v46h54v-51q-106 -13 -396 -37v46h14q67 0 276 -2q0 -4 26 -4v-51q-281 -29 -264 -29v47l58 1h38v-52q-94 -6 -79 -6v48h13l76 3v-52q-619 -76 -1051 -85q-547 -16 -663 -16l-33 4q-15 -2 -34 -2l-87 40l1 1q2 -1 2 40q99 27 128 27h-148
l85 -28q70 58 -29 58q87 -34 87 12h27v-38l-51 16q63 39 122 48q0 12 371 28l721 42q175 8 231 8z" />
    <glyph glyph-name="quoteleft" unicode="&#x2018;" horiz-adv-x="557" 
d="M183 1778q0 50 -53 11l-37 30q26 0 26 -40l-48 24h7q-1 -1 -1 -29q-48 -15 -48 -62v-11q0 -109 138 -348q0 -5 105 -107q60 -74 20 -74v-21q-6 10 -6 82l106 -88h-7q-19 0 -19 -39q-6 0 -6 55h66q0 -19 -6 -16h-28v-20q0 18 113 -207q-119 353 -125 353q-11 0 -4 11
q-7 0 -7 -21q0 5 -62 67v69l63 -46h-36v20q50 -13 58 -13q11 0 11 19q0 77 -151 323l8 16v1q0 -5 28 -21q0 26 -76 -12q0 58 -41 122q25 0 25 -45l-29 42q-10 0 16 -25z" />
    <glyph glyph-name="quoteright" unicode="&#x2019;" horiz-adv-x="557" 
d="M323 1837l-29 -42q0 45 25 45q-41 -64 -41 -122q-76 38 -76 12q28 16 28 21v-1l8 -16q-151 -246 -151 -323q0 -19 11 -19q8 0 58 13v-20h-36l63 46v-69q-62 -62 -62 -67q0 21 -7 21q7 -11 -4 -11q-6 0 -125 -353q113 225 113 207v20h-28q-6 -3 -6 16h66q0 -55 -6 -55
q0 39 -19 39h-7l106 88q0 -72 -6 -82v21q-40 0 20 74q105 102 105 107q138 239 138 348v11q0 47 -48 62q0 28 -1 29h7l-48 -24q0 40 26 40l-37 -30q-53 39 -53 -11q26 25 16 25z" />
    <glyph glyph-name="quotesinglbase" unicode="&#x201a;" horiz-adv-x="557" 
d="M323 321l-29 -42q0 45 25 45q-41 -64 -41 -122q-76 38 -76 12q28 16 28 21v-1l8 -16q-151 -246 -151 -323q0 -19 11 -19q8 0 58 13v-20h-36l63 46v-69q-62 -62 -62 -67q0 21 -7 21q7 -11 -4 -11q-6 0 -125 -353q113 225 113 207v20h-28q-6 -3 -6 16h66q0 -55 -6 -55
q0 39 -19 39h-7l106 88q0 -72 -6 -82v21q-40 0 20 74q105 102 105 107q138 239 138 348v11q0 47 -48 62q0 28 -1 29h7l-48 -24q0 40 26 40l-37 -30q-53 39 -53 -11q26 25 16 25z" />
    <glyph glyph-name="quotedblleft" unicode="&#x201c;" horiz-adv-x="1165" 
d="M183 1778q0 50 -53 11l-37 30q26 0 26 -40l-48 24h7q-1 -1 -1 -29q-48 -15 -48 -62v-11q0 -109 138 -348q0 -5 105 -107q60 -74 20 -74v-21q-6 10 -6 82l106 -88h-7q-19 0 -19 -39q-6 0 -6 55h66q0 -19 -6 -16h-28v-20q0 18 113 -207q-119 353 -125 353q-11 0 -4 11
q-7 0 -7 -21q0 5 -62 67v69l63 -46h-36v20q50 -13 58 -13q11 0 11 19q0 77 -151 323l8 16v1q0 -5 28 -21q0 26 -76 -12q0 58 -41 122q25 0 25 -45l-29 42q-10 0 16 -25zM791 1778q0 50 -53 11l-37 30q26 0 26 -40l-48 24h7q-1 -1 -1 -29q-48 -15 -48 -62v-11
q0 -109 138 -348q0 -5 105 -107q60 -74 20 -74v-21q-6 10 -6 82l106 -88h-7q-19 0 -19 -39q-6 0 -6 55h66q0 -19 -6 -16h-28v-20q0 18 113 -207q-119 353 -125 353q-11 0 -4 11q-7 0 -7 -21q0 5 -62 67v69l63 -46h-36v20q50 -13 58 -13q11 0 11 19q0 77 -151 323l8 16v1
q0 -5 28 -21q0 26 -76 -12q0 58 -41 122q25 0 25 -45l-29 42q-10 0 16 -25z" />
    <glyph glyph-name="quotedblright" unicode="&#x201d;" horiz-adv-x="1165" 
d="M323 1837l-29 -42q0 45 25 45q-41 -64 -41 -122q-76 38 -76 12q28 16 28 21v-1l8 -16q-151 -246 -151 -323q0 -19 11 -19q8 0 58 13v-20h-36l63 46v-69q-62 -62 -62 -67q0 21 -7 21q7 -11 -4 -11q-6 0 -125 -353q113 225 113 207v20h-28q-6 -3 -6 16h66q0 -55 -6 -55
q0 39 -19 39h-7l106 88q0 -72 -6 -82v21q-40 0 20 74q105 102 105 107q138 239 138 348v11q0 47 -48 62q0 28 -1 29h7l-48 -24q0 40 26 40l-37 -30q-53 39 -53 -11q26 25 16 25zM931 1837l-29 -42q0 45 25 45q-41 -64 -41 -122q-76 38 -76 12q28 16 28 21v-1l8 -16
q-151 -246 -151 -323q0 -19 11 -19q8 0 58 13v-20h-36l63 46v-69q-62 -62 -62 -67q0 21 -7 21q7 -11 -4 -11q-6 0 -125 -353q113 225 113 207v20h-28q-6 -3 -6 16h66q0 -55 -6 -55q0 39 -19 39h-7l106 88q0 -72 -6 -82v21q-40 0 20 74q105 102 105 107q138 239 138 348v11
q0 47 -48 62q0 28 -1 29h7l-48 -24q0 40 26 40l-37 -30q-53 39 -53 -11q26 25 16 25z" />
    <glyph glyph-name="quotedblbase" unicode="&#x201e;" horiz-adv-x="1165" 
d="M323 321l-29 -42q0 45 25 45q-41 -64 -41 -122q-76 38 -76 12q28 16 28 21v-1l8 -16q-151 -246 -151 -323q0 -19 11 -19q8 0 58 13v-20h-36l63 46v-69q-62 -62 -62 -67q0 21 -7 21q7 -11 -4 -11q-6 0 -125 -353q113 225 113 207v20h-28q-6 -3 -6 16h66q0 -55 -6 -55
q0 39 -19 39h-7l106 88q0 -72 -6 -82v21q-40 0 20 74q105 102 105 107q138 239 138 348v11q0 47 -48 62q0 28 -1 29h7l-48 -24q0 40 26 40l-37 -30q-53 39 -53 -11q26 25 16 25zM931 321l-29 -42q0 45 25 45q-41 -64 -41 -122q-76 38 -76 12q28 16 28 21v-1l8 -16
q-151 -246 -151 -323q0 -19 11 -19q8 0 58 13v-20h-36l63 46v-69q-62 -62 -62 -67q0 21 -7 21q7 -11 -4 -11q-6 0 -125 -353q113 225 113 207v20h-28q-6 -3 -6 16h66q0 -55 -6 -55q0 39 -19 39h-7l106 88q0 -72 -6 -82v21q-40 0 20 74q105 102 105 107q138 239 138 348v11
q0 47 -48 62q0 28 -1 29h7l-48 -24q0 40 26 40l-37 -30q-53 39 -53 -11q26 25 16 25z" />
    <glyph glyph-name="dagger" unicode="&#x2020;" 
 />
    <glyph glyph-name="daggerdbl" unicode="&#x2021;" 
 />
    <glyph glyph-name="bullet" unicode="&#x2022;" horiz-adv-x="1024" 
 />
    <glyph glyph-name="ellipsis" unicode="&#x2026;" horiz-adv-x="2048" 
d="M212 363q40 -15 40 -12q-56 0 -56 10q55 -10 54 -10l8 4q58 0 58 -10l-30 -15h16q50 -12 50 -75q0 -144 -99 -256q-44 -13 -96 -62l-9 18l-5 -3q-31 47 -21 47q-58 -45 -106 -45v34q4 8 4 -18q52 0 52 -12h-64l-8 44q0 49 -8 136q37 135 63 163q1 0 1 14l68 34v-31h-18
q-22 0 -22 12h65q2 -17 -15 -17q-14 0 -14 33h59q18 -16 7 -16h-26v-23l-6 34q35 22 58 22zM895 363q40 -15 40 -12q-56 0 -56 10q55 -10 54 -10l8 4q58 0 58 -10l-30 -15h16q50 -12 50 -75q0 -144 -99 -256q-44 -13 -96 -62l-9 18l-5 -3q-31 47 -21 47q-58 -45 -106 -45v34
q4 8 4 -18q52 0 52 -12h-64l-8 44q0 49 -8 136q37 135 63 163q1 0 1 14l68 34v-31h-18q-22 0 -22 12h65q2 -17 -15 -17q-14 0 -14 33h59q18 -16 7 -16h-26v-23l-6 34q35 22 58 22zM1578 363q40 -15 40 -12q-56 0 -56 10q55 -10 54 -10l8 4q58 0 58 -10l-30 -15h16
q50 -12 50 -75q0 -144 -99 -256q-44 -13 -96 -62l-9 18l-5 -3q-31 47 -21 47q-58 -45 -106 -45v34q4 8 4 -18q52 0 52 -12h-64l-8 44q0 49 -8 136q37 135 63 163q1 0 1 14l68 34v-31h-18q-22 0 -22 12h65q2 -17 -15 -17q-14 0 -14 33h59q18 -16 7 -16h-26v-23l-6 34
q35 22 58 22z" />
    <glyph glyph-name="guilsinglleft" unicode="&#x2039;" horiz-adv-x="631" 
 />
    <glyph glyph-name="guilsinglright" unicode="&#x203a;" horiz-adv-x="631" 
 />
    <glyph glyph-name="fraction" unicode="&#x2044;" horiz-adv-x="1068" 
d="M1548 2037q25 -34 25 -50q0 -12 5 -1l-50 17q2 3 26 3h13q30 -22 30 -39q0 -10 -17 -27h-15q17 0 36 38q-6 2 -6 -30q0 -16 -2 -26q-1 0 -1 -19q0 -10 -5 -15l-10 -18q-11 -17 -32 -17h29v10q-72 -107 -102 -142q5 5 5 13q0 15 17 9q-710 -988 -1258 -1566
q-3 -1 -104 -108l-67 17l77 95l-11 -24l48 -12q-145 -180 -449 -535l-75 19q39 34 72 85l-10 -21l47 -16q-20 -25 -33 -54l-67 17q18 34 26 71l105 185l7 22q11 10 25 32l-8 -22l47 -11q-22 -29 -46 -29h-5l-40 10l8 16l46 -12q-27 -28 -38 -54l-73 18l35 48h52q8 0 -23 -46
l-60 15q18 46 18 49q0 -22 -21 -22q436 684 664 967q254 371 491 655q128 162 178 263l-9 3v-20q13 26 39 26l24 51l31 -54l-25 6l85 71h14q-1 0 16 7l30 -8q22 -13 22 -30q0 -7 14 21h-20l25 -6q9 -31 -5 -27l24 5q9 -14 -10 -9q27 22 121 157q32 20 46 20h6l-3 1
q-1 -3 71 28z" />
    <glyph glyph-name="fraction" unicode="&#x2215;" horiz-adv-x="1068" 
d="M1548 2037q25 -34 25 -50q0 -12 5 -1l-50 17q2 3 26 3h13q30 -22 30 -39q0 -10 -17 -27h-15q17 0 36 38q-6 2 -6 -30q0 -16 -2 -26q-1 0 -1 -19q0 -10 -5 -15l-10 -18q-11 -17 -32 -17h29v10q-72 -107 -102 -142q5 5 5 13q0 15 17 9q-710 -988 -1258 -1566
q-3 -1 -104 -108l-67 17l77 95l-11 -24l48 -12q-145 -180 -449 -535l-75 19q39 34 72 85l-10 -21l47 -16q-20 -25 -33 -54l-67 17q18 34 26 71l105 185l7 22q11 10 25 32l-8 -22l47 -11q-22 -29 -46 -29h-5l-40 10l8 16l46 -12q-27 -28 -38 -54l-73 18l35 48h52q8 0 -23 -46
l-60 15q18 46 18 49q0 -22 -21 -22q436 684 664 967q254 371 491 655q128 162 178 263l-9 3v-20q13 26 39 26l24 51l31 -54l-25 6l85 71h14q-1 0 16 7l30 -8q22 -13 22 -30q0 -7 14 21h-20l25 -6q9 -31 -5 -27l24 5q9 -14 -10 -9q27 22 121 157q32 20 46 20h6l-3 1
q-1 -3 71 28z" />
    <glyph glyph-name="franc" unicode="&#x20a3;" horiz-adv-x="1242" 
d="M1770 1735v-61l-61 -7v40h54v-49q-52 -40 -395 -140q-129 -61 -386 -132l-91 -201l-56 -30h198q148 0 454 22v-65q-44 0 -54 -2v38h54v-50q-59 -37 -377 -133v35h27v-63h-14v43h21v-40q-37 -41 -334 -210q-185 -45 -185 -49q-175 -368 -336 -576q-60 -58 -337 -441h-34
l20 -13q0 20 -61 20l-20 72q103 414 245 762q323 730 324 742q-5 0 -13 31l-4 -2q-60 25 -67 60q8 14 8 -2q-21 0 -21 47q44 198 201 198q62 20 62 61h68l5 -3q5 10 48 10l47 -7q14 0 67 40h34q40 -6 40 -7q170 33 869 62z" />
    <glyph glyph-name="lira" unicode="&#x20a4;" 
 />
    <glyph glyph-name="peseta" unicode="&#x20a7;" horiz-adv-x="3893" 
d="M794 2058q218 -12 305 -12h66l345 -35h85q0 -10 58 -14v-53h-14v38h14v-37l6 10q-13 3 32 3v-61h-19q0 38 25 38v-62q-35 0 -51 -28v25q-31 0 -16 7l73 -11q0 -61 -73 -103q-399 -417 -804 -727q-297 -248 -401 -248q0 6 44 6q-29 -60 -209 -598h-59v31q0 17 13 67v-22
h47l-19 -76h-67q0 50 5 57l-5 20l13 90v-21h46q-89 -260 -120 -381h-66v30h49q-2 -8 -2 -36h-73v31q0 31 -6 31v17l6 59v-9h54q0 11 -83 -269h-99q45 57 46 89v-13h52q0 7 -19 -59h-66q0 40 -6 65q96 778 244 1349l99 414q-5 6 -5 8h16q-61 -18 -101 -18q-48 0 -80 61
q0 36 -10 36l10 -18v11q0 108 128 133q-1 2 -1 46q33 121 278 121q269 18 315 18zM631 1393q268 219 470 330v-29l-404 -36zM2167 1769q85 0 119 -128q-12 -39 -12 -50q88 -35 88 -119v-7q-5 -26 -5 -8l266 19v-58l-89 -14v41h-26l121 14v-64q-30 0 -42 -5v32q70 0 350 26
v-17h41v-29q0 -38 -219 -98q-56 -26 -53 -26v45h-18q8 0 148 13v-58l-77 -14v41h-26l103 13v-50q-91 -60 -526 -191q-60 -8 -60 -21q-196 -677 -298 -888q-53 -100 -173 -377h-63q0 43 6 51v-27h48l-6 -24h-61l-10 56v43q54 0 54 -9q-82 10 -73 7q-88 -163 -177 -266v90
q24 60 24 62v-20h45q-21 -44 -21 -71h-71v79q125 595 255 961q42 162 73 264q3 0 3 -1l4 1h-140q-22 0 -263 -42h-63q-31 28 -65 28v41v1l-14 15q-45 0 -45 92h36q-12 0 -12 -18l-6 28q0 32 53 51q0 30 59 35q0 7 54 13q0 -18 -18 3q0 27 19 36l2 -4q13 50 62 64
q0 19 208 45q251 45 248 44q0 154 65 164q49 165 94 178q29 -6 12 -6q0 14 72 14zM4004 1508v-62l-50 -15v37h-24q20 11 74 11v-46q-45 -41 -229 -166l-16 -15q-34 0 -34 -43q-49 -28 -39 -28v45h-28q27 5 100 5q-94 -109 -347 -302q-72 -44 -81 -52q22 0 372 -133
q138 -48 138 -83q-2 0 11 -41q-6 -14 -6 5q10 -2 10 -31v-5q0 -15 -9 -21q4 -6 4 -39l-14 -8l-1 3v-16q-112 -138 -300 -265q-179 -126 -423 -244q-45 -39 -232 -132q-227 -136 -290 -136q0 50 50 76v-34h33q-27 -13 -51 -32h-47v31q0 32 146 164h70q-96 -42 -153 -42
q4 53 57 77v-35h33q-40 -21 -63 -21h-58q70 96 269 263q72 78 358 327l78 87v-28h22q-212 42 -260 42q-70 -5 -135 -5q-161 0 -189 53q-5 0 5 -10q0 31 -56 31q-24 31 -24 21h55v25q5 -10 5 -52h-45q-70 44 -70 110q0 233 351 427q425 247 570 247h15q32 0 115 -11
q135 20 333 66z" />
    <glyph glyph-name="Euro" unicode="&#x20ac;" horiz-adv-x="1242" 
d="M1772 1706q109 0 266 -101l-17 -25v22q33 -3 33 -47q-8 -11 -8 14q-1 0 30 -43l-8 -11l6 -2q-26 -174 -320 -499q-26 0 -64 -24h-27q-47 0 -47 18h33l-75 -53q0 54 -56 61l-2 3l2 1h-103q0 18 -51 34l-75 135q37 0 46 59q27 0 39 16h53q-138 -62 -257 -143
q-43 0 -382 -299q-284 -368 -321 -600v6q17 -2 17 -56q-17 -2 -17 35q19 0 50 -117q0 16 -13 16q32 0 292 100q201 42 407 126h82l-25 -23h-66l25 11h46q0 -55 26 -27l-35 -13v-52l2 3h-57l33 18h60q-99 -240 -644 -452q-111 -38 -272 -38q-280 0 -390 274q-18 54 -18 138
v47q0 466 774 1090q404 262 777 361q159 37 251 37z" />
    <glyph glyph-name="uni2116" unicode="&#x2116;" horiz-adv-x="2377" 
d="M665 1953h72q0 -133 12 -133q-19 26 -12 -17q-6 -63 -6 -68l177 -1264q-40 0 9 214l253 690h58v-30q0 -11 -12 -60v17h-54q0 -11 25 68h65v-40q0 -30 28 -30q-28 28 -28 16h-47l30 98h65v-10h-48q4 17 250 491h56v-30q0 -14 -18 -53v24h-54q0 -14 28 44h62v-52l-168 -662
q-114 -656 -193 -979l-130 -383q23 -102 23 -156h-72q0 27 -1 30h49v22l6 -29v-40q-58 6 -60 9q0 47 -9 47l-15 22v-41h-72v10h54v23l45 -140h-72l-12 29h45v27q6 -8 6 -51h-58q-131 170 -300 670q-48 172 -182 724q33 0 -5 -148q0 -85 -212 -626q-37 -37 -111 -37
q0 23 -24 36v47h48q-22 -78 -66 -78q0 -5 -42 -5q-66 25 -66 97q7 0 -12 35q0 175 413 1189q0 85 52 85q17 19 85 148q-11 44 -11 152v30q55 49 78 49q43 0 71 -20h-21l12 34h64q0 -39 -18 -74v26h-43q13 24 13 53zM1234 1433h72v-60h-72v60zM1997 1733h38q107 0 190 -122
q21 -15 48 -91q28 -20 48 -97h31l-25 -36q0 29 25 29l-25 -36v-23q0 -40 -6 -94l20 -61q0 -100 -144 -272l-95 -72l-11 3q-138 -69 -216 -69v51l17 3v-44h30q-59 -12 -116 -12q-190 0 -305 175h45v-21h-67q0 28 -2 33h52v-29h-53q-45 58 -45 201v7q0 148 105 349
q98 142 250 181q162 47 211 47zM1707 1080h-67v26q-2 19 -2 0h56v-1q0 -1 22 -28q0 -16 49 -44q22 -3 45 -3h3q123 0 220 83q54 53 54 166v31q0 15 1 17l-1 4v51q-20 48 -57 64q-48 18 -77 18q-48 0 -169 -60q-24 -10 -24 -53q-53 -205 -53 -271zM2274 1416h67v-55h-67v55z
M1529 984v46h-57v-46h57z" />
    <glyph glyph-name="trademark" unicode="&#x2122;" horiz-adv-x="1340" 
d="M671 1499l31 -7q-11 -42 -67 -54l-34 -12l9 34l-31 7l92 8l5 18q-50 -22 -37 -22q6 0 48 -3q-13 -49 -32 -51l12 42l-34 5h13q5 0 61 -8l-2 -3l-22 3l-7 -50h-28q19 0 24 42l9 -1l-9 -33q-24 -23 -17 -20l-4 12l-4 -29l-16 -1l11 39l-30 7h11l52 -12q-66 -62 -188 -83
q-20 -1 112 46q-115 0 -115 -31q0 -39 -44 -283q-5 -25 -10 -43l-51 -308q-11 -57 -56 -203l-30 6q-26 5 -26 29q0 6 -5 -16h58q-3 -10 -30 -10h-6q-31 6 -31 81v19q-2 0 -2 24q0 6 -3 -9l55 -12l7 25q-11 -80 -16 -170v-31q-64 11 -64 57q0 24 3 66q-1 47 -1 85q0 97 3 110
l53 -12q-1 -2 -5 -32l-64 7l5 27l51 -11q3 7 -1 -13q-5 -29 -10 -132l-64 10q4 107 4 246q8 38 8 154q4 28 12 29q1 -7 1 1v5q7 26 37 26h-29v-21q0 56 27 197l14 78q29 -7 30 -7q-16 0 -87 -19q-39 -6 -155 -18l8 57h28q-22 0 -31 -48h38l-54 -14l13 44q2 11 -12 3l63 -14
l-35 2q-34 7 -56 10h-7q-27 0 -99 -10h-5q-6 -6 -46 -8l-84 -11l-9 31q5 22 50 33l-11 -36l33 -7q-43 -6 -54 -6h-5l-37 7l6 48h27q3 0 71 19l-10 -36l31 -7l-116 -6l-21 51q108 11 115 12l-11 -41q-3 1 -3 24v15q29 14 41 14h-23l-12 -44l-9 1l11 38q42 22 221 44
q97 14 247 31q2 11 36 11q6 0 34 -6q0 -2 -50 5q2 7 31 7h10l16 -10q35 4 126 9q29 7 108 8q20 6 34 6q7 0 11 -1zM226 893q49 0 47 -19l-2 -18l-8 19h-20q-24 0 -27 -20l1 8q3 30 5 35q4 -1 4 -5zM1121 546q4 36 -22 -62l-209 -310q158 351 158 377q0 18 23 65
q47 -27 47 -42q0 -26 -1 -26v-4h-22q-38 -40 -62 -40q-34 0 -34 30q0 20 31 78q12 81 126 340v-27h46q-26 -47 -140 -132q-17 -5 -17 11v-43h-66v20h50q4 12 4 -15h-56q-19 37 -52 196h45q-13 -47 -81 -187q-12 -17 -12 -60q-13 -10 -28 -65l-22 -18q0 -9 -21 -17
q-51 -78 -164 -127l167 158l-265 -406q176 405 176 381h54q0 7 -67 -99l-46 11l-27 23q18 88 18 112q0 17 31 133q0 123 174 534q27 35 98 35q0 -12 -31 -1q17 49 54 49h39v-4q-54 0 -54 8h82q0 -12 -38 -3q0 -6 38 -6q56 -17 56 -76v-127q0 -47 4 -80q-4 -22 -4 -74v-41
q-43 -13 45 102q67 74 198 202h71l-40 -52v30h-43q20 27 38 87q13 27 45 27q5 -2 -18 -2q2 7 39 7q55 -11 55 -13h-19q68 -9 68 -15q-9 0 9 -23q0 -34 7 -34l-7 19q0 -30 -101 -256q-66 -138 -95 -243q-4 -17 -8 -32q-6 -24 -9 -45q-3 -18 2 36q-48 -43 -35 -43q32 0 32 -30
q0 -6 -2 -18q-6 -33 -36 -137h-60v7h57v-7h-14q-24 -63 -61 -70l-92 -43l132 120l-108 -92l34 83h69v-6h-33q12 0 14 2q-10 -13 -144 -262l68 269l4 15l5 21l89 296l-29 -303l-2 -15l-2 -15l-7 -45l-11 -75l-45 5l-54 7l-84 -163l242 285l-205 -115h95q-24 0 -32 20
q-4 8 -4 21v6q0 8 2 18zM1089 973v18q3 -17 3 2h-57v-17q-3 16 -3 -3h57z" />
    <glyph glyph-name="partialdiff" unicode="&#x2202;" horiz-adv-x="0" 
 />
    <glyph glyph-name="Delta" unicode="&#x2206;" horiz-adv-x="0" 
 />
    <glyph glyph-name="product" unicode="&#x220f;" horiz-adv-x="1515" 
 />
    <glyph glyph-name="summation" unicode="&#x2211;" horiz-adv-x="1206" 
 />
    <glyph glyph-name="minus" unicode="&#x2212;" horiz-adv-x="1334" 
d="M722 1337h48v-35q-5 -8 -5 19q-50 0 -50 12h65q15 -65 25 -169q-10 -98 -21 -127q128 32 211 32q13 0 56 -4q56 4 140 4v-54l-25 -4v42h25v-38q-54 -51 -268 -152h12v46h30v-35l14 23h-44q7 0 110 12v-55q-57 -15 -35 -15v46h-27l30 4h76q-107 -97 -337 -198
q-28 0 -28 -50q-41 -139 -66 -274q-51 -68 -106 -68l-10 4q32 0 32 -4q-114 0 -129 52h41l-15 -40h-67q11 69 15 75v-27h46q-2 -4 -2 -32h-35q-40 0 -40 20h34l-15 -8h-44v-13l24 13q-52 0 -74 193q5 64 5 117q5 0 5 -46q-5 0 -5 -1q-140 -22 -181 -35q-85 0 -112 54l-22 30
l5 9l-1 2v4l-24 13l14 23v-10l-40 42q55 7 55 -12l-12 47q29 0 27 -2v-3l27 11h-17q-25 0 -47 33v-1q-3 0 -3 33q0 57 105 96q100 21 285 46q21 103 21 101q-10 0 -10 12h32l-30 -12l-27 43q116 138 144 155q81 44 197 44q3 -14 -6 -10zM499 367v42h-55v-42h55z" />
    <glyph glyph-name="radical" unicode="&#x221a;" 
 />
    <glyph glyph-name="infinity" unicode="&#x221e;" 
 />
    <glyph glyph-name="integral" unicode="&#x222b;" horiz-adv-x="665" 
 />
    <glyph glyph-name="approxequal" unicode="&#x2248;" horiz-adv-x="1785" 
d="M549 1350h20q26 0 54 -39l9 13h-45l60 8q49 -54 115 -84v19l-23 -9q39 0 241 -170q47 -25 59 -25q-3 0 206 171q95 27 202 78v-54q-6 -10 -6 35l-20 -10h46v-37l5 8l-31 12q76 41 176 67q0 -33 18 -44q-105 -297 -226 -363q-64 -46 -110 -74l-2 3v-37q-47 0 -126 -45
q-58 25 -58 7l13 8h-24l13 -8q0 14 -107 -6q-32 32 -32 9l20 10h-54l10 35q-179 62 -334 160h11q-63 -32 -262 -205q-30 0 -61 20q-11 -5 -37 -5h-21l-20 10h4l-91 -51h-66l13 20h74q0 -10 -43 -10h-37v32q13 56 34 91h50q-92 -46 -189 -46l26 26h66l-19 -11h-46v31
q0 38 153 195q16 55 238 205q90 60 154 60zM549 807h20q26 0 54 -39l9 13h-45l60 8q49 -54 115 -84v19l-23 -9q39 0 241 -170q47 -25 59 -25q-3 0 206 171q95 27 202 78v-54q-6 -10 -6 35l-20 -10h46v-37l5 8l-31 12q76 41 176 67q0 -33 18 -44q-105 -297 -226 -363
q-64 -46 -110 -74l-2 3v-37q-47 0 -126 -45q-58 25 -58 7l13 8h-24l13 -8q0 14 -107 -6q-32 32 -32 9l20 10h-54l10 35q-179 62 -334 160h11q-63 -32 -262 -205q-30 0 -61 20q-11 -5 -37 -5h-21l-20 10h4l-91 -51h-66l13 20h74q0 -10 -43 -10h-37v32q13 56 34 91h50
q-92 -46 -189 -46l26 26h66l-19 -11h-46v31q0 38 153 195q16 55 238 205q90 60 154 60z" />
    </font>
</defs>
</svg>
